<svg xmlns="http://www.w3.org/2000/svg" viewBox="193.0 438.5 88.2 96.6">
  <g fill="none" stroke="currentColor" stroke-width="1.5" stroke-linecap="round" stroke-linejoin="round">
    <path d="M214.661,516.98c0-0.254,0.043-0.477,0.131-0.66s0.209-0.348,0.361-0.492      c0.15-0.145,0.324-0.279,0.516-0.406c0.191-0.129,0.393-0.258,0.6-0.385c0.432-0.271,0.828-0.496,1.188-0.672      c0.361-0.176,0.805-0.264,1.332-0.264c0.336,0,0.633,0.004,0.889,0.012s0.52,0.117,0.791,0.324      c0.225,0.176,0.381,0.367,0.469,0.574c0.088,0.209,0.133,0.465,0.133,0.77c0,0.16-0.029,0.328-0.084,0.504      c-0.057,0.176-0.137,0.336-0.24,0.48c-0.105,0.145-0.232,0.26-0.385,0.348s-0.316,0.133-0.492,0.133s-0.316-0.045-0.42-0.133      s-0.199-0.18-0.287-0.277c-0.088-0.094-0.184-0.188-0.289-0.275c-0.104-0.088-0.236-0.131-0.395-0.131      c-0.209,0-0.42,0.02-0.637,0.059c-0.217,0.041-0.412,0.109-0.588,0.203c-0.176,0.098-0.32,0.219-0.432,0.361      c-0.113,0.145-0.168,0.32-0.168,0.529c0,0.191,0.062,0.328,0.191,0.406c0.127,0.082,0.283,0.137,0.469,0.168      c0.184,0.033,0.379,0.064,0.588,0.098c0.207,0.031,0.398,0.094,0.576,0.191c0.432,0.223,0.803,0.424,1.115,0.6      s0.668,0.4,1.068,0.672c0.145,0.08,0.271,0.148,0.383,0.205c0.113,0.055,0.221,0.107,0.324,0.156      c0.104,0.047,0.213,0.102,0.324,0.168c0.111,0.062,0.24,0.152,0.385,0.262c0.463,0.369,0.836,0.742,1.115,1.117      s0.42,0.867,0.42,1.477v0.551c0,0.191,0.033,0.363,0.096,0.516c0.064,0.152,0.098,0.332,0.098,0.541      c0,0.336-0.068,0.607-0.205,0.814c-0.137,0.211-0.268,0.449-0.396,0.723c-0.031,0.127-0.031,0.234,0,0.324      c0.033,0.086,0.008,0.18-0.072,0.273c-0.062,0.209-0.168,0.346-0.311,0.41c-0.145,0.062-0.281,0.176-0.408,0.336      c-0.145,0.127-0.281,0.238-0.408,0.336c-0.129,0.094-0.256,0.188-0.385,0.275c-0.127,0.088-0.26,0.172-0.395,0.252      c-0.137,0.08-0.301,0.168-0.492,0.264c-0.305,0.176-0.576,0.299-0.816,0.373c-0.24,0.07-0.52,0.146-0.84,0.227      c-0.113,0.031-0.209,0.084-0.289,0.156s-0.184,0.109-0.311,0.109c-0.145,0-0.258-0.012-0.336-0.037      c-0.082-0.025-0.168-0.037-0.266-0.037c-0.238,0-0.428,0.025-0.562,0.074c-0.137,0.047-0.309,0.07-0.518,0.07      c-0.127,0-0.227-0.027-0.299-0.082c-0.072-0.059-0.172-0.102-0.301-0.133c-0.176-0.064-0.332-0.094-0.467-0.086      c-0.137,0.008-0.293-0.004-0.469-0.035c-0.176,0-0.32-0.051-0.432-0.156c-0.113-0.104-0.256-0.211-0.432-0.324      c-0.178-0.094-0.346-0.164-0.504-0.203c-0.16-0.039-0.328-0.148-0.504-0.324c-0.178-0.096-0.273-0.219-0.289-0.371      s-0.072-0.316-0.168-0.492c-0.129-0.273-0.24-0.484-0.336-0.637s-0.145-0.387-0.145-0.707c0-0.465,0.176-0.867,0.529-1.213      c0.352-0.344,0.775-0.516,1.271-0.516c0.303,0,0.592,0.068,0.863,0.205c0.271,0.135,0.408,0.34,0.408,0.609      c0,0.098-0.012,0.168-0.035,0.219c-0.025,0.047-0.037,0.102-0.037,0.168c0,0.109,0.025,0.199,0.072,0.262      c0.049,0.066,0.072,0.137,0.072,0.217c0,0.033-0.012,0.076-0.035,0.131c-0.025,0.059-0.037,0.102-0.037,0.133      c0,0.24,0.064,0.445,0.191,0.613c0.129,0.168,0.293,0.312,0.492,0.432c0.201,0.119,0.428,0.209,0.686,0.264      c0.256,0.055,0.512,0.084,0.768,0.084c0.512,0,0.979-0.119,1.404-0.361c0.424-0.238,0.803-0.559,1.139-0.959      c0.193-0.209,0.352-0.424,0.48-0.646c0.129-0.227,0.191-0.504,0.191-0.842c0-0.191-0.047-0.371-0.143-0.539      c-0.096-0.17-0.145-0.34-0.145-0.518c0-0.078,0.012-0.123,0.035-0.131c0.025-0.008,0.037-0.027,0.037-0.061      c0-0.254-0.068-0.469-0.205-0.637c-0.135-0.168-0.307-0.314-0.516-0.441c-0.207-0.129-0.436-0.25-0.684-0.361      s-0.492-0.232-0.732-0.361c-0.064-0.031-0.115-0.086-0.156-0.168c-0.039-0.078-0.1-0.135-0.18-0.168      c-0.16-0.078-0.32-0.121-0.48-0.131c-0.16-0.008-0.311-0.076-0.455-0.205c-0.129-0.078-0.217-0.164-0.264-0.25      c-0.049-0.09-0.137-0.18-0.264-0.277c-0.178-0.078-0.334-0.123-0.469-0.133c-0.137-0.008-0.293-0.074-0.469-0.203      c-0.096-0.111-0.18-0.207-0.252-0.287s-0.139-0.186-0.203-0.312c-0.129-0.16-0.285-0.287-0.469-0.385      c-0.184-0.094-0.275-0.262-0.275-0.504v-0.6c0-0.096-0.008-0.191-0.023-0.287c-0.018-0.098-0.025-0.199-0.025-0.312      c0-0.062,0.008-0.117,0.025-0.156c0.016-0.039,0.023-0.092,0.023-0.156c0-0.078,0.012-0.148,0.035-0.203      C214.649,517.057,214.661,517.012,214.661,516.98z"/>
    <path d="M229.614,517.029c0.207,0.033,0.436,0.08,0.684,0.143c0.248,0.066,0.467,0.156,0.66,0.277      c0.191,0.121,0.344,0.279,0.455,0.48c0.111,0.199,0.152,0.459,0.121,0.779c0,0.176-0.037,0.344-0.109,0.504      s-0.16,0.309-0.264,0.443c-0.104,0.137-0.221,0.246-0.348,0.324c-0.129,0.082-0.24,0.121-0.336,0.121      c-0.129-0.016-0.236-0.027-0.324-0.037c-0.088-0.008-0.156-0.012-0.203-0.012h-0.145h-0.191c-0.273,0-0.576,0.01-0.912,0.025      s-0.568,0.07-0.697,0.168c-0.127,0-0.203,0.039-0.229,0.119c-0.023,0.08-0.035,0.176-0.035,0.287l-0.336,0.527      c-0.031,0.193-0.064,0.377-0.096,0.553c-0.033,0.145-0.064,0.287-0.096,0.432c-0.033,0.145-0.057,0.242-0.072,0.289v0.383      l-0.191,0.672c-0.033,0.066-0.072,0.129-0.121,0.193c-0.031,0.064-0.064,0.123-0.096,0.18c-0.033,0.057-0.057,0.107-0.072,0.156      c0,0.143,0.023,0.34,0.072,0.588s0.111,0.488,0.191,0.719c0.08,0.234,0.172,0.438,0.277,0.613      c0.104,0.176,0.219,0.273,0.348,0.289c0.24,0,0.488-0.098,0.744-0.289s0.508-0.404,0.756-0.637      c0.248-0.23,0.488-0.439,0.719-0.623c0.232-0.186,0.445-0.268,0.637-0.252c0.24,0.031,0.375,0.092,0.408,0.18      c0.031,0.088,0.031,0.18,0,0.275c-0.016,0.225-0.107,0.48-0.275,0.768c-0.168,0.289-0.369,0.574-0.602,0.852      c-0.23,0.281-0.471,0.537-0.719,0.77c-0.248,0.23-0.453,0.395-0.613,0.492c-0.527,0.336-1,0.615-1.416,0.84      c-0.416,0.223-0.879,0.32-1.391,0.289c-0.225-0.018-0.408-0.133-0.553-0.35s-0.256-0.463-0.336-0.744      c-0.08-0.279-0.141-0.555-0.18-0.828c-0.041-0.271-0.061-0.471-0.061-0.6l0.072-0.217c0-0.062-0.008-0.172-0.023-0.324      c-0.016-0.15-0.029-0.311-0.037-0.479s-0.016-0.332-0.023-0.492s-0.004-0.279,0.012-0.361c0-0.494,0.057-0.883,0.168-1.164      c0.111-0.277,0.168-0.578,0.168-0.898l0.264-0.602v-0.551c0.016-0.047,0.057-0.172,0.121-0.371      c0.062-0.201,0.139-0.426,0.229-0.672c0.088-0.25,0.172-0.5,0.252-0.758c0.078-0.254,0.143-0.455,0.191-0.6      c0-0.096,0.057-0.217,0.168-0.359c0.111-0.145,0.244-0.283,0.396-0.42c0.15-0.137,0.311-0.252,0.479-0.348      c0.168-0.098,0.316-0.145,0.445-0.145c0.096-0.031,0.152-0.055,0.168-0.072c0.016-0.016,0.023-0.031,0.023-0.049      c0-0.016,0.008-0.035,0.023-0.059s0.072-0.051,0.168-0.084c0.24-0.033,0.424-0.068,0.553-0.107      c0.127-0.041,0.248-0.082,0.359-0.121c0.113-0.039,0.221-0.072,0.324-0.096C229.272,517.016,229.421,517.012,229.614,517.029z"/>
    <path d="M236.09,516.98c0.227,0,0.5,0.008,0.828,0.023c0.33,0.016,0.605,0.074,0.83,0.168      c0.24,0,0.396,0.098,0.469,0.289s0.164,0.408,0.275,0.648c0.064,0.062,0.141,0.152,0.229,0.264s0.168,0.229,0.24,0.348      s0.131,0.244,0.18,0.373c0.049,0.127,0.072,0.238,0.072,0.336l-0.193,2.135c0,0.447-0.096,0.943-0.287,1.488      s-0.473,1.033-0.84,1.463c-0.129,0.129-0.221,0.27-0.275,0.422c-0.057,0.152-0.113,0.309-0.168,0.469      c-0.057,0.16-0.121,0.322-0.193,0.49s-0.174,0.334-0.299,0.492c-0.098,0.111-0.207,0.248-0.324,0.408      c-0.121,0.16-0.25,0.324-0.387,0.492c-0.133,0.168-0.277,0.32-0.43,0.457c-0.152,0.135-0.309,0.234-0.469,0.299      c-0.238,0.127-0.441,0.24-0.602,0.336s-0.301,0.176-0.43,0.24c-0.129,0.062-0.262,0.107-0.398,0.133      c-0.133,0.023-0.282,0.035-0.442,0.035c-0.24,0-0.465-0.057-0.672-0.168c-0.209-0.113-0.389-0.26-0.541-0.445      c-0.152-0.184-0.275-0.391-0.371-0.623s-0.145-0.467-0.145-0.709v-1.605c0-0.098-0.031-0.186-0.096-0.266      s-0.096-0.305-0.096-0.672c-0.016-0.465,0.096-1.023,0.336-1.68s0.523-1.301,0.852-1.934c0.328-0.631,0.656-1.191,0.983-1.68      c0.328-0.488,0.582-0.787,0.758-0.898c0.176-0.113,0.324-0.236,0.441-0.371c0.121-0.137,0.238-0.262,0.352-0.373      c0.109-0.111,0.227-0.205,0.348-0.275C235.742,517.016,235.898,516.98,236.09,516.98z M236.211,519.717      c-0.254,0-0.516,0.107-0.781,0.324c-0.262,0.217-0.508,0.463-0.73,0.744s-0.422,0.559-0.602,0.84      c-0.176,0.281-0.293,0.484-0.359,0.613l-0.239,0.91c-0.064,0.225-0.115,0.441-0.156,0.648c-0.039,0.207-0.059,0.336-0.059,0.383      v0.457c0.062,0.047,0.119,0.145,0.168,0.289c0.047,0.145,0.107,0.287,0.18,0.43c0.071,0.145,0.157,0.273,0.251,0.387      c0.098,0.109,0.234,0.168,0.41,0.168c0.32-0.145,0.613-0.289,0.887-0.434c0.223-0.129,0.445-0.264,0.66-0.406      c0.215-0.145,0.363-0.289,0.445-0.434c0.094-0.223,0.203-0.488,0.324-0.793c0.117-0.303,0.234-0.59,0.348-0.863      c-0.035-0.129,0.004-0.254,0.105-0.383c0.105-0.129,0.158-0.25,0.158-0.359v-0.674c0-0.08-0.021-0.221-0.061-0.42      s-0.105-0.406-0.191-0.625c-0.09-0.215-0.199-0.402-0.324-0.562C236.516,519.797,236.371,519.717,236.211,519.717z"/>
    <path d="M243.221,516.836c0.176-0.031,0.293-0.008,0.35,0.074c0.055,0.078,0.188,0.168,0.395,0.262      c0.176,0.098,0.328,0.209,0.457,0.336c0.127,0.129,0.191,0.281,0.191,0.457c-0.016,0.08-0.031,0.168-0.047,0.264      c-0.033,0.209-0.018,0.408,0.047,0.6c0,0.145-0.027,0.316-0.084,0.516c-0.057,0.201-0.068,0.365-0.035,0.492      c0.031,0.066,0.08,0.129,0.143,0.193c0.049,0.049,0.1,0.092,0.156,0.131c0.057,0.041,0.109,0.045,0.156,0.012      c0.16-0.031,0.332-0.184,0.516-0.455s0.365-0.576,0.541-0.912s0.352-0.664,0.527-0.984s0.336-0.535,0.48-0.648l0.744-0.191      c0.096-0.031,0.203-0.039,0.324-0.023c0.119,0.016,0.211,0.023,0.275,0.023c0.305,0.176,0.496,0.42,0.576,0.732      c0.08,0.311,0.135,0.557,0.168,0.732c0.016,0.223-0.061,0.52-0.229,0.887c-0.168,0.369-0.379,0.672-0.635,0.914      c-0.113,0.062-0.217,0.115-0.312,0.154c-0.096,0.041-0.191,0.076-0.289,0.107c-0.08,0-0.139-0.004-0.18-0.012      c-0.039-0.008-0.092-0.027-0.156-0.059c-0.08-0.031-0.154-0.053-0.227-0.061s-0.156-0.012-0.252-0.012      c-0.209,0-0.404,0.08-0.588,0.24c-0.186,0.16-0.365,0.328-0.541,0.504c-0.271,0.336-0.484,0.715-0.637,1.141      c-0.15,0.422-0.227,0.82-0.227,1.188c-0.113,0.111-0.244,0.25-0.396,0.418s-0.268,0.365-0.348,0.59      c-0.096,0.223-0.141,0.455-0.133,0.695s-0.035,0.473-0.131,0.695c0.016,0.193,0.016,0.414,0,0.66      c-0.018,0.25-0.045,0.508-0.084,0.781c-0.041,0.271-0.094,0.531-0.156,0.779c-0.064,0.248-0.137,0.467-0.217,0.66      c-0.111,0.08-0.248,0.152-0.408,0.217c-0.16,0.062-0.328,0.111-0.504,0.145c-0.191,0.047-0.4,0.078-0.623,0.094      c-0.08,0-0.186-0.062-0.312-0.191c-0.064-0.062-0.119-0.129-0.168-0.191l-0.336-0.672c-0.016-0.113,0-0.305,0.049-0.576      c0.047-0.271,0.104-0.549,0.168-0.828c0.062-0.279,0.123-0.533,0.18-0.756c0.055-0.223,0.084-0.352,0.084-0.383      c0.352-0.529,0.584-1.086,0.695-1.668c0.111-0.586,0.232-1.164,0.359-1.742l-0.191-1.582c-0.08-0.209-0.18-0.312-0.301-0.312      c-0.119,0-0.244,0.016-0.371,0.047c-0.256,0.049-0.439,0.117-0.553,0.203c-0.111,0.09-0.207,0.182-0.287,0.277      s-0.168,0.188-0.264,0.277c-0.096,0.086-0.264,0.146-0.504,0.18c-0.129,0-0.209-0.082-0.24-0.242      c-0.033-0.158-0.064-0.303-0.096-0.43c-0.033-0.145-0.01-0.285,0.072-0.422c0.078-0.135,0.188-0.264,0.322-0.383      c0.137-0.121,0.293-0.24,0.469-0.359c0.176-0.121,0.336-0.246,0.48-0.373c0.191-0.209,0.359-0.436,0.504-0.684      s0.287-0.48,0.432-0.697c0.145-0.215,0.309-0.398,0.492-0.551S242.934,516.869,243.221,516.836z"/>
    <path d="M252.773,514.701c0.047,0,0.131,0.027,0.252,0.084c0.119,0.055,0.24,0.129,0.359,0.215      c0.121,0.09,0.229,0.189,0.324,0.301c0.096,0.113,0.145,0.225,0.145,0.336c-0.145,0.352-0.281,0.68-0.408,0.984      c-0.111,0.273-0.225,0.539-0.336,0.805c-0.111,0.262-0.201,0.467-0.264,0.611c-0.049,0.064-0.137,0.197-0.264,0.396      c-0.129,0.199-0.266,0.414-0.408,0.648c-0.145,0.23-0.27,0.459-0.373,0.684c-0.104,0.223-0.156,0.383-0.156,0.48l0.217,0.336      c0.16,0,0.404-0.16,0.732-0.48s0.676-0.672,1.043-1.057c0.369-0.385,0.729-0.736,1.08-1.057s0.641-0.48,0.865-0.48      c0.238,0,0.424,0.125,0.551,0.373c0.129,0.248,0.229,0.525,0.301,0.828s0.115,0.592,0.131,0.865      c0.016,0.27,0.025,0.43,0.025,0.479c0,0.096-0.037,0.283-0.109,0.564c-0.07,0.281-0.123,0.531-0.154,0.756      c-0.064,0.049-0.098,0.1-0.098,0.156s0.008,0.1,0.025,0.131c0.016,0.049,0.039,0.09,0.072,0.121      c-0.018,0.176-0.084,0.428-0.205,0.756c-0.119,0.328-0.252,0.652-0.396,0.971c-0.143,0.32-0.279,0.613-0.408,0.877      c-0.127,0.264-0.215,0.42-0.264,0.467c-0.176,0.273-0.363,0.514-0.564,0.723c-0.199,0.207-0.412,0.406-0.635,0.598      c-0.225,0.209-0.496,0.414-0.816,0.613s-0.584,0.469-0.791,0.805c-0.24,0.223-0.492,0.414-0.758,0.574      c-0.264,0.16-0.508,0.332-0.73,0.516c-0.225,0.184-0.4,0.393-0.529,0.625c-0.127,0.23-0.168,0.523-0.119,0.875v0.48      c-0.016,0.225-0.041,0.412-0.072,0.564s-0.068,0.312-0.107,0.48c-0.041,0.168-0.076,0.355-0.109,0.564      c-0.031,0.207-0.047,0.488-0.047,0.84c-0.016,0.287-0.037,0.512-0.061,0.672s-0.057,0.289-0.096,0.383      c-0.041,0.098-0.076,0.176-0.107,0.242c-0.033,0.062-0.057,0.143-0.072,0.238c0,0.129,0,0.301,0,0.516      c0,0.217-0.016,0.492-0.049,0.828v0.527c0,0.336,0.084,0.533,0.252,0.59c0.168,0.055,0.373,0.082,0.613,0.082h0.455      c0.24,0,0.443,0.109,0.611,0.324c0.168,0.217,0.254,0.445,0.254,0.686c0,0.096-0.061,0.191-0.182,0.287      c-0.119,0.098-0.275,0.199-0.467,0.312c-0.24,0-0.484,0.072-0.732,0.215c-0.248,0.145-0.541,0.201-0.877,0.168h-0.936      c-0.336,0.082-0.68,0.133-1.031,0.156c-0.352,0.025-0.697,0.086-1.033,0.18c-0.176-0.016-0.307-0.016-0.395,0      s-0.168,0.041-0.24,0.074c-0.072,0.031-0.145,0.062-0.217,0.094c-0.072,0.033-0.164,0.049-0.275,0.049      c-0.096-0.016-0.188-0.064-0.275-0.143c-0.088-0.082-0.16-0.172-0.217-0.277c-0.057-0.104-0.1-0.203-0.133-0.301      c-0.031-0.094-0.047-0.168-0.047-0.215c0.016-0.191,0.076-0.332,0.18-0.42s0.229-0.152,0.371-0.193      c0.145-0.039,0.293-0.059,0.445-0.059s0.283,0,0.396,0c0.062-0.047,0.139-0.084,0.227-0.109c0.088-0.023,0.168-0.055,0.24-0.094      c0.072-0.041,0.137-0.09,0.191-0.145c0.057-0.057,0.084-0.141,0.084-0.254c0.049-0.109,0.102-0.262,0.156-0.453      c0.057-0.193,0.109-0.379,0.156-0.555c0.049-0.176,0.092-0.34,0.133-0.492c0.039-0.15,0.068-0.25,0.084-0.299v-0.217      c0-0.062,0.023-0.227,0.072-0.492c0.047-0.262,0.111-0.539,0.191-0.828c0.064-0.336,0.152-0.711,0.264-1.127      c0.033-0.096,0.072-0.184,0.121-0.264c0.031-0.08,0.062-0.156,0.096-0.227c0.031-0.074,0.047-0.133,0.047-0.182      c0-0.111,0.012-0.299,0.037-0.564c0.023-0.264,0.035-0.699,0.035-1.309l0.264-0.672l0.266-1.535l0.07-0.672      c0-0.047,0.025-0.125,0.072-0.227c0.049-0.105,0.104-0.221,0.168-0.35c0.064-0.127,0.121-0.264,0.168-0.408      c0.049-0.145,0.072-0.279,0.072-0.406c0.016-0.227,0.027-0.434,0.037-0.625c0.008-0.191,0.02-0.375,0.035-0.551      c0.016-0.178,0.031-0.361,0.049-0.555c0.047-0.223,0.104-0.438,0.168-0.646c0.047-0.176,0.096-0.352,0.143-0.529      c0.049-0.176,0.104-0.32,0.168-0.43l0.049-1.346c0-0.303-0.152-0.455-0.457-0.455c-0.127,0-0.252,0.055-0.371,0.168      c-0.119,0.111-0.26,0.23-0.42,0.359c-0.352,0.352-0.625,0.527-0.816,0.527c-0.08-0.016-0.127-0.035-0.145-0.059      c-0.016-0.023-0.031-0.053-0.047-0.086c-0.016-0.031-0.016-0.07,0-0.119c0-0.318,0.104-0.611,0.312-0.877      c0.207-0.262,0.416-0.547,0.623-0.852c0.24-0.445,0.527-0.879,0.863-1.295s0.682-0.836,1.033-1.26s0.684-0.855,0.996-1.297      c0.312-0.439,0.572-0.914,0.779-1.428c0.08-0.031,0.152-0.064,0.217-0.096C252.502,514.734,252.645,514.701,252.773,514.701z       M253.662,521.037c-0.129,0-0.285,0.057-0.469,0.168s-0.369,0.244-0.553,0.396s-0.34,0.297-0.467,0.432      c-0.129,0.135-0.193,0.229-0.193,0.275c-0.223,0.465-0.404,0.885-0.539,1.262c-0.137,0.375-0.293,0.777-0.469,1.211v0.672      c0,0.129,0.029,0.273,0.084,0.432c0.057,0.16,0.252,0.256,0.588,0.287c0.098,0,0.236-0.062,0.42-0.191s0.365-0.279,0.541-0.457      c0.207-0.191,0.424-0.414,0.648-0.672c0.127-0.078,0.248-0.18,0.359-0.299s0.24-0.244,0.385-0.373      c0.096-0.207,0.15-0.348,0.168-0.418c0.016-0.074,0.023-0.221,0.023-0.445c0-0.047-0.008-0.107-0.023-0.18      c-0.018-0.072-0.033-0.148-0.049-0.227c-0.031-0.082-0.057-0.168-0.072-0.266v-0.48c0-0.047,0-0.131,0-0.25      c0-0.121-0.008-0.242-0.023-0.361s-0.053-0.232-0.107-0.336C253.857,521.113,253.773,521.053,253.662,521.037z"/>
    <path d="M260.068,516.836c0.271,0,0.496,0.102,0.672,0.301s0.264,0.412,0.264,0.637l-0.215,0.672      c0.096,0.096,0.16,0.23,0.191,0.406c0.016,0.082,0.023,0.168,0.023,0.266c0,0.32-0.035,0.617-0.107,0.887      c-0.072,0.273-0.107,0.578-0.107,0.914v0.191c0,0.08-0.008,0.172-0.025,0.275c-0.016,0.104-0.039,0.205-0.07,0.299      c-0.033,0.113-0.064,0.234-0.098,0.361v0.264c0,0.176-0.027,0.32-0.084,0.434c-0.055,0.109-0.115,0.254-0.18,0.43      c-0.031,0.129-0.084,0.262-0.156,0.398c-0.07,0.135-0.107,0.291-0.107,0.467c0,0.064,0.016,0.146,0.049,0.252      c0.031,0.105,0.08,0.207,0.143,0.312c0.064,0.104,0.141,0.191,0.229,0.264s0.188,0.107,0.301,0.107      c0.127,0,0.244-0.039,0.348-0.121c0.104-0.078,0.188-0.168,0.252-0.262c0.08-0.082,0.164-0.148,0.252-0.205      s0.188-0.084,0.301-0.084h0.455c0.096,0,0.152,0.047,0.168,0.145c0.016,0.096,0.023,0.207,0.023,0.336      c0,0.047-0.072,0.145-0.215,0.289c-0.145,0.143-0.305,0.299-0.48,0.467s-0.352,0.328-0.527,0.479      c-0.178,0.152-0.297,0.254-0.361,0.301c-0.047,0.113-0.152,0.305-0.311,0.576c-0.16,0.271-0.336,0.549-0.529,0.828      c-0.191,0.279-0.396,0.529-0.611,0.744c-0.217,0.215-0.404,0.324-0.564,0.324c-0.111,0-0.236-0.035-0.371-0.109      c-0.137-0.07-0.262-0.168-0.373-0.287s-0.203-0.244-0.275-0.373c-0.072-0.127-0.107-0.254-0.107-0.383v-0.383      c0-0.129-0.01-0.242-0.025-0.336c-0.016-0.098-0.072-0.145-0.168-0.145v-0.457l0.193-0.672v-1.129      c0-0.238,0.031-0.43,0.096-0.574c0.062-0.145,0.096-0.328,0.096-0.553v-0.217c0-0.109,0.035-0.27,0.107-0.48      c0.072-0.207,0.148-0.43,0.229-0.672c0.08-0.238,0.156-0.475,0.229-0.707c0.072-0.23,0.107-0.436,0.107-0.611      c0-0.127-0.053-0.268-0.156-0.42s-0.275-0.229-0.516-0.229c-0.096,0-0.18,0.033-0.252,0.096      c-0.072,0.064-0.275,0.098-0.611,0.098c-0.033-0.016-0.064-0.057-0.098-0.121c-0.062-0.096-0.096-0.215-0.096-0.359v-0.385      c0-0.143,0.141-0.355,0.42-0.635c0.281-0.281,0.6-0.562,0.961-0.84c0.359-0.281,0.707-0.529,1.043-0.746      C259.756,516.945,259.973,516.836,260.068,516.836z M260.141,511.172c0.064,0,0.148-0.012,0.252-0.035s0.211-0.047,0.324-0.072      c0.111-0.023,0.219-0.049,0.324-0.072c0.104-0.023,0.18-0.035,0.227-0.035c0.225,0.08,0.369,0.215,0.434,0.408      c0.062,0.191,0.158,0.393,0.287,0.6c0,0.129,0.012,0.256,0.037,0.383c0.023,0.129,0.035,0.25,0.035,0.361      c0,0.096-0.033,0.213-0.096,0.348c-0.064,0.137-0.096,0.309-0.096,0.518c-0.033,0.109-0.076,0.246-0.133,0.406      s-0.129,0.309-0.215,0.445c-0.09,0.135-0.193,0.246-0.312,0.336c-0.121,0.086-0.26,0.115-0.42,0.082      c-0.225,0-0.469-0.074-0.732-0.227s-0.461-0.348-0.588-0.588c-0.113-0.096-0.152-0.24-0.121-0.432      c0.033-0.191,0.049-0.359,0.049-0.504c0-0.434,0.072-0.785,0.217-1.057C259.756,511.766,259.932,511.477,260.141,511.172z"/>
    <path d="M267.146,516.98c0.225,0,0.5,0.008,0.828,0.023s0.604,0.074,0.828,0.168c0.24,0,0.396,0.098,0.469,0.289      s0.164,0.408,0.275,0.648c0.064,0.062,0.141,0.152,0.229,0.264s0.168,0.229,0.24,0.348s0.131,0.244,0.18,0.373      c0.049,0.127,0.072,0.238,0.072,0.336l-0.193,2.135c0,0.447-0.096,0.943-0.287,1.488s-0.473,1.033-0.84,1.463      c-0.129,0.129-0.221,0.27-0.275,0.422c-0.057,0.152-0.113,0.309-0.168,0.469c-0.057,0.16-0.121,0.322-0.193,0.49      s-0.172,0.334-0.299,0.492c-0.096,0.111-0.205,0.248-0.324,0.408c-0.121,0.16-0.248,0.324-0.385,0.492      c-0.135,0.168-0.279,0.32-0.432,0.457c-0.152,0.135-0.309,0.234-0.469,0.299c-0.238,0.127-0.439,0.24-0.6,0.336      s-0.303,0.176-0.432,0.24c-0.129,0.062-0.26,0.107-0.396,0.133c-0.135,0.023-0.283,0.035-0.443,0.035      c-0.24,0-0.465-0.057-0.672-0.168c-0.209-0.113-0.389-0.26-0.541-0.445c-0.152-0.184-0.275-0.391-0.371-0.623      s-0.145-0.467-0.145-0.709v-1.605c0-0.098-0.031-0.186-0.096-0.266s-0.096-0.305-0.096-0.672      c-0.016-0.465,0.096-1.023,0.336-1.68s0.523-1.301,0.852-1.934c0.328-0.631,0.656-1.191,0.984-1.68s0.58-0.787,0.756-0.898      c0.176-0.113,0.324-0.236,0.443-0.371c0.121-0.137,0.236-0.262,0.35-0.373c0.111-0.111,0.227-0.205,0.348-0.275      C266.799,517.016,266.955,516.98,267.146,516.98z M267.268,519.717c-0.256,0-0.516,0.107-0.781,0.324      c-0.264,0.217-0.508,0.463-0.73,0.744c-0.225,0.281-0.424,0.559-0.602,0.84c-0.176,0.281-0.295,0.484-0.359,0.613l-0.24,0.91      c-0.064,0.225-0.115,0.441-0.156,0.648c-0.039,0.207-0.059,0.336-0.059,0.383v0.457c0.062,0.047,0.119,0.145,0.168,0.289      c0.047,0.145,0.107,0.287,0.18,0.43c0.072,0.145,0.156,0.273,0.252,0.387c0.096,0.109,0.232,0.168,0.408,0.168      c0.32-0.145,0.615-0.289,0.887-0.434c0.225-0.129,0.445-0.264,0.66-0.406c0.217-0.145,0.365-0.289,0.445-0.434      c0.096-0.223,0.203-0.488,0.324-0.793c0.119-0.303,0.234-0.59,0.348-0.863c-0.033-0.129,0.004-0.254,0.107-0.383      s0.156-0.25,0.156-0.359v-0.674c0-0.08-0.02-0.221-0.061-0.42c-0.039-0.199-0.104-0.406-0.191-0.625      c-0.088-0.215-0.197-0.402-0.324-0.562C267.57,519.797,267.428,519.717,267.268,519.717z"/>
    <path d="M216.829,491.922      c0,1.324-1.074,2.398-2.402,2.398c-1.324,0-2.398-1.074-2.398-2.398c0-1.328,1.074-2.402,2.398-2.402      C215.755,489.52,216.829,490.594,216.829,491.922z"/>
    <path d="M236.337,491.918      c0,1.328-1.074,2.402-2.398,2.402c-1.328,0-2.4-1.074-2.4-2.402c0-1.324,1.072-2.398,2.4-2.398      C235.263,489.52,236.337,490.594,236.337,491.918z"/>
    <path d="M207.021,452.469      c0,1.324-1.074,2.398-2.402,2.398c-1.324,0-2.398-1.074-2.398-2.398c0-1.328,1.074-2.402,2.398-2.402      C205.946,450.066,207.021,451.141,207.021,452.469z"/>
    <path d="M226.638,452.467      c0,1.326-1.074,2.4-2.398,2.4c-1.328,0-2.4-1.074-2.4-2.4c0-1.324,1.072-2.398,2.4-2.398      C225.563,450.068,226.638,451.143,226.638,452.467z"/>
    <path d="M236.436,462.072      c0,1.324-1.071,2.398-2.397,2.398c-1.324,0-2.4-1.074-2.4-2.398c0-1.328,1.076-2.402,2.4-2.402      C235.364,459.67,236.436,460.744,236.436,462.072z"/>
    <path d="M256.066,462.07      c0,1.328-1.07,2.402-2.398,2.402c-1.324,0-2.398-1.074-2.398-2.402c0-1.324,1.074-2.398,2.398-2.398      C254.996,459.672,256.066,460.746,256.066,462.07z"/>
    <circle cx="214.429" cy="462.07" r="2.4"/>
    <circle cx="243.857" cy="452.467" r="2.4"/>
    <circle cx="253.668" cy="491.672" r="2.4"/>
    <circle cx="278.1" cy="480.096" r="2.4"/>
    <circle cx="278.1" cy="467.49" r="2.4"/>
    <circle cx="265.494" cy="467.49" r="2.4"/>
    <line x1="214.429" y1="462.273" x2="214.429" y2="491.92"/>
    <line x1="233.937" y1="462.273" x2="233.937" y2="491.92"/>
    <line x1="204.618" y1="452.467" x2="214.429" y2="462.273"/>
    <line x1="278.1" y1="467.49" x2="278.1" y2="480.096"/>
    <line x1="278.1" y1="467.49" x2="265.494" y2="467.49"/>
    <polyline points="214.429,462.273       224.237,452.467 234.05,462.273     "/>
    <polyline points="234.05,462.273       243.857,452.467 253.668,462.273 253.668,491.922 278.1,467.49     "/>
  </g>
</svg>
