<svg xmlns="http://www.w3.org/2000/svg" viewBox="73.8 84.1 89.0 88.8">
  <g fill="none" stroke="currentColor" stroke-width="1.5" stroke-linecap="round" stroke-linejoin="round">
    <path d="M139.295,98.108      c4.332,12.481,3.666,24.481,11.666,24.481c7,0,7.084-8.667-0.334-8.667c-6.666,0-12.629,16.139-17.314,26.736"/>
    <path d="M122.538,125.261       c0-1.325-1.072-2.399-2.4-2.399c-1.324,0-2.398,1.074-2.398,2.399c0,1.326,1.074,2.4,2.398,2.4       C121.466,127.661,122.538,126.587,122.538,125.261z"/>
    <path d="M122.538,98.108       c0,1.325-1.072,2.399-2.4,2.399c-1.324,0-2.398-1.074-2.398-2.399c0-1.326,1.074-2.4,2.398-2.4       C121.466,95.708,122.538,96.782,122.538,98.108z"/>
    <path d="M141.694,98.108       c0,1.325-1.072,2.399-2.4,2.399c-1.324,0-2.398-1.074-2.398-2.399c0-1.326,1.074-2.4,2.398-2.4       C140.622,95.708,141.694,96.782,141.694,98.108z"/>
    <path d="M112.962,111.686       c0-1.326-1.074-2.4-2.398-2.4c-1.328,0-2.4,1.074-2.4,2.4c0,1.325,1.072,2.399,2.4,2.399       C111.888,114.085,112.962,113.011,112.962,111.686z"/>
    <path d="M114.295,140.524"/>
    <path d="M133.451,140.524"/>
    <path d="M116.693,140.525       c0-1.326-1.074-2.4-2.398-2.4c-1.328,0-2.4,1.074-2.4,2.4c0,1.325,1.072,2.399,2.4,2.399       C115.619,142.925,116.693,141.851,116.693,140.525z"/>
    <path d="M87.831,152.563c0.119,0.104,0.211,0.235,0.275,0.396s0.1,0.324,0.109,0.492      c0.008,0.168,0.012,0.309,0.012,0.42v0.456c-0.096,0.368-0.262,0.704-0.492,1.008c-0.232,0.304-0.533,0.456-0.9,0.456      c-0.24,0-0.496-0.076-0.768-0.228c-0.273-0.152-0.576-0.229-0.912-0.229c-0.352,0-0.697,0.124-1.033,0.372      s-0.639,0.54-0.91,0.876c-0.273,0.336-0.492,0.676-0.66,1.021c-0.168,0.344-0.252,0.611-0.252,0.804v0.673v0.91      c0,0.191,0.031,0.52,0.096,0.984c0.062,0.465,0.168,0.941,0.311,1.43c0.145,0.488,0.332,0.918,0.564,1.295      s0.523,0.564,0.877,0.564l0.479-0.191c0.369,0,0.713-0.045,1.033-0.133s0.615-0.27,0.889-0.539      c0.352-0.418,0.688-0.746,1.008-0.984c0.096-0.082,0.207-0.137,0.336-0.168c0.127-0.033,0.24-0.049,0.336-0.049      c0.031,0.033,0.072,0.08,0.119,0.143c0.096,0.129,0.145,0.242,0.145,0.336c0,0.354-0.129,0.758-0.385,1.213      s-0.564,0.889-0.924,1.297s-0.729,0.756-1.104,1.045c-0.377,0.285-0.684,0.43-0.924,0.43h-0.191      c-0.225,0.049-0.434,0.098-0.625,0.145c-0.176,0.031-0.344,0.064-0.504,0.098c-0.16,0.031-0.271,0.047-0.336,0.047      c-0.129,0-0.309-0.057-0.541-0.168c-0.23-0.113-0.475-0.244-0.73-0.396s-0.488-0.311-0.697-0.479      c-0.207-0.168-0.336-0.316-0.383-0.445c-0.064-0.047-0.148-0.203-0.252-0.469c-0.105-0.262-0.209-0.559-0.312-0.887      s-0.191-0.652-0.264-0.973s-0.107-0.559-0.107-0.719v-0.746c-0.049-0.094-0.098-0.184-0.145-0.262      c-0.08-0.16-0.121-0.297-0.121-0.41c0.033-0.191,0.072-0.375,0.121-0.551c0.031-0.145,0.062-0.297,0.096-0.457      c0.031-0.16,0.049-0.287,0.049-0.383v-0.527c0-0.049-0.018-0.109-0.049-0.18c-0.033-0.073-0.064-0.149-0.096-0.229      c-0.049-0.08-0.088-0.168-0.121-0.264l0.266-0.744v-0.456c0.127-0.271,0.246-0.52,0.359-0.744      c0.096-0.191,0.195-0.376,0.299-0.552c0.105-0.176,0.197-0.304,0.277-0.384c0.047-0.304,0.168-0.576,0.359-0.816      s0.42-0.464,0.684-0.672s0.549-0.399,0.852-0.576c0.305-0.176,0.609-0.352,0.912-0.528c0.176-0.031,0.354-0.071,0.529-0.119      c0.127-0.032,0.26-0.064,0.396-0.097c0.135-0.031,0.227-0.048,0.275-0.048h0.48h0.912l0.742-0.264      C87.53,152.407,87.712,152.459,87.831,152.563z"/>
    <path d="M96.819,154.591c0.336,0,0.576,0.097,0.719,0.288c0.145,0.192,0.217,0.456,0.217,0.792      c0,0.064-0.023,0.204-0.072,0.42c-0.047,0.216-0.107,0.456-0.18,0.72c-0.072,0.265-0.148,0.532-0.229,0.805      s-0.143,0.488-0.191,0.647c0,0.129-0.008,0.261-0.023,0.396c-0.018,0.136-0.072,0.315-0.168,0.54      c-0.129,0.096-0.193,0.252-0.193,0.467c0,0.217,0,0.373,0,0.469l-0.072,1.273v0.934c0,0.049,0.004,0.133,0.014,0.254      c0.008,0.119,0.023,0.238,0.047,0.359s0.068,0.225,0.133,0.312c0.062,0.088,0.152,0.133,0.264,0.133l0.336-0.529      c0.096-0.08,0.207-0.18,0.336-0.299c0.127-0.121,0.256-0.238,0.385-0.35c0.143-0.127,0.287-0.264,0.432-0.408      c0.096,0,0.176,0.041,0.24,0.121c0.062,0.08,0.096,0.168,0.096,0.264l-0.096,0.191c-0.064,0.129-0.129,0.225-0.193,0.287      c-0.111,0.32-0.256,0.598-0.432,0.828c-0.176,0.234-0.367,0.457-0.576,0.672c-0.207,0.219-0.42,0.438-0.635,0.66      c-0.217,0.227-0.42,0.48-0.613,0.77l-0.527,0.742c0,0.145-0.045,0.293-0.133,0.445s-0.191,0.273-0.311,0.359      c-0.121,0.09-0.248,0.129-0.385,0.121s-0.244-0.102-0.324-0.277c-0.096-0.287-0.145-0.57-0.145-0.852      c0-0.279,0.025-0.551,0.072-0.816c0.049-0.262,0.096-0.516,0.145-0.754c0.049-0.242,0.072-0.473,0.072-0.697v-0.865v-0.479      c0-0.08-0.057-0.135-0.168-0.168c-0.064-0.016-0.121-0.025-0.168-0.025c-0.049,0-0.168,0.141-0.359,0.422      c-0.193,0.279-0.412,0.6-0.66,0.959c-0.25,0.361-0.502,0.725-0.756,1.092c-0.258,0.369-0.465,0.633-0.625,0.793      c-0.049,0.062-0.125,0.156-0.229,0.275s-0.215,0.236-0.336,0.35c-0.119,0.109-0.252,0.211-0.395,0.299      c-0.145,0.088-0.273,0.131-0.385,0.131c-0.225,0-0.408-0.078-0.553-0.238c-0.143-0.16-0.256-0.348-0.336-0.564      s-0.141-0.432-0.18-0.648s-0.061-0.373-0.061-0.467l-0.07-1.73l0.336-2.807c0-0.049,0.023-0.16,0.07-0.336      c0.049-0.176,0.113-0.369,0.193-0.576s0.172-0.412,0.275-0.612c0.104-0.199,0.211-0.363,0.324-0.491      c0.463-0.433,0.912-0.96,1.344-1.584c0.207-0.288,0.408-0.496,0.6-0.624c0.193-0.128,0.385-0.229,0.576-0.301      c0.191-0.071,0.385-0.128,0.576-0.168c0.191-0.039,0.408-0.123,0.648-0.252c0.096,0,0.219-0.052,0.371-0.155      c0.152-0.104,0.293-0.204,0.42-0.301h0.672h0.408L96.819,154.591z M93.747,157.255c-0.289,0.24-0.561,0.517-0.816,0.828      c-0.256,0.312-0.48,0.628-0.672,0.948s-0.344,0.619-0.455,0.9c-0.113,0.279-0.168,0.5-0.168,0.66      c0,0.078-0.01,0.227-0.025,0.443s-0.008,0.439,0.025,0.672c0.031,0.232,0.092,0.439,0.18,0.623      c0.088,0.186,0.244,0.277,0.467,0.277c0.209,0,0.453-0.184,0.732-0.553c0.279-0.367,0.545-0.783,0.793-1.248      s0.455-0.895,0.623-1.297c0.168-0.398,0.252-0.639,0.252-0.719c0-0.063,0.008-0.22,0.023-0.468s0.004-0.488-0.035-0.72      c-0.041-0.232-0.129-0.4-0.264-0.505C94.271,156.995,94.05,157.047,93.747,157.255z"/>
    <path d="M103.034,152.527c0.047,0,0.131,0.027,0.252,0.084c0.119,0.056,0.24,0.128,0.359,0.216      c0.121,0.088,0.229,0.188,0.324,0.3c0.096,0.112,0.145,0.225,0.145,0.336c-0.145,0.353-0.281,0.681-0.408,0.984      c-0.111,0.272-0.225,0.54-0.336,0.804s-0.201,0.468-0.264,0.612c-0.049,0.063-0.137,0.196-0.264,0.396      c-0.129,0.2-0.266,0.416-0.408,0.648c-0.145,0.231-0.27,0.46-0.373,0.684c-0.104,0.225-0.156,0.384-0.156,0.48l0.217,0.336      c0.16,0,0.404-0.16,0.732-0.48c0.328-0.319,0.676-0.672,1.043-1.056c0.369-0.384,0.729-0.735,1.08-1.056s0.641-0.48,0.865-0.48      c0.238,0,0.424,0.124,0.551,0.372c0.129,0.248,0.229,0.524,0.301,0.828s0.115,0.592,0.131,0.864      c0.016,0.271,0.025,0.432,0.025,0.479c0,0.096-0.037,0.284-0.109,0.564c-0.07,0.28-0.123,0.531-0.154,0.756      c-0.064,0.049-0.098,0.1-0.098,0.156s0.008,0.1,0.025,0.131c0.016,0.049,0.039,0.09,0.072,0.121      c-0.018,0.176-0.084,0.428-0.205,0.756c-0.119,0.328-0.252,0.652-0.396,0.971c-0.143,0.32-0.279,0.613-0.408,0.877      c-0.127,0.264-0.215,0.42-0.264,0.467c-0.176,0.273-0.363,0.514-0.564,0.723c-0.199,0.207-0.412,0.406-0.635,0.598      c-0.225,0.209-0.496,0.414-0.816,0.613s-0.584,0.469-0.791,0.805c-0.24,0.223-0.492,0.414-0.758,0.574      c-0.264,0.16-0.508,0.332-0.73,0.516c-0.225,0.184-0.4,0.393-0.529,0.625c-0.127,0.23-0.168,0.523-0.119,0.875v0.48      c-0.016,0.225-0.041,0.412-0.072,0.564s-0.068,0.312-0.107,0.48c-0.041,0.168-0.076,0.355-0.109,0.564      c-0.031,0.207-0.047,0.488-0.047,0.84c-0.016,0.287-0.037,0.512-0.061,0.672s-0.057,0.289-0.096,0.383      c-0.041,0.098-0.076,0.176-0.107,0.242c-0.033,0.062-0.057,0.143-0.072,0.238c0,0.129,0,0.301,0,0.516      c0,0.217-0.016,0.492-0.049,0.828v0.527c0,0.336,0.084,0.533,0.252,0.59c0.168,0.055,0.373,0.082,0.613,0.082h0.455      c0.24,0,0.443,0.109,0.611,0.324c0.168,0.217,0.254,0.445,0.254,0.686c0,0.096-0.061,0.191-0.182,0.287      c-0.119,0.098-0.275,0.199-0.467,0.312c-0.24,0-0.484,0.072-0.732,0.215c-0.248,0.145-0.541,0.201-0.877,0.168h-0.936      c-0.336,0.082-0.68,0.133-1.031,0.156c-0.352,0.025-0.697,0.086-1.033,0.18c-0.176-0.016-0.307-0.016-0.395,0      s-0.168,0.041-0.24,0.074c-0.072,0.031-0.145,0.062-0.217,0.094c-0.072,0.033-0.164,0.049-0.275,0.049      c-0.096-0.016-0.188-0.064-0.275-0.143c-0.088-0.082-0.16-0.172-0.217-0.277c-0.057-0.104-0.1-0.203-0.133-0.301      c-0.031-0.094-0.047-0.168-0.047-0.215c0.016-0.191,0.076-0.332,0.18-0.42s0.229-0.152,0.371-0.193      c0.145-0.039,0.293-0.059,0.445-0.059s0.283,0,0.396,0c0.062-0.047,0.139-0.084,0.227-0.109c0.088-0.023,0.168-0.055,0.24-0.094      c0.072-0.041,0.137-0.09,0.191-0.145c0.057-0.057,0.084-0.141,0.084-0.254c0.049-0.109,0.102-0.262,0.156-0.453      c0.057-0.193,0.109-0.379,0.156-0.555c0.049-0.176,0.092-0.34,0.133-0.492c0.039-0.15,0.068-0.25,0.084-0.299v-0.217      c0-0.062,0.023-0.227,0.072-0.492c0.047-0.262,0.111-0.539,0.191-0.828c0.064-0.336,0.152-0.711,0.264-1.127      c0.033-0.096,0.072-0.184,0.121-0.264c0.031-0.08,0.062-0.156,0.096-0.227c0.031-0.074,0.047-0.133,0.047-0.182      c0-0.111,0.012-0.299,0.037-0.564c0.023-0.264,0.035-0.699,0.035-1.309l0.264-0.672l0.266-1.535l0.07-0.672      c0-0.047,0.025-0.125,0.072-0.227c0.049-0.105,0.104-0.221,0.168-0.35c0.064-0.127,0.121-0.264,0.168-0.408      c0.049-0.145,0.072-0.279,0.072-0.406c0.016-0.227,0.027-0.434,0.037-0.625c0.008-0.191,0.02-0.375,0.035-0.551      c0.016-0.178,0.031-0.361,0.049-0.555c0.047-0.223,0.104-0.438,0.168-0.646c0.047-0.176,0.096-0.352,0.143-0.529      c0.049-0.176,0.104-0.32,0.168-0.43l0.049-1.346c0-0.303-0.152-0.455-0.457-0.455c-0.127,0-0.252,0.055-0.371,0.168      c-0.119,0.111-0.26,0.23-0.42,0.359c-0.352,0.352-0.625,0.527-0.816,0.527c-0.08-0.016-0.127-0.035-0.145-0.059      c-0.016-0.023-0.031-0.053-0.047-0.086c-0.016-0.031-0.016-0.07,0-0.119c0-0.318,0.104-0.611,0.312-0.876      c0.207-0.264,0.416-0.548,0.623-0.852c0.24-0.447,0.527-0.88,0.863-1.296s0.682-0.836,1.033-1.26s0.684-0.856,0.996-1.296      c0.312-0.44,0.572-0.916,0.779-1.429c0.08-0.031,0.152-0.063,0.217-0.096C102.763,152.56,102.905,152.527,103.034,152.527z       M103.923,158.863c-0.129,0-0.285,0.057-0.469,0.168s-0.369,0.244-0.553,0.396s-0.34,0.297-0.467,0.432      c-0.129,0.135-0.193,0.229-0.193,0.275c-0.223,0.465-0.404,0.885-0.539,1.262c-0.137,0.375-0.293,0.777-0.469,1.211v0.672      c0,0.129,0.029,0.273,0.084,0.432c0.057,0.16,0.252,0.256,0.588,0.287c0.098,0,0.236-0.062,0.42-0.191s0.365-0.279,0.541-0.457      c0.207-0.191,0.424-0.414,0.648-0.672c0.127-0.078,0.248-0.18,0.359-0.299s0.24-0.244,0.385-0.373      c0.096-0.207,0.15-0.348,0.168-0.418c0.016-0.074,0.023-0.221,0.023-0.445c0-0.047-0.008-0.107-0.023-0.18      c-0.018-0.072-0.033-0.148-0.049-0.227c-0.031-0.082-0.057-0.168-0.072-0.266v-0.48c0-0.047,0-0.131,0-0.25      c0-0.121-0.008-0.242-0.023-0.361s-0.053-0.232-0.107-0.336C104.118,158.939,104.034,158.879,103.923,158.863z"/>
    <path d="M110.497,154.663c0.176-0.032,0.293-0.008,0.35,0.072c0.055,0.08,0.188,0.168,0.395,0.264      c0.176,0.096,0.328,0.208,0.457,0.336c0.127,0.128,0.191,0.28,0.191,0.456c-0.016,0.08-0.031,0.168-0.047,0.264      c-0.033,0.208-0.018,0.408,0.047,0.601c0,0.144-0.027,0.315-0.084,0.516s-0.068,0.364-0.035,0.492      c0.031,0.064,0.08,0.128,0.143,0.192c0.049,0.048,0.1,0.092,0.156,0.132s0.109,0.044,0.156,0.012      c0.16-0.032,0.332-0.184,0.516-0.456c0.184-0.271,0.365-0.576,0.541-0.912s0.352-0.664,0.527-0.983      c0.176-0.32,0.336-0.536,0.48-0.648l0.744-0.192c0.096-0.031,0.203-0.039,0.324-0.023c0.119,0.016,0.211,0.023,0.275,0.023      c0.305,0.177,0.496,0.42,0.576,0.732c0.08,0.312,0.135,0.556,0.168,0.732c0.016,0.224-0.061,0.52-0.229,0.888      s-0.379,0.672-0.635,0.912c-0.113,0.063-0.217,0.116-0.312,0.155c-0.096,0.041-0.191,0.076-0.289,0.108      c-0.08,0-0.139-0.004-0.18-0.012c-0.039-0.008-0.092-0.028-0.156-0.061c-0.08-0.031-0.154-0.052-0.227-0.06      s-0.156-0.012-0.252-0.012c-0.209,0-0.404,0.08-0.588,0.239c-0.186,0.16-0.365,0.328-0.541,0.505      c-0.271,0.336-0.484,0.715-0.637,1.141c-0.15,0.422-0.227,0.82-0.227,1.188c-0.113,0.111-0.244,0.25-0.396,0.418      s-0.268,0.365-0.348,0.59c-0.096,0.223-0.141,0.455-0.133,0.695s-0.035,0.473-0.131,0.695c0.016,0.193,0.016,0.414,0,0.66      c-0.018,0.25-0.045,0.508-0.084,0.781c-0.041,0.271-0.094,0.531-0.156,0.779c-0.064,0.248-0.137,0.467-0.217,0.66      c-0.111,0.08-0.248,0.152-0.408,0.217c-0.16,0.062-0.328,0.111-0.504,0.145c-0.191,0.047-0.4,0.078-0.623,0.094      c-0.08,0-0.186-0.062-0.312-0.191c-0.064-0.062-0.119-0.129-0.168-0.191l-0.336-0.672c-0.016-0.113,0-0.305,0.049-0.576      c0.047-0.271,0.104-0.549,0.168-0.828c0.062-0.279,0.123-0.533,0.18-0.756c0.055-0.223,0.084-0.352,0.084-0.383      c0.352-0.529,0.584-1.086,0.695-1.668c0.111-0.586,0.232-1.164,0.359-1.742l-0.191-1.583c-0.08-0.208-0.18-0.312-0.301-0.312      c-0.119,0-0.244,0.017-0.371,0.048c-0.256,0.049-0.439,0.117-0.553,0.204c-0.111,0.089-0.207,0.181-0.287,0.276      s-0.168,0.188-0.264,0.277c-0.096,0.086-0.264,0.146-0.504,0.18c-0.129,0-0.209-0.082-0.24-0.241      c-0.033-0.159-0.064-0.304-0.096-0.432c-0.033-0.145-0.01-0.284,0.072-0.42c0.078-0.136,0.188-0.265,0.322-0.384      c0.137-0.12,0.293-0.24,0.469-0.36s0.336-0.244,0.48-0.372c0.191-0.208,0.359-0.436,0.504-0.684s0.287-0.48,0.432-0.696      s0.309-0.4,0.492-0.552C109.974,154.787,110.21,154.695,110.497,154.663z"/>
    <path d="M119.065,154.663c0.271,0,0.496,0.1,0.672,0.3s0.264,0.412,0.264,0.636l-0.215,0.673      c0.096,0.096,0.16,0.231,0.191,0.407c0.016,0.081,0.023,0.168,0.023,0.265c0,0.32-0.035,0.616-0.107,0.888      c-0.072,0.272-0.107,0.576-0.107,0.912v0.192c0,0.08-0.008,0.172-0.025,0.275c-0.016,0.104-0.039,0.205-0.07,0.299      c-0.033,0.113-0.064,0.234-0.098,0.361v0.264c0,0.176-0.027,0.32-0.084,0.434c-0.055,0.109-0.115,0.254-0.18,0.43      c-0.031,0.129-0.084,0.262-0.156,0.398c-0.07,0.135-0.107,0.291-0.107,0.467c0,0.064,0.016,0.146,0.049,0.252      c0.031,0.105,0.08,0.207,0.143,0.312c0.064,0.104,0.141,0.191,0.229,0.264s0.188,0.107,0.301,0.107      c0.127,0,0.244-0.039,0.348-0.121c0.104-0.078,0.188-0.168,0.252-0.262c0.08-0.082,0.164-0.148,0.252-0.205      s0.188-0.084,0.301-0.084h0.455c0.096,0,0.152,0.047,0.168,0.145c0.016,0.096,0.023,0.207,0.023,0.336      c0,0.047-0.072,0.145-0.215,0.289c-0.145,0.143-0.305,0.299-0.48,0.467s-0.352,0.328-0.527,0.479      c-0.178,0.152-0.297,0.254-0.361,0.301c-0.047,0.113-0.152,0.305-0.311,0.576c-0.16,0.271-0.336,0.549-0.529,0.828      c-0.191,0.279-0.396,0.529-0.611,0.744c-0.217,0.215-0.404,0.324-0.564,0.324c-0.111,0-0.236-0.035-0.371-0.109      c-0.137-0.07-0.262-0.168-0.373-0.287s-0.203-0.244-0.275-0.373c-0.072-0.127-0.107-0.254-0.107-0.383v-0.383      c0-0.129-0.01-0.242-0.025-0.336c-0.016-0.098-0.072-0.145-0.168-0.145v-0.457l0.193-0.672v-1.129      c0-0.238,0.031-0.43,0.096-0.574c0.062-0.145,0.096-0.328,0.096-0.553v-0.217c0-0.109,0.035-0.27,0.107-0.48      c0.072-0.207,0.148-0.43,0.229-0.672c0.08-0.238,0.156-0.475,0.229-0.707c0.072-0.23,0.107-0.436,0.107-0.611      c0-0.128-0.053-0.268-0.156-0.42s-0.275-0.229-0.516-0.229c-0.096,0-0.18,0.032-0.252,0.096      c-0.072,0.064-0.275,0.097-0.611,0.097c-0.033-0.016-0.064-0.056-0.098-0.12c-0.062-0.096-0.096-0.216-0.096-0.36v-0.384      c0-0.144,0.141-0.355,0.42-0.636c0.281-0.28,0.6-0.561,0.961-0.84c0.359-0.28,0.707-0.528,1.043-0.744      S118.97,154.663,119.065,154.663z M119.138,148.999c0.064,0,0.148-0.012,0.252-0.036c0.104-0.023,0.211-0.048,0.324-0.072      c0.111-0.023,0.219-0.048,0.324-0.071c0.104-0.024,0.18-0.036,0.227-0.036c0.225,0.08,0.369,0.216,0.434,0.408      c0.062,0.191,0.158,0.392,0.287,0.6c0,0.128,0.012,0.256,0.037,0.384c0.023,0.129,0.035,0.248,0.035,0.36      c0,0.096-0.033,0.212-0.096,0.348c-0.064,0.137-0.096,0.309-0.096,0.517c-0.033,0.111-0.076,0.248-0.133,0.407      c-0.057,0.16-0.129,0.309-0.215,0.444c-0.09,0.136-0.193,0.248-0.312,0.336c-0.121,0.088-0.26,0.116-0.42,0.084      c-0.225,0-0.469-0.075-0.732-0.228s-0.461-0.349-0.588-0.588c-0.113-0.097-0.152-0.24-0.121-0.433      c0.033-0.191,0.049-0.359,0.049-0.504c0-0.432,0.072-0.783,0.217-1.056C118.753,149.591,118.929,149.303,119.138,148.999z"/>
    <path d="M126.411,154.855c0.207,0.032,0.436,0.08,0.684,0.144c0.248,0.064,0.467,0.156,0.66,0.276      c0.191,0.12,0.344,0.279,0.455,0.479s0.152,0.46,0.121,0.78c0,0.176-0.037,0.344-0.109,0.504s-0.16,0.309-0.264,0.444      s-0.221,0.244-0.348,0.323c-0.129,0.081-0.24,0.12-0.336,0.12c-0.129-0.016-0.236-0.027-0.324-0.036      c-0.088-0.008-0.156-0.012-0.203-0.012h-0.145h-0.191c-0.273,0-0.576,0.009-0.912,0.024s-0.568,0.071-0.697,0.168      c-0.127,0-0.203,0.04-0.229,0.12c-0.023,0.08-0.035,0.176-0.035,0.288l-0.336,0.526c-0.031,0.193-0.064,0.377-0.096,0.553      c-0.033,0.145-0.064,0.287-0.096,0.432c-0.033,0.145-0.057,0.242-0.072,0.289v0.383l-0.191,0.672      c-0.033,0.066-0.072,0.129-0.121,0.193c-0.031,0.064-0.064,0.123-0.096,0.18c-0.033,0.057-0.057,0.107-0.072,0.156      c0,0.143,0.023,0.34,0.072,0.588s0.111,0.488,0.191,0.719c0.08,0.234,0.172,0.438,0.277,0.613      c0.104,0.176,0.219,0.273,0.348,0.289c0.24,0,0.488-0.098,0.744-0.289s0.508-0.404,0.756-0.637      c0.248-0.23,0.488-0.439,0.719-0.623c0.232-0.186,0.445-0.268,0.637-0.252c0.24,0.031,0.375,0.092,0.408,0.18      c0.031,0.088,0.031,0.18,0,0.275c-0.016,0.225-0.107,0.48-0.275,0.768c-0.168,0.289-0.369,0.574-0.602,0.852      c-0.23,0.281-0.471,0.537-0.719,0.77c-0.248,0.23-0.453,0.395-0.613,0.492c-0.527,0.336-1,0.615-1.416,0.84      c-0.416,0.223-0.879,0.32-1.391,0.289c-0.225-0.018-0.408-0.133-0.553-0.35s-0.256-0.463-0.336-0.744      c-0.08-0.279-0.141-0.555-0.18-0.828c-0.041-0.271-0.061-0.471-0.061-0.6l0.072-0.217c0-0.062-0.008-0.172-0.023-0.324      c-0.016-0.15-0.029-0.311-0.037-0.479s-0.016-0.332-0.023-0.492s-0.004-0.279,0.012-0.361c0-0.494,0.057-0.883,0.168-1.164      c0.111-0.277,0.168-0.578,0.168-0.898l0.264-0.602v-0.551c0.016-0.047,0.057-0.172,0.121-0.372      c0.062-0.2,0.139-0.424,0.229-0.672c0.088-0.248,0.172-0.5,0.252-0.756c0.078-0.256,0.143-0.456,0.191-0.601      c0-0.096,0.057-0.216,0.168-0.359c0.111-0.145,0.244-0.284,0.396-0.42c0.15-0.136,0.311-0.252,0.479-0.349      c0.168-0.096,0.316-0.144,0.445-0.144c0.096-0.032,0.152-0.056,0.168-0.072c0.016-0.016,0.023-0.031,0.023-0.048      c0-0.016,0.008-0.036,0.023-0.06c0.016-0.024,0.072-0.052,0.168-0.084c0.24-0.032,0.424-0.068,0.553-0.108      c0.127-0.04,0.248-0.08,0.359-0.12c0.113-0.04,0.221-0.072,0.324-0.096C126.069,154.843,126.218,154.839,126.411,154.855z"/>
    <path d="M132.888,154.807c0.225,0,0.5,0.009,0.828,0.024s0.604,0.072,0.828,0.168      c0.24,0,0.396,0.096,0.469,0.288s0.164,0.408,0.275,0.647c0.064,0.064,0.141,0.152,0.229,0.265s0.168,0.228,0.24,0.348      s0.131,0.244,0.18,0.372s0.072,0.24,0.072,0.336l-0.193,2.136c0,0.447-0.096,0.943-0.287,1.488s-0.473,1.033-0.84,1.463      c-0.129,0.129-0.221,0.27-0.275,0.422c-0.057,0.152-0.113,0.309-0.168,0.469c-0.057,0.16-0.121,0.322-0.193,0.49      s-0.172,0.334-0.299,0.492c-0.096,0.111-0.205,0.248-0.324,0.408c-0.121,0.16-0.248,0.324-0.385,0.492      c-0.135,0.168-0.279,0.32-0.432,0.457c-0.152,0.135-0.309,0.234-0.469,0.299c-0.238,0.127-0.439,0.24-0.6,0.336      s-0.303,0.176-0.432,0.24c-0.129,0.062-0.26,0.107-0.396,0.133c-0.135,0.023-0.283,0.035-0.443,0.035      c-0.24,0-0.465-0.057-0.672-0.168c-0.209-0.113-0.389-0.26-0.541-0.445c-0.152-0.184-0.275-0.391-0.371-0.623      s-0.145-0.467-0.145-0.709v-1.605c0-0.098-0.031-0.186-0.096-0.266s-0.096-0.305-0.096-0.672      c-0.016-0.465,0.096-1.023,0.336-1.68s0.523-1.301,0.852-1.933s0.656-1.191,0.984-1.68s0.58-0.788,0.756-0.9      c0.176-0.111,0.324-0.235,0.443-0.371c0.121-0.136,0.236-0.261,0.35-0.372c0.111-0.112,0.227-0.204,0.348-0.276      C132.54,154.843,132.696,154.807,132.888,154.807z M133.009,157.543c-0.256,0-0.516,0.108-0.781,0.324      c-0.264,0.216-0.508,0.464-0.73,0.744c-0.225,0.281-0.424,0.559-0.602,0.84c-0.176,0.281-0.295,0.484-0.359,0.613l-0.24,0.91      c-0.064,0.225-0.115,0.441-0.156,0.648c-0.039,0.207-0.059,0.336-0.059,0.383v0.457c0.062,0.047,0.119,0.145,0.168,0.289      c0.047,0.145,0.107,0.287,0.18,0.43c0.072,0.145,0.156,0.273,0.252,0.387c0.096,0.109,0.232,0.168,0.408,0.168      c0.32-0.145,0.615-0.289,0.887-0.434c0.225-0.129,0.445-0.264,0.66-0.406c0.217-0.145,0.365-0.289,0.445-0.434      c0.096-0.223,0.203-0.488,0.324-0.793c0.119-0.303,0.234-0.59,0.348-0.863c-0.033-0.129,0.004-0.254,0.107-0.383      s0.156-0.25,0.156-0.359v-0.674c0-0.08-0.02-0.221-0.061-0.42c-0.039-0.199-0.104-0.407-0.191-0.624      c-0.088-0.216-0.197-0.403-0.324-0.563C133.312,157.623,133.169,157.543,133.009,157.543z"/>
    <path d="M140.017,154.663c0.176-0.032,0.293-0.008,0.35,0.072c0.055,0.08,0.188,0.168,0.395,0.264      c0.176,0.096,0.328,0.208,0.457,0.336c0.127,0.128,0.191,0.28,0.191,0.456c-0.016,0.08-0.031,0.168-0.047,0.264      c-0.033,0.208-0.018,0.408,0.047,0.601c0,0.144-0.027,0.315-0.084,0.516s-0.068,0.364-0.035,0.492      c0.031,0.064,0.08,0.128,0.143,0.192c0.049,0.048,0.1,0.092,0.156,0.132s0.109,0.044,0.156,0.012      c0.16-0.032,0.332-0.184,0.516-0.456c0.184-0.271,0.365-0.576,0.541-0.912s0.352-0.664,0.527-0.983      c0.176-0.32,0.336-0.536,0.48-0.648l0.744-0.192c0.096-0.031,0.203-0.039,0.324-0.023c0.119,0.016,0.211,0.023,0.275,0.023      c0.305,0.177,0.496,0.42,0.576,0.732c0.08,0.312,0.135,0.556,0.168,0.732c0.016,0.224-0.061,0.52-0.229,0.888      s-0.379,0.672-0.635,0.912c-0.113,0.063-0.217,0.116-0.312,0.155c-0.096,0.041-0.191,0.076-0.289,0.108      c-0.08,0-0.139-0.004-0.18-0.012c-0.039-0.008-0.092-0.028-0.156-0.061c-0.08-0.031-0.154-0.052-0.227-0.06      s-0.156-0.012-0.252-0.012c-0.209,0-0.404,0.08-0.588,0.239c-0.186,0.16-0.365,0.328-0.541,0.505      c-0.271,0.336-0.484,0.715-0.637,1.141c-0.15,0.422-0.227,0.82-0.227,1.188c-0.113,0.111-0.244,0.25-0.396,0.418      s-0.268,0.365-0.348,0.59c-0.096,0.223-0.141,0.455-0.133,0.695s-0.035,0.473-0.131,0.695c0.016,0.193,0.016,0.414,0,0.66      c-0.018,0.25-0.045,0.508-0.084,0.781c-0.041,0.271-0.094,0.531-0.156,0.779c-0.064,0.248-0.137,0.467-0.217,0.66      c-0.111,0.08-0.248,0.152-0.408,0.217c-0.16,0.062-0.328,0.111-0.504,0.145c-0.191,0.047-0.4,0.078-0.623,0.094      c-0.08,0-0.186-0.062-0.312-0.191c-0.064-0.062-0.119-0.129-0.168-0.191l-0.336-0.672c-0.016-0.113,0-0.305,0.049-0.576      c0.047-0.271,0.104-0.549,0.168-0.828c0.062-0.279,0.123-0.533,0.18-0.756c0.055-0.223,0.084-0.352,0.084-0.383      c0.352-0.529,0.584-1.086,0.695-1.668c0.111-0.586,0.232-1.164,0.359-1.742l-0.191-1.583c-0.08-0.208-0.18-0.312-0.301-0.312      c-0.119,0-0.244,0.017-0.371,0.048c-0.256,0.049-0.439,0.117-0.553,0.204c-0.111,0.089-0.207,0.181-0.287,0.276      s-0.168,0.188-0.264,0.277c-0.096,0.086-0.264,0.146-0.504,0.18c-0.129,0-0.209-0.082-0.24-0.241      c-0.033-0.159-0.064-0.304-0.096-0.432c-0.033-0.145-0.01-0.284,0.072-0.42c0.078-0.136,0.188-0.265,0.322-0.384      c0.137-0.12,0.293-0.24,0.469-0.36s0.336-0.244,0.48-0.372c0.191-0.208,0.359-0.436,0.504-0.684s0.287-0.48,0.432-0.696      s0.309-0.4,0.492-0.552C139.493,154.787,139.729,154.695,140.017,154.663z"/>
    <path d="M148.872,155.071c0.176,0,0.312,0.056,0.408,0.168s0.184,0.231,0.264,0.359      c0.049,0.112,0.064,0.265,0.049,0.456c-0.016,0.192-0.045,0.385-0.084,0.576c-0.039,0.192-0.08,0.376-0.119,0.552      c-0.041,0.177-0.061,0.297-0.061,0.36l0.072,0.384l0.264,0.48c0.064,0,0.188-0.092,0.371-0.276      c0.184-0.184,0.4-0.411,0.648-0.684s0.508-0.564,0.781-0.876c0.271-0.312,0.535-0.604,0.791-0.876      c0.256-0.272,0.488-0.5,0.695-0.685c0.209-0.184,0.361-0.275,0.457-0.275c0.127,0,0.236,0.08,0.324,0.239      c0.088,0.16,0.172,0.328,0.252,0.505c0.08,0.208,0.152,0.447,0.215,0.72c0.016,0.224,0,0.536-0.047,0.936      c-0.049,0.4-0.125,0.837-0.229,1.309c-0.104,0.473-0.217,0.953-0.336,1.439c-0.119,0.488-0.232,0.936-0.336,1.344      s-0.191,0.748-0.264,1.021c-0.072,0.271-0.107,0.414-0.107,0.43c0,0.066-0.01,0.141-0.025,0.23      c-0.016,0.086-0.023,0.168-0.023,0.238c0,0.072,0.02,0.133,0.061,0.18c0.039,0.049,0.123,0.074,0.252,0.074      c0.096-0.066,0.191-0.129,0.287-0.193c0.08-0.064,0.168-0.127,0.264-0.193c0.096-0.062,0.201-0.135,0.312-0.215      c0.271-0.176,0.523-0.34,0.756-0.492s0.381-0.227,0.443-0.227c0.098,0,0.201,0.051,0.312,0.156      c0.111,0.102,0.168,0.203,0.168,0.299c0,0.033-0.051,0.119-0.156,0.264c-0.104,0.145-0.227,0.297-0.371,0.457      s-0.289,0.305-0.432,0.432c-0.145,0.127-0.248,0.191-0.312,0.191c0,0.127-0.045,0.248-0.133,0.361      c-0.088,0.111-0.18,0.168-0.275,0.168c-0.256,0.271-0.473,0.535-0.648,0.791s-0.352,0.492-0.527,0.709      c-0.176,0.215-0.369,0.387-0.576,0.516c-0.209,0.127-0.473,0.191-0.791,0.191c-0.113,0-0.229-0.039-0.35-0.121      c-0.119-0.078-0.227-0.18-0.324-0.299c-0.096-0.119-0.172-0.248-0.227-0.385c-0.057-0.137-0.084-0.252-0.084-0.348l-0.072-0.863      c0.096-0.434,0.219-0.896,0.371-1.393s0.293-0.959,0.42-1.393c0.129-0.367,0.232-0.719,0.312-1.055s0.137-0.656,0.168-0.961      v-0.264c-0.064-0.447-0.225-0.672-0.48-0.672c-0.383,0-0.688,0.084-0.912,0.252c-0.223,0.168-0.406,0.383-0.551,0.648      c-0.145,0.264-0.268,0.547-0.373,0.852c-0.104,0.305-0.219,0.592-0.348,0.863c-0.08,0.098-0.131,0.188-0.156,0.277      c-0.023,0.086-0.02,0.195,0.012,0.324c-0.031,0.191-0.068,0.383-0.107,0.574s-0.092,0.377-0.156,0.553      c-0.176,0.514-0.344,1.02-0.504,1.525c-0.16,0.504-0.303,0.971-0.432,1.402c0.08,0.129,0.068,0.203-0.035,0.229      c-0.105,0.023-0.205,0.037-0.301,0.037s-0.232-0.006-0.408-0.014s-0.348-0.037-0.516-0.084s-0.32-0.121-0.457-0.215      c-0.135-0.098-0.211-0.232-0.227-0.41c-0.033-0.27,0-0.555,0.096-0.852c0.096-0.295,0.203-0.57,0.324-0.828      c0.119-0.254,0.236-0.48,0.348-0.672s0.168-0.32,0.168-0.383v-0.408v-0.455l-0.121-0.41c0-0.094,0.033-0.219,0.098-0.371      c0.062-0.152,0.131-0.305,0.203-0.457c0.072-0.15,0.141-0.289,0.205-0.418c0.062-0.129,0.096-0.225,0.096-0.289v-0.336      l-0.072-0.936c0-0.097-0.012-0.196-0.037-0.3c-0.023-0.104-0.1-0.156-0.227-0.156c-0.096,0-0.205,0.023-0.324,0.072      c-0.121,0.048-0.24,0.1-0.361,0.155c-0.119,0.057-0.23,0.108-0.336,0.156c-0.104,0.048-0.188,0.072-0.252,0.072h-0.191      c-0.111-0.064-0.141-0.188-0.084-0.372s0.084-0.324,0.084-0.42c0.4-0.561,0.787-1.052,1.164-1.477      c0.375-0.424,0.828-0.804,1.355-1.14c0.113-0.063,0.266-0.145,0.457-0.24S148.696,155.071,148.872,155.071z"/>
    <circle cx="100.987" cy="98.108" r="2.4"/>
    <circle cx="129.581" cy="111.819" r="2.4"/>
    <circle cx="133.312" cy="140.659" r="2.4"/>
    <circle cx="81.835" cy="98.108" r="2.4"/>
    <line x1="100.989" y1="98.108" x2="81.837" y2="98.108"/>
    <line x1="133.447" y1="140.524" x2="114.295" y2="140.524"/>
    <polyline points="110.563,111.685        120.138,125.261 129.716,111.685      "/>
    <polyline points="120.142,98.108        100.989,98.108 110.563,111.685      "/>
    <polyline points="120.142,98.108        139.294,98.108 129.72,111.685      "/>
    <polygon points="110.563,111.685        120.138,98.108 129.716,111.685      "/>
  </g>
</svg>
