<svg xmlns="http://www.w3.org/2000/svg" viewBox="71.9 216.7 91.9 76.6">
  <g fill="none" stroke="currentColor" stroke-width="1.5" stroke-linecap="round" stroke-linejoin="round">
    <path d="M85.874,230.684      c-1.551,0-3.1-0.592-4.281-1.775c-2.367-2.365-2.367-6.203,0-8.568c2.365-2.367,6.117-3.182,8.57-0.002l9.242,13.105"/>
    <path d="M149.761,230.684      c1.551,0,3.1-0.592,4.281-1.775c2.367-2.365,2.367-6.203,0-8.568c-2.365-2.367-6.117-3.182-8.57-0.002l-9.242,13.105"/>
    <path d="M129.321,246.648      c0-1.281-1.039-2.318-2.318-2.318s-2.316,1.037-2.316,2.318c0,1.277,1.037,2.314,2.316,2.314S129.321,247.926,129.321,246.648z"/>
    <path d="M104.27,274.717c0.352,0,0.617,0.076,0.793,0.228c0.176,0.152,0.299,0.349,0.371,0.588      c0.072,0.24,0.121,0.501,0.145,0.78c0.023,0.28,0.053,0.548,0.084,0.804v0.864c0.096,0.177,0.221,0.412,0.373,0.708      c0.15,0.296,0.227,0.597,0.227,0.9v0.6c0,0.048,0.041,0.192,0.121,0.432c0.08,0.24,0.172,0.505,0.275,0.792      c0.104,0.288,0.195,0.564,0.275,0.828c0.08,0.265,0.121,0.443,0.121,0.541c0,0.305,0.039,0.707,0.119,1.211      s0.184,0.996,0.312,1.477c0.127,0.48,0.275,0.896,0.443,1.248s0.348,0.527,0.541,0.527c0.223,0,0.398,0.025,0.527,0.072      s0.24,0.072,0.336,0.072c0.049,0,0.133,0.008,0.252,0.023c0.121,0.018,0.248,0.049,0.385,0.096      c0.135,0.049,0.252,0.117,0.348,0.205s0.145,0.205,0.145,0.348c0,0.32-0.113,0.545-0.336,0.672      c-0.225,0.127-0.488,0.193-0.793,0.193l-1.607-0.074h-0.672h-1.201h-0.527l-0.672,0.074c-0.096,0-0.252-0.01-0.469-0.025      c-0.215-0.016-0.324-0.08-0.324-0.191c0-0.225,0.102-0.408,0.301-0.553s0.436-0.264,0.709-0.359      c0.223-0.08,0.41-0.168,0.562-0.266c0.152-0.094,0.229-0.254,0.229-0.479c0-0.049-0.02-0.168-0.061-0.361      c-0.039-0.191-0.088-0.395-0.143-0.611c-0.057-0.217-0.121-0.408-0.193-0.576s-0.139-0.25-0.203-0.25      c-0.049-0.16-0.084-0.336-0.107-0.529c-0.025-0.193-0.057-0.365-0.098-0.516c-0.039-0.152-0.104-0.268-0.191-0.35      c-0.088-0.078-0.221-0.102-0.396-0.07h-0.814c-0.049,0-0.141,0-0.277,0c-0.135,0-0.275,0.008-0.42,0.023      c-0.143,0.016-0.283,0.035-0.42,0.059c-0.135,0.025-0.229,0.062-0.275,0.109c-0.209,0.096-0.293,0.236-0.252,0.42      c0.039,0.186,0.061,0.381,0.061,0.588c-0.049,0.064-0.121,0.188-0.217,0.371c-0.096,0.186-0.188,0.383-0.275,0.59      s-0.164,0.398-0.229,0.574c-0.064,0.178-0.096,0.289-0.096,0.336c0,0.193,0.051,0.328,0.156,0.41      c0.104,0.078,0.219,0.156,0.348,0.227c0.127,0.072,0.244,0.172,0.348,0.301s0.156,0.344,0.156,0.648      c0,0.096-0.033,0.172-0.096,0.227c-0.064,0.057-0.141,0.098-0.229,0.121s-0.176,0.039-0.264,0.047s-0.156,0.012-0.205,0.012      c0,0.049-0.016,0.082-0.047,0.098c-0.033,0.016-0.076,0.023-0.133,0.023s-0.131-0.039-0.229-0.121c-0.062,0-0.146,0-0.252,0      c-0.104,0-0.211-0.008-0.322-0.023l-0.434-0.047c-0.207,0-0.375,0.023-0.504,0.07c-0.127,0.049-0.295,0.074-0.504,0.074      c-0.225,0-0.383,0.012-0.479,0.035c-0.098,0.023-0.166,0.047-0.205,0.07c-0.039,0.025-0.068,0.045-0.084,0.062      c-0.016,0.016-0.047,0.023-0.096,0.023c-0.08,0-0.221-0.008-0.42-0.023c-0.201-0.018-0.404-0.047-0.611-0.086      c-0.209-0.039-0.389-0.096-0.541-0.168c-0.152-0.07-0.229-0.156-0.229-0.25c0-0.305,0.092-0.562,0.277-0.77      c0.184-0.207,0.428-0.312,0.73-0.312l0.457-0.119c0.031,0,0.092-0.029,0.18-0.084s0.18-0.125,0.275-0.203      c0.098-0.082,0.197-0.164,0.301-0.254c0.104-0.086,0.188-0.156,0.252-0.203c0.096-0.398,0.268-0.836,0.516-1.309      c0.248-0.471,0.477-0.924,0.684-1.355c0.098-0.271,0.221-0.555,0.373-0.852s0.291-0.548,0.42-0.757      c0.16-0.304,0.295-0.6,0.408-0.888c0.111-0.288,0.215-0.579,0.312-0.876c0.096-0.296,0.199-0.596,0.311-0.899      c0.113-0.304,0.24-0.616,0.385-0.937c0.111-0.24,0.199-0.5,0.264-0.78c0.064-0.279,0.123-0.567,0.18-0.863      s0.129-0.597,0.217-0.9s0.203-0.607,0.348-0.912c0.096-0.08,0.199-0.176,0.312-0.288c0.111-0.111,0.271-0.216,0.479-0.312      H104.27z M103.982,279.108c-0.111,0-0.213,0.048-0.301,0.145c-0.088,0.096-0.164,0.203-0.227,0.323      c-0.064,0.12-0.113,0.24-0.145,0.36c-0.033,0.12-0.049,0.204-0.049,0.252c0,0.145,0,0.252,0,0.324s-0.008,0.136-0.023,0.191      c-0.016,0.057-0.035,0.133-0.061,0.229c-0.023,0.096-0.059,0.248-0.107,0.456v0.191c0,0.097,0.072,0.188,0.217,0.276      c0.143,0.088,0.271,0.132,0.383,0.132c0.049,0,0.125,0,0.229,0s0.207-0.008,0.312-0.023c0.104-0.016,0.195-0.048,0.275-0.097      c0.08-0.048,0.119-0.119,0.119-0.216c0-0.208-0.055-0.368-0.168-0.479c-0.111-0.112-0.168-0.225-0.168-0.336v-1.057      c0-0.096-0.027-0.231-0.084-0.408C104.131,279.196,104.062,279.108,103.982,279.108z"/>
    <path d="M114.398,277.309c0.176-0.032,0.293-0.008,0.35,0.072c0.055,0.08,0.188,0.168,0.395,0.264      c0.176,0.096,0.328,0.208,0.457,0.336c0.127,0.128,0.191,0.28,0.191,0.456c-0.016,0.08-0.031,0.168-0.047,0.264      c-0.033,0.208-0.018,0.408,0.047,0.601c0,0.144-0.027,0.315-0.084,0.516s-0.068,0.364-0.035,0.492      c0.031,0.064,0.08,0.128,0.143,0.192c0.049,0.048,0.1,0.092,0.156,0.132s0.109,0.044,0.156,0.012      c0.16-0.032,0.332-0.184,0.516-0.456c0.184-0.271,0.365-0.576,0.541-0.912s0.352-0.664,0.527-0.983      c0.176-0.32,0.336-0.536,0.48-0.648l0.744-0.192c0.096-0.031,0.203-0.039,0.324-0.023c0.119,0.016,0.211,0.023,0.275,0.023      c0.305,0.177,0.496,0.42,0.576,0.732c0.08,0.312,0.135,0.556,0.168,0.732c0.016,0.224-0.061,0.52-0.229,0.888      s-0.379,0.672-0.635,0.912c-0.113,0.063-0.217,0.116-0.312,0.155c-0.096,0.041-0.191,0.076-0.289,0.108      c-0.08,0-0.139-0.004-0.18-0.012c-0.039-0.008-0.092-0.028-0.156-0.061c-0.08-0.031-0.154-0.052-0.227-0.06      s-0.156-0.012-0.252-0.012c-0.209,0-0.404,0.08-0.588,0.239c-0.186,0.16-0.365,0.328-0.541,0.504      c-0.271,0.337-0.484,0.717-0.637,1.141c-0.15,0.424-0.227,0.82-0.227,1.188c-0.113,0.111-0.244,0.252-0.396,0.42      s-0.268,0.363-0.348,0.59c-0.096,0.223-0.141,0.453-0.133,0.695c0.008,0.238-0.035,0.473-0.131,0.695      c0.016,0.191,0.016,0.412,0,0.66c-0.018,0.248-0.045,0.508-0.084,0.781c-0.041,0.27-0.094,0.531-0.156,0.777      c-0.064,0.25-0.137,0.469-0.217,0.66c-0.111,0.082-0.248,0.152-0.408,0.217s-0.328,0.111-0.504,0.145      c-0.191,0.049-0.4,0.08-0.623,0.096c-0.08,0-0.186-0.064-0.312-0.191c-0.064-0.064-0.119-0.129-0.168-0.191l-0.336-0.672      c-0.016-0.113,0-0.305,0.049-0.578c0.047-0.271,0.104-0.547,0.168-0.828c0.062-0.277,0.123-0.531,0.18-0.754      c0.055-0.225,0.084-0.352,0.084-0.385c0.352-0.529,0.584-1.084,0.695-1.668s0.232-1.164,0.359-1.74l-0.191-1.584      c-0.08-0.208-0.18-0.312-0.301-0.312c-0.119,0-0.244,0.017-0.371,0.048c-0.256,0.049-0.439,0.117-0.553,0.204      c-0.111,0.089-0.207,0.181-0.287,0.276s-0.168,0.188-0.264,0.276s-0.264,0.147-0.504,0.18c-0.129,0-0.209-0.08-0.24-0.24      c-0.033-0.159-0.064-0.304-0.096-0.432c-0.033-0.145-0.01-0.284,0.072-0.42c0.078-0.136,0.188-0.265,0.322-0.384      c0.137-0.12,0.293-0.24,0.469-0.36s0.336-0.244,0.48-0.372c0.191-0.208,0.359-0.436,0.504-0.684s0.287-0.48,0.432-0.696      s0.309-0.4,0.492-0.552C113.875,277.433,114.111,277.341,114.398,277.309z"/>
    <path d="M122.967,277.309c0.271,0,0.496,0.1,0.672,0.3s0.264,0.412,0.264,0.636l-0.215,0.673      c0.096,0.096,0.16,0.231,0.191,0.407c0.016,0.081,0.023,0.168,0.023,0.265c0,0.32-0.035,0.616-0.107,0.888      c-0.072,0.272-0.107,0.576-0.107,0.912v0.191c0,0.081-0.008,0.173-0.025,0.276c-0.016,0.104-0.039,0.204-0.07,0.3      c-0.033,0.112-0.064,0.232-0.098,0.36v0.265c0,0.176-0.027,0.32-0.084,0.432c-0.055,0.111-0.115,0.256-0.18,0.432      c-0.031,0.129-0.084,0.262-0.156,0.396c-0.07,0.135-0.107,0.291-0.107,0.467c0,0.064,0.016,0.148,0.049,0.254      c0.031,0.104,0.08,0.207,0.143,0.311c0.064,0.104,0.141,0.193,0.229,0.264c0.088,0.072,0.188,0.109,0.301,0.109      c0.127,0,0.244-0.039,0.348-0.121c0.104-0.078,0.188-0.168,0.252-0.264c0.08-0.08,0.164-0.146,0.252-0.205      c0.088-0.055,0.188-0.082,0.301-0.082h0.455c0.096,0,0.152,0.047,0.168,0.145c0.016,0.094,0.023,0.207,0.023,0.336      c0,0.047-0.072,0.143-0.215,0.287c-0.145,0.143-0.305,0.299-0.48,0.467s-0.352,0.328-0.527,0.48      c-0.178,0.152-0.297,0.252-0.361,0.301c-0.047,0.111-0.152,0.305-0.311,0.574c-0.16,0.273-0.336,0.551-0.529,0.828      c-0.191,0.281-0.396,0.529-0.611,0.746c-0.217,0.215-0.404,0.324-0.564,0.324c-0.111,0-0.236-0.037-0.371-0.109      c-0.137-0.072-0.262-0.168-0.373-0.289c-0.111-0.119-0.203-0.242-0.275-0.371s-0.107-0.256-0.107-0.383v-0.385      c0-0.127-0.01-0.24-0.025-0.336s-0.072-0.145-0.168-0.145v-0.455l0.193-0.672v-1.129c0-0.238,0.031-0.432,0.096-0.576      c0.062-0.143,0.096-0.326,0.096-0.553v-0.215c0-0.111,0.035-0.271,0.107-0.48c0.072-0.207,0.148-0.432,0.229-0.672      c0.08-0.239,0.156-0.476,0.229-0.708c0.072-0.231,0.107-0.436,0.107-0.611c0-0.128-0.053-0.268-0.156-0.42      s-0.275-0.229-0.516-0.229c-0.096,0-0.18,0.032-0.252,0.096c-0.072,0.064-0.275,0.097-0.611,0.097      c-0.033-0.016-0.064-0.056-0.098-0.12c-0.062-0.096-0.096-0.216-0.096-0.36v-0.384c0-0.144,0.141-0.355,0.42-0.636      c0.281-0.28,0.6-0.561,0.961-0.84c0.359-0.28,0.707-0.528,1.043-0.744S122.871,277.309,122.967,277.309z M123.039,271.645      c0.064,0,0.148-0.012,0.252-0.036c0.104-0.023,0.211-0.048,0.324-0.072c0.111-0.023,0.219-0.048,0.324-0.071      c0.104-0.024,0.18-0.036,0.227-0.036c0.225,0.08,0.369,0.216,0.434,0.408c0.062,0.191,0.158,0.392,0.287,0.6      c0,0.128,0.012,0.256,0.037,0.384c0.023,0.129,0.035,0.248,0.035,0.36c0,0.096-0.033,0.212-0.096,0.348      c-0.064,0.137-0.096,0.309-0.096,0.517c-0.033,0.111-0.076,0.248-0.133,0.407c-0.057,0.16-0.129,0.309-0.215,0.444      c-0.09,0.136-0.193,0.248-0.312,0.336c-0.121,0.088-0.26,0.116-0.42,0.084c-0.225,0-0.469-0.075-0.732-0.228      s-0.461-0.349-0.588-0.588c-0.113-0.097-0.152-0.24-0.121-0.433c0.033-0.191,0.049-0.359,0.049-0.504      c0-0.432,0.072-0.783,0.217-1.056C122.654,272.236,122.83,271.948,123.039,271.645z"/>
    <path d="M130.574,277.452c0.336,0,0.619,0.061,0.852,0.181s0.42,0.284,0.564,0.492      c0.143,0.208,0.248,0.447,0.311,0.72c0.064,0.272,0.088,0.561,0.072,0.864c0,0.432-0.16,0.779-0.479,1.044      c-0.32,0.264-0.648,0.491-0.984,0.684c-0.305,0.208-0.629,0.393-0.973,0.552c-0.344,0.16-0.664,0.336-0.959,0.528      c-0.297,0.192-0.545,0.417-0.744,0.671c-0.201,0.258-0.309,0.586-0.324,0.984v1.008c-0.033,0.273,0.023,0.541,0.168,0.805      c0.143,0.266,0.328,0.396,0.551,0.396c0.016,0.016,0.08-0.008,0.193-0.072c0.111-0.062,0.234-0.141,0.371-0.229      s0.271-0.18,0.408-0.275s0.236-0.168,0.301-0.215c0.24-0.113,0.428-0.205,0.562-0.277c0.137-0.072,0.236-0.092,0.301-0.059      c0.111,0,0.207,0.016,0.287,0.047s0.121,0.152,0.121,0.359c-0.033,0.352-0.184,0.691-0.457,1.02      c-0.271,0.328-0.566,0.633-0.887,0.914c-0.32,0.279-0.633,0.523-0.936,0.73c-0.305,0.207-0.506,0.359-0.602,0.457      c-0.271,0.238-0.523,0.367-0.756,0.383s-0.467,0.023-0.707,0.023c-0.145-0.016-0.293-0.078-0.445-0.191      c-0.152-0.111-0.287-0.242-0.406-0.395c-0.121-0.152-0.213-0.309-0.277-0.469s-0.088-0.297-0.072-0.408v-0.408      c0-0.111-0.031-0.23-0.096-0.359c-0.031-0.064-0.064-0.121-0.096-0.168l0.072-0.48v-0.383c0-0.066,0.016-0.238,0.049-0.518      c0.031-0.279,0.07-0.584,0.119-0.912s0.092-0.641,0.133-0.936c0.039-0.295,0.066-0.492,0.084-0.588      c0.062-0.047,0.096-0.096,0.096-0.145c0-0.047-0.01-0.096-0.025-0.145c-0.016-0.047-0.023-0.107-0.023-0.179      c0-0.072,0.031-0.156,0.096-0.252c0-0.192,0.041-0.393,0.121-0.601c0.047-0.111,0.096-0.224,0.143-0.336l0.336-0.792      c0.033-0.352,0.201-0.716,0.506-1.092c0.303-0.376,0.658-0.716,1.066-1.021c0.408-0.304,0.828-0.548,1.26-0.731      C129.902,277.497,130.27,277.421,130.574,277.452z M129.494,279.253c-0.08,0-0.16,0.06-0.24,0.18s-0.16,0.252-0.24,0.396      c-0.08,0.177-0.16,0.36-0.24,0.553c-0.016,0.08-0.039,0.172-0.072,0.275c-0.031,0.104-0.057,0.2-0.072,0.288      s-0.008,0.16,0.025,0.216c0.031,0.057,0.096,0.084,0.191,0.084c0.08,0.017,0.199,0,0.359-0.048s0.324-0.12,0.492-0.216      s0.32-0.212,0.457-0.348c0.135-0.136,0.211-0.284,0.227-0.444v-0.408c0-0.08-0.023-0.151-0.07-0.216      c-0.049-0.063-0.105-0.111-0.168-0.144c-0.064-0.049-0.145-0.088-0.24-0.12L129.494,279.253z"/>
    <path d="M139.166,277.572c0.191,0.225,0.287,0.448,0.287,0.672c0,0.177-0.127,0.324-0.383,0.444      s-0.545,0.232-0.865,0.336c-0.318,0.104-0.635,0.204-0.947,0.3c-0.312,0.097-0.516,0.2-0.611,0.312      c-0.145,0.144-0.248,0.308-0.312,0.492c-0.064,0.184-0.096,0.372-0.096,0.563c0,0.192,0.031,0.376,0.096,0.552      c0.064,0.177,0.145,0.336,0.24,0.48c0.111,0.225,0.244,0.46,0.396,0.708c0.15,0.247,0.291,0.532,0.42,0.853      c0.127,0.32,0.234,0.68,0.324,1.078c0.088,0.402,0.131,0.85,0.131,1.346c0,0.432-0.145,0.869-0.432,1.307      c-0.287,0.441-0.656,0.828-1.104,1.164c-0.354,0.191-0.625,0.348-0.816,0.469s-0.359,0.215-0.504,0.289      c-0.145,0.07-0.285,0.119-0.42,0.143c-0.137,0.025-0.309,0.037-0.516,0.037h-0.865c-0.08,0-0.184,0.008-0.311,0.023      c-0.129,0.016-0.258,0.039-0.385,0.072c-0.16,0.031-0.328,0.064-0.504,0.096h-0.145h-0.527c-0.447,0-0.672-0.215-0.672-0.648      c0-0.111,0.072-0.289,0.215-0.527c0.145-0.24,0.324-0.473,0.541-0.695c0.215-0.225,0.443-0.426,0.684-0.602      s0.447-0.264,0.625-0.264c0.047,0,0.127,0.037,0.238,0.107c0.113,0.074,0.244,0.148,0.396,0.229s0.324,0.156,0.516,0.229      c0.193,0.072,0.408,0.107,0.648,0.107c0.16,0,0.309-0.049,0.443-0.143c0.137-0.098,0.252-0.213,0.35-0.348      c0.096-0.137,0.168-0.281,0.215-0.434c0.049-0.152,0.072-0.283,0.072-0.395c0-0.273-0.104-0.605-0.312-0.996      c-0.207-0.393-0.439-0.793-0.695-1.201s-0.488-0.795-0.695-1.164c-0.209-0.368-0.312-0.672-0.312-0.912v-0.264      c0.064-0.272,0.16-0.552,0.287-0.84c0.129-0.288,0.273-0.553,0.434-0.792c0.158-0.24,0.336-0.452,0.527-0.637      c0.191-0.184,0.4-0.3,0.623-0.348c0.113-0.063,0.229-0.168,0.35-0.312c0.119-0.145,0.227-0.28,0.322-0.408      c0.129-0.128,0.244-0.252,0.35-0.372c0.104-0.12,0.211-0.196,0.322-0.229c0.129-0.111,0.328-0.176,0.602-0.191      c0.271-0.016,0.471-0.024,0.6-0.024h0.527C138.758,277.236,138.975,277.349,139.166,277.572z"/>
    <circle cx="117.89" cy="259.623" r="2.316"/>
    <circle cx="117.89" cy="233.412" r="2.316"/>
    <circle cx="136.381" cy="233.412" r="2.315"/>
    <circle cx="149.907" cy="230.684" r="2.316"/>
    <circle cx="85.877" cy="230.684" r="2.317"/>
    <circle cx="99.404" cy="233.412" r="2.317"/>
    <circle cx="108.646" cy="246.518" r="2.315"/>
    <polyline points="108.647,246.518       117.89,259.623 127.134,246.518     "/>
    <polyline points="117.894,233.412       99.405,233.412 108.647,246.518     "/>
    <polyline points="117.894,233.412       136.38,233.412 127.138,246.518     "/>
    <polygon points="108.647,246.518 117.89,233.412       127.134,246.518     "/>
  </g>
</svg>
