<svg xmlns="http://www.w3.org/2000/svg" viewBox="89.1 433.6 62.4 100.4">
  <g fill="none" stroke="currentColor" stroke-width="1.5" stroke-linecap="round" stroke-linejoin="round">
    <path d="M103.081,515.229c0.225,0,0.436,0.064,0.637,0.193c0.199,0.127,0.299,0.311,0.299,0.551v0.457      c-0.176,0.127-0.344,0.238-0.504,0.336c-0.127,0.078-0.256,0.156-0.383,0.227c-0.129,0.072-0.217,0.109-0.264,0.109h-0.721      c-0.336,0-0.6,0.096-0.793,0.287c-0.191,0.193-0.287,0.455-0.287,0.791v0.721c0,0.432-0.053,0.904-0.156,1.416      s-0.203,1-0.301,1.465v1.32v1.344v0.672v0.264c0,0.049,0.014,0.131,0.037,0.252s0.064,0.24,0.119,0.359      c0.057,0.121,0.125,0.225,0.205,0.312s0.184,0.133,0.312,0.133h0.672h0.719h0.672c0.049,0,0.18-0.049,0.396-0.145      s0.451-0.207,0.709-0.336c0.254-0.129,0.508-0.266,0.756-0.408s0.428-0.264,0.539-0.361c0.129-0.109,0.256-0.219,0.385-0.322      c0.127-0.104,0.248-0.156,0.359-0.156c0.096-0.225,0.164-0.357,0.203-0.396c0.041-0.039,0.125-0.059,0.252-0.059      c0.098,0,0.232,0.051,0.408,0.156c0.176,0.102,0.266,0.203,0.266,0.299c0,0.049-0.068,0.236-0.205,0.564      s-0.299,0.695-0.492,1.104c-0.191,0.408-0.4,0.799-0.623,1.176c-0.225,0.377-0.432,0.627-0.625,0.756      c-0.047,0.064-0.188,0.109-0.42,0.133s-0.477,0.043-0.732,0.059c-0.287,0.016-0.615,0.023-0.982,0.023h-0.672h-0.457      c-0.336,0-0.672-0.031-1.008-0.094c-0.336-0.064-0.561-0.057-0.672,0.023l-0.312,0.07l-1.152,0.266      c-0.047,0-0.148-0.012-0.299-0.035c-0.152-0.025-0.316-0.059-0.492-0.098s-0.34-0.07-0.492-0.096      c-0.152-0.023-0.252-0.037-0.301-0.037c-0.127,0-0.248,0.018-0.359,0.051c-0.111,0.031-0.209,0.062-0.287,0.094      c-0.098,0.049-0.193,0.09-0.289,0.121c-0.176,0-0.309-0.039-0.396-0.121c-0.088-0.078-0.152-0.176-0.191-0.287      c-0.041-0.111-0.064-0.225-0.072-0.336s-0.012-0.201-0.012-0.264c0-0.336,0.107-0.543,0.324-0.625      c0.217-0.078,0.451-0.148,0.707-0.203s0.492-0.152,0.709-0.289c0.217-0.135,0.324-0.426,0.324-0.875v-2.016l0.191-1.801v-0.863      c0-0.064,0.008-0.188,0.023-0.371c0.016-0.186,0.041-0.381,0.072-0.59c0.033-0.238,0.072-0.496,0.121-0.768      c0-0.127-0.037-0.248-0.109-0.361c-0.07-0.109-0.107-0.215-0.107-0.311v-0.264c0-0.449-0.068-0.758-0.203-0.926      c-0.137-0.168-0.289-0.295-0.457-0.383s-0.32-0.188-0.455-0.301c-0.137-0.109-0.205-0.336-0.205-0.672      c0-0.16,0.037-0.299,0.109-0.418c0.07-0.121,0.154-0.221,0.252-0.301c0.096-0.08,0.191-0.137,0.287-0.168      s0.168-0.049,0.217-0.049H103.081z"/>
    <path d="M111.528,516.836c0.271,0,0.496,0.102,0.672,0.301s0.264,0.412,0.264,0.637l-0.215,0.672      c0.096,0.096,0.16,0.23,0.191,0.406c0.016,0.082,0.023,0.168,0.023,0.266c0,0.32-0.035,0.617-0.107,0.887      c-0.072,0.273-0.107,0.578-0.107,0.914v0.191c0,0.08-0.008,0.172-0.025,0.275c-0.016,0.104-0.039,0.205-0.07,0.299      c-0.033,0.113-0.064,0.234-0.098,0.361v0.264c0,0.176-0.027,0.32-0.084,0.434c-0.055,0.109-0.115,0.254-0.18,0.43      c-0.031,0.129-0.084,0.262-0.156,0.398c-0.07,0.135-0.107,0.291-0.107,0.467c0,0.064,0.016,0.146,0.049,0.252      c0.031,0.105,0.08,0.207,0.143,0.312c0.064,0.104,0.141,0.191,0.229,0.264s0.188,0.107,0.301,0.107      c0.127,0,0.244-0.039,0.348-0.121c0.104-0.078,0.188-0.168,0.252-0.262c0.08-0.082,0.164-0.148,0.252-0.205      s0.188-0.084,0.301-0.084h0.455c0.096,0,0.152,0.047,0.168,0.145c0.016,0.096,0.023,0.207,0.023,0.336      c0,0.047-0.072,0.145-0.215,0.289c-0.145,0.143-0.305,0.299-0.48,0.467s-0.352,0.328-0.527,0.479      c-0.178,0.152-0.297,0.254-0.361,0.301c-0.047,0.113-0.152,0.305-0.311,0.576c-0.16,0.271-0.336,0.549-0.529,0.828      c-0.191,0.279-0.396,0.529-0.611,0.744c-0.217,0.215-0.404,0.324-0.564,0.324c-0.111,0-0.236-0.035-0.371-0.109      c-0.137-0.07-0.262-0.168-0.373-0.287s-0.203-0.244-0.275-0.373c-0.072-0.127-0.107-0.254-0.107-0.383v-0.383      c0-0.129-0.01-0.242-0.025-0.336c-0.016-0.098-0.072-0.145-0.168-0.145v-0.457l0.193-0.672v-1.129      c0-0.238,0.031-0.43,0.096-0.574c0.062-0.145,0.096-0.328,0.096-0.553v-0.217c0-0.109,0.035-0.27,0.107-0.48      c0.072-0.207,0.148-0.43,0.229-0.672c0.08-0.238,0.156-0.475,0.229-0.707c0.072-0.23,0.107-0.436,0.107-0.611      c0-0.127-0.053-0.268-0.156-0.42s-0.275-0.229-0.516-0.229c-0.096,0-0.18,0.033-0.252,0.096      c-0.072,0.064-0.275,0.098-0.611,0.098c-0.033-0.016-0.064-0.057-0.098-0.121c-0.062-0.096-0.096-0.215-0.096-0.359v-0.385      c0-0.143,0.141-0.355,0.42-0.635c0.281-0.281,0.6-0.562,0.961-0.84c0.359-0.281,0.707-0.529,1.043-0.746      C111.216,516.945,111.433,516.836,111.528,516.836z M111.601,511.172c0.064,0,0.148-0.012,0.252-0.035s0.211-0.047,0.324-0.072      c0.111-0.023,0.219-0.049,0.324-0.072c0.104-0.023,0.18-0.035,0.227-0.035c0.225,0.08,0.369,0.215,0.434,0.408      c0.062,0.191,0.158,0.393,0.287,0.6c0,0.129,0.012,0.256,0.037,0.383c0.023,0.129,0.035,0.25,0.035,0.361      c0,0.096-0.033,0.213-0.096,0.348c-0.064,0.137-0.096,0.309-0.096,0.518c-0.033,0.109-0.076,0.246-0.133,0.406      s-0.129,0.309-0.215,0.445c-0.09,0.135-0.193,0.246-0.312,0.336c-0.121,0.086-0.26,0.115-0.42,0.082      c-0.225,0-0.469-0.074-0.732-0.227s-0.461-0.348-0.588-0.588c-0.113-0.096-0.152-0.24-0.121-0.432      c0.033-0.191,0.049-0.359,0.049-0.504c0-0.434,0.072-0.785,0.217-1.057C111.216,511.766,111.392,511.477,111.601,511.172z"/>
    <path d="M119.546,507.164h0.646c0.129,0,0.252,0.033,0.373,0.098c0.119,0.062,0.244,0.094,0.371,0.094      l0.672-0.191h0.385c0.111,0,0.236,0.037,0.371,0.109c0.137,0.07,0.266,0.164,0.385,0.275s0.217,0.229,0.287,0.348      c0.072,0.119,0.109,0.229,0.109,0.324c0,0.24-0.033,0.496-0.096,0.768c-0.064,0.273-0.178,0.541-0.336,0.805      c-0.16,0.264-0.369,0.5-0.625,0.707c-0.256,0.209-0.576,0.361-0.959,0.457h-0.193h-0.264c-0.176,0-0.371,0.047-0.588,0.145      c-0.217,0.096-0.42,0.219-0.611,0.371c-0.193,0.152-0.354,0.32-0.48,0.504c-0.129,0.184-0.191,0.355-0.191,0.516      c-0.129,0.113-0.213,0.293-0.252,0.541c-0.041,0.248-0.117,0.467-0.229,0.658c-0.129,0.145-0.205,0.342-0.229,0.59      s-0.035,0.436-0.035,0.562l-0.264,0.865c0,0.225-0.049,0.447-0.145,0.672s-0.205,0.463-0.324,0.721      c-0.119,0.256-0.229,0.531-0.324,0.828s-0.145,0.619-0.145,0.971v0.48c0,0.08,0.033,0.135,0.096,0.168      c0.033,0.018,0.072,0.025,0.121,0.025c0.111,0,0.225-0.098,0.336-0.289s0.256-0.408,0.432-0.648s0.393-0.457,0.648-0.648      s0.584-0.287,0.984-0.287l0.527-0.193c0.367,0,0.648,0.109,0.84,0.324c0.191,0.217,0.289,0.508,0.289,0.877v0.191l-0.193,0.48      c0.033,0.127,0.064,0.256,0.096,0.385c0.033,0.111,0.057,0.227,0.072,0.348c0.016,0.119,0.025,0.227,0.025,0.324      c0,0.176-0.025,0.287-0.072,0.336c-0.033,0.08-0.061,0.148-0.084,0.203c-0.025,0.057-0.037,0.102-0.037,0.133      c0,0.062,0.008,0.117,0.025,0.156c0.016,0.039,0.031,0.092,0.047,0.156c0.016,0.062,0.02,0.143,0.012,0.238      c-0.008,0.098-0.035,0.225-0.084,0.385v0.721c0,0.047-0.043,0.148-0.131,0.299c-0.088,0.152-0.189,0.324-0.301,0.518      c-0.111,0.191-0.232,0.398-0.359,0.623c-0.129,0.225-0.225,0.439-0.289,0.646l-0.264,1.059      c-0.287,0.414-0.561,0.791-0.816,1.127c-0.223,0.287-0.436,0.568-0.635,0.84c-0.201,0.271-0.34,0.439-0.42,0.504      c-0.178,0.111-0.312,0.217-0.408,0.311c-0.096,0.098-0.191,0.178-0.289,0.242c-0.096,0.062-0.215,0.111-0.359,0.145      c-0.145,0.031-0.369,0.047-0.672,0.047l-0.672,0.191c-0.129,0-0.217-0.035-0.264-0.107c-0.049-0.072-0.08-0.168-0.096-0.287      c-0.018-0.121-0.033-0.254-0.049-0.398c-0.016-0.143-0.057-0.277-0.119-0.406c0-0.08-0.025-0.164-0.072-0.252      c-0.049-0.088-0.088-0.182-0.121-0.275c-0.111-0.129-0.219-0.254-0.324-0.373c-0.104-0.119-0.154-0.268-0.154-0.443      c0-0.129,0.039-0.297,0.119-0.504c0.049-0.113,0.096-0.232,0.145-0.359v-0.723l0.215-2.207v-0.48l0.457-2.254v-0.672v-0.193      c0-0.127,0.043-0.4,0.131-0.816s0.133-0.904,0.133-1.463v-0.672l0.672-2.738V513.5c0-0.111,0.02-0.291,0.061-0.539      c0.039-0.248,0.084-0.5,0.131-0.756c0.064-0.287,0.137-0.607,0.217-0.959l0.191-0.672c0.031-0.242,0.1-0.453,0.205-0.637      c0.104-0.184,0.26-0.445,0.467-0.781L119.546,507.164z M118.2,520.053c-0.223,0-0.451,0.168-0.684,0.504      s-0.443,0.721-0.635,1.152c-0.193,0.432-0.354,0.852-0.48,1.26c-0.129,0.408-0.191,0.676-0.191,0.805v0.936      c0,0.16,0.016,0.303,0.047,0.432c0.031,0.113,0.064,0.213,0.096,0.301c0.033,0.088,0.088,0.133,0.168,0.133h0.289      c0.223-0.082,0.467-0.227,0.732-0.434c0.264-0.207,0.508-0.439,0.73-0.695c0.225-0.256,0.412-0.52,0.564-0.793      c0.152-0.271,0.229-0.52,0.229-0.742v-0.602v-0.527l-0.121-0.48l0.121-0.383C119.065,520.34,118.776,520.053,118.2,520.053z"/>
    <path d="M125.327,516.836c0.176-0.031,0.293-0.008,0.35,0.074c0.055,0.078,0.188,0.168,0.395,0.262      c0.176,0.098,0.328,0.209,0.457,0.336c0.127,0.129,0.191,0.281,0.191,0.457c-0.016,0.08-0.031,0.168-0.047,0.264      c-0.033,0.209-0.018,0.408,0.047,0.6c0,0.145-0.027,0.316-0.084,0.516c-0.057,0.201-0.068,0.365-0.035,0.492      c0.031,0.066,0.08,0.129,0.143,0.193c0.049,0.049,0.1,0.092,0.156,0.131c0.057,0.041,0.109,0.045,0.156,0.012      c0.16-0.031,0.332-0.184,0.516-0.455s0.365-0.576,0.541-0.912s0.352-0.664,0.527-0.984s0.336-0.535,0.48-0.648l0.744-0.191      c0.096-0.031,0.203-0.039,0.324-0.023c0.119,0.016,0.211,0.023,0.275,0.023c0.305,0.176,0.496,0.42,0.576,0.732      c0.08,0.311,0.135,0.557,0.168,0.732c0.016,0.223-0.061,0.52-0.229,0.887c-0.168,0.369-0.379,0.672-0.635,0.914      c-0.113,0.062-0.217,0.115-0.312,0.154c-0.096,0.041-0.191,0.076-0.289,0.107c-0.08,0-0.139-0.004-0.18-0.012      c-0.039-0.008-0.092-0.027-0.156-0.059c-0.08-0.031-0.154-0.053-0.227-0.061s-0.156-0.012-0.252-0.012      c-0.209,0-0.404,0.08-0.588,0.24c-0.186,0.16-0.365,0.328-0.541,0.504c-0.271,0.336-0.484,0.715-0.637,1.141      c-0.15,0.422-0.227,0.82-0.227,1.188c-0.113,0.111-0.244,0.25-0.396,0.418s-0.268,0.365-0.348,0.59      c-0.096,0.223-0.141,0.455-0.133,0.695s-0.035,0.473-0.131,0.695c0.016,0.193,0.016,0.414,0,0.66      c-0.018,0.25-0.045,0.508-0.084,0.781c-0.041,0.271-0.094,0.531-0.156,0.779c-0.064,0.248-0.137,0.467-0.217,0.66      c-0.111,0.08-0.248,0.152-0.408,0.217c-0.16,0.062-0.328,0.111-0.504,0.145c-0.191,0.047-0.4,0.078-0.623,0.094      c-0.08,0-0.186-0.062-0.312-0.191c-0.064-0.062-0.119-0.129-0.168-0.191l-0.336-0.672c-0.016-0.113,0-0.305,0.049-0.576      c0.047-0.271,0.104-0.549,0.168-0.828c0.062-0.279,0.123-0.533,0.18-0.756c0.055-0.223,0.084-0.352,0.084-0.383      c0.352-0.529,0.584-1.086,0.695-1.668c0.111-0.586,0.232-1.164,0.359-1.742l-0.191-1.582c-0.08-0.209-0.18-0.312-0.301-0.312      c-0.119,0-0.244,0.016-0.371,0.047c-0.256,0.049-0.439,0.117-0.553,0.203c-0.111,0.09-0.207,0.182-0.287,0.277      s-0.168,0.188-0.264,0.277c-0.096,0.086-0.264,0.146-0.504,0.18c-0.129,0-0.209-0.082-0.24-0.242      c-0.033-0.158-0.064-0.303-0.096-0.43c-0.033-0.145-0.01-0.285,0.072-0.422c0.078-0.135,0.188-0.264,0.322-0.383      c0.137-0.121,0.293-0.24,0.469-0.359c0.176-0.121,0.336-0.246,0.48-0.373c0.191-0.209,0.359-0.436,0.504-0.684      s0.287-0.48,0.432-0.697c0.145-0.215,0.309-0.398,0.492-0.551S125.04,516.869,125.327,516.836z"/>
    <path d="M137.474,516.766c0.336,0,0.576,0.096,0.719,0.287c0.145,0.193,0.217,0.455,0.217,0.791      c0,0.066-0.023,0.205-0.072,0.422c-0.047,0.215-0.107,0.455-0.18,0.719c-0.072,0.266-0.148,0.531-0.229,0.805      s-0.143,0.488-0.191,0.648c0,0.129-0.008,0.26-0.023,0.395c-0.018,0.137-0.072,0.316-0.168,0.541      c-0.129,0.096-0.193,0.252-0.193,0.467c0,0.217,0,0.373,0,0.469l-0.072,1.273v0.934c0,0.049,0.004,0.133,0.014,0.254      c0.008,0.119,0.023,0.238,0.047,0.359s0.068,0.225,0.133,0.312c0.062,0.088,0.152,0.133,0.264,0.133l0.336-0.529      c0.096-0.08,0.207-0.18,0.336-0.299c0.127-0.121,0.256-0.238,0.385-0.35c0.143-0.127,0.287-0.264,0.432-0.408      c0.096,0,0.176,0.041,0.24,0.121c0.062,0.08,0.096,0.168,0.096,0.264l-0.096,0.191c-0.064,0.129-0.129,0.225-0.193,0.287      c-0.111,0.32-0.256,0.598-0.432,0.828c-0.176,0.234-0.367,0.457-0.576,0.672c-0.207,0.219-0.42,0.438-0.635,0.66      c-0.217,0.227-0.42,0.48-0.613,0.77l-0.527,0.742c0,0.145-0.045,0.293-0.133,0.445s-0.191,0.273-0.311,0.359      c-0.121,0.09-0.248,0.129-0.385,0.121s-0.244-0.102-0.324-0.277c-0.096-0.287-0.145-0.57-0.145-0.852      c0-0.279,0.025-0.551,0.072-0.816c0.049-0.262,0.096-0.516,0.145-0.754c0.049-0.242,0.072-0.473,0.072-0.697v-0.865v-0.479      c0-0.08-0.057-0.135-0.168-0.168c-0.064-0.016-0.121-0.025-0.168-0.025c-0.049,0-0.168,0.141-0.359,0.422      c-0.193,0.279-0.412,0.6-0.66,0.959c-0.25,0.361-0.502,0.725-0.756,1.092c-0.258,0.369-0.465,0.633-0.625,0.793      c-0.049,0.062-0.125,0.156-0.229,0.275s-0.215,0.236-0.336,0.35c-0.119,0.109-0.252,0.211-0.395,0.299      c-0.145,0.088-0.273,0.131-0.385,0.131c-0.225,0-0.408-0.078-0.553-0.238c-0.143-0.16-0.256-0.348-0.336-0.564      s-0.141-0.432-0.18-0.648s-0.061-0.373-0.061-0.467l-0.07-1.73l0.336-2.807c0-0.049,0.023-0.16,0.07-0.336      c0.049-0.176,0.113-0.369,0.193-0.576s0.172-0.412,0.275-0.613c0.104-0.199,0.211-0.363,0.324-0.49      c0.463-0.432,0.912-0.959,1.344-1.584c0.207-0.289,0.408-0.496,0.6-0.625c0.193-0.127,0.385-0.227,0.576-0.301      c0.191-0.07,0.385-0.127,0.576-0.168c0.191-0.039,0.408-0.121,0.648-0.25c0.096,0,0.219-0.053,0.371-0.156      c0.152-0.105,0.293-0.203,0.42-0.301h0.672h0.408L137.474,516.766z M134.401,519.43c-0.289,0.238-0.561,0.516-0.816,0.828      s-0.48,0.627-0.672,0.947s-0.344,0.619-0.455,0.9c-0.113,0.279-0.168,0.5-0.168,0.66c0,0.078-0.01,0.227-0.025,0.443      s-0.008,0.439,0.025,0.672c0.031,0.232,0.092,0.439,0.18,0.623c0.088,0.186,0.244,0.277,0.467,0.277      c0.209,0,0.453-0.184,0.732-0.553c0.279-0.367,0.545-0.783,0.793-1.248s0.455-0.895,0.623-1.297      c0.168-0.398,0.252-0.639,0.252-0.719c0-0.062,0.008-0.219,0.023-0.469c0.016-0.246,0.004-0.488-0.035-0.719      c-0.041-0.232-0.129-0.4-0.264-0.504C134.925,519.168,134.704,519.221,134.401,519.43z"/>
    <path d="M106.458,485.977      c-6.566-3.799-10.984-10.898-10.984-19.031c0-12.133,9.836-21.971,21.971-21.971s21.971,9.838,21.971,21.971      c0,8.133-4.418,15.232-10.986,19.031"/>
    <path d="M108.274,447.646      c0,1.324-1.074,2.398-2.4,2.398c-1.325,0-2.4-1.074-2.4-2.398c0-1.328,1.075-2.402,2.4-2.402      C107.2,445.244,108.274,446.318,108.274,447.646z"/>
    <path d="M130.941,447.646      c0,1.324-1.074,2.398-2.4,2.398s-2.4-1.074-2.4-2.398c0-1.328,1.074-2.402,2.4-2.402S130.941,446.318,130.941,447.646z"/>
    <circle cx="88.042" cy="486.014" r="2.4"/>
    <circle cx="147.907" cy="486.014" r="2.399"/>
    <circle cx="87.728" cy="497.014" r="2.4"/>
    <circle cx="147.907" cy="497.014" r="2.399"/>
    <circle cx="118.375" cy="497.014" r="2.399"/>
    <circle cx="95.374" cy="466.812" r="2.4"/>
    <circle cx="139.373" cy="466.812" r="2.4"/>
    <circle cx="127.332" cy="486.014" r="2.4"/>
    <circle cx="107.707" cy="486.014" r="2.4"/>
    <line x1="147.907" y1="486.014" x2="128.427" y2="486.014"/>
    <line x1="107.208" y1="486.014" x2="87.728" y2="486.014"/>
    <line x1="95.474" y1="466.945" x2="139.472" y2="466.945"/>
    <line x1="106.458" y1="485.971" x2="128.458" y2="447.865"/>
    <line x1="128.427" y1="485.971" x2="106.427" y2="447.865"/>
    <polyline points="147.907,497.014       128.427,497.014 107.208,497.014 87.728,497.014     "/>
  </g>
</svg>
