<svg xmlns="http://www.w3.org/2000/svg" viewBox="210.9 203.5 75.5 90.9">
  <g fill="none" stroke="currentColor" stroke-width="1.5" stroke-linecap="round" stroke-linejoin="round">
    <path d="M224.909,275.338c0.047,0,0.1,0.06,0.156,0.18c0.055,0.12,0.107,0.26,0.154,0.42      c0.049,0.16,0.088,0.32,0.121,0.48c0.031,0.16,0.047,0.271,0.047,0.336v1.728c0,0.064-0.004,0.185-0.012,0.36      s-0.031,0.356-0.072,0.54c-0.039,0.184-0.107,0.348-0.203,0.491c-0.096,0.145-0.225,0.217-0.385,0.217      c-0.271,0-0.467-0.061-0.588-0.181c-0.119-0.12-0.207-0.271-0.264-0.456c-0.057-0.184-0.1-0.384-0.131-0.6      c-0.033-0.216-0.09-0.416-0.168-0.6c-0.08-0.185-0.205-0.336-0.373-0.456s-0.42-0.181-0.756-0.181h-1.32      c-0.08,0-0.168,0.009-0.264,0.024s-0.184,0.04-0.264,0.072c-0.096,0.032-0.191,0.063-0.289,0.096      c-0.336,0-0.596,0.108-0.779,0.324s-0.275,0.483-0.275,0.804v1.152c0,0.128-0.004,0.244-0.012,0.348      c-0.01,0.104,0.035,0.204,0.131,0.3l-0.119,0.937v3.889c0,0.32,0.023,0.58,0.072,0.779c0.047,0.201,0.111,0.365,0.191,0.492      c0.08,0.129,0.168,0.236,0.264,0.324s0.184,0.172,0.264,0.252c0.24,0.08,0.457,0.156,0.648,0.229s0.424,0.107,0.695,0.107      c0.48,0.08,0.84,0.229,1.08,0.443c0.24,0.217,0.369,0.441,0.385,0.672c0.016,0.232-0.072,0.449-0.264,0.648      c-0.193,0.199-0.48,0.324-0.865,0.373c-0.143,0-0.283-0.025-0.42-0.072c-0.135-0.047-0.268-0.088-0.395-0.121      c-0.145-0.016-0.305-0.023-0.48-0.023s-0.357-0.004-0.541-0.012s-0.359-0.027-0.527-0.059c-0.168-0.033-0.316-0.09-0.443-0.168      h-0.145h-2.137c-0.096,0-0.291,0.043-0.588,0.131c-0.295,0.088-0.627,0.131-0.996,0.131c-0.256,0-0.488-0.008-0.695-0.023      c-0.176-0.016-0.355-0.027-0.539-0.035c-0.186-0.008-0.309-0.012-0.373-0.012c-0.08,0-0.145,0.031-0.191,0.096      c-0.049,0.064-0.209,0.096-0.48,0.096c-0.033-0.016-0.064-0.047-0.096-0.096c-0.033-0.033-0.057-0.068-0.072-0.107      c-0.016-0.041-0.023-0.102-0.023-0.18c0.062-0.178,0.143-0.354,0.24-0.529c0.078-0.145,0.172-0.297,0.275-0.457      c0.104-0.158,0.219-0.303,0.348-0.432c0.225-0.08,0.432-0.152,0.625-0.215c0.158-0.064,0.314-0.121,0.467-0.168      c0.152-0.049,0.252-0.072,0.301-0.072l1.152-0.266c0.111,0,0.199-0.074,0.264-0.227c0.062-0.152,0.111-0.316,0.143-0.492      c0.033-0.209,0.049-0.457,0.049-0.744v-2.545c0-0.063,0.031-0.176,0.096-0.336l0.096-0.191v-3.072      c0-0.128,0.014-0.256,0.037-0.384s0.035-0.248,0.035-0.36c0-0.048-0.023-0.12-0.072-0.216c-0.047-0.096-0.111-0.192-0.191-0.288      s-0.172-0.18-0.275-0.252c-0.105-0.072-0.213-0.108-0.324-0.108h-2.664c-0.336,0-0.596,0.061-0.779,0.181      c-0.186,0.119-0.324,0.271-0.422,0.456c-0.096,0.184-0.168,0.384-0.215,0.6c-0.049,0.216-0.107,0.416-0.18,0.6      c-0.072,0.185-0.172,0.336-0.301,0.456s-0.32,0.181-0.576,0.181c-0.24,0-0.412-0.092-0.516-0.276      c-0.104-0.184-0.156-0.38-0.156-0.588c0-0.063,0.008-0.164,0.023-0.3c0.018-0.136,0.037-0.276,0.061-0.42      c0.023-0.145,0.049-0.28,0.072-0.408s0.035-0.216,0.035-0.265l0.289-1.151c0-0.048,0.012-0.156,0.035-0.324      c0.025-0.168,0.064-0.348,0.121-0.54c0.055-0.192,0.123-0.36,0.203-0.504s0.176-0.216,0.289-0.216      c0.207,0,0.371,0.04,0.492,0.12c0.119,0.08,0.252,0.168,0.395,0.264c0.098,0.08,0.197,0.144,0.301,0.192      c0.104,0.048,0.244,0.071,0.42,0.071c0.096,0,0.24-0.02,0.432-0.06s0.336-0.061,0.432-0.061h0.48      c0.049,0.032,0.104,0.053,0.168,0.061s0.137,0.021,0.217,0.036s0.168,0.023,0.264,0.023h3.623l0.648-0.12l0.672,0.12      c0.336,0,0.684-0.02,1.045-0.06c0.359-0.04,0.699-0.061,1.02-0.061h1.152c0.287,0,0.543-0.039,0.768-0.119      s0.42-0.164,0.588-0.252s0.305-0.172,0.408-0.253C224.784,275.378,224.86,275.338,224.909,275.338z"/>
    <path d="M233.116,277.737c0.336,0,0.576,0.097,0.719,0.288c0.145,0.192,0.217,0.456,0.217,0.792      c0,0.064-0.023,0.204-0.072,0.42c-0.047,0.216-0.107,0.456-0.18,0.72c-0.072,0.265-0.148,0.532-0.229,0.805      s-0.143,0.488-0.191,0.647c0,0.129-0.008,0.261-0.023,0.396c-0.018,0.136-0.072,0.316-0.168,0.54      c-0.129,0.096-0.193,0.252-0.193,0.468s0,0.372,0,0.468l-0.072,1.273v0.936c0,0.047,0.004,0.131,0.014,0.252      c0.008,0.119,0.023,0.24,0.047,0.359c0.023,0.121,0.068,0.225,0.133,0.312c0.062,0.088,0.152,0.133,0.264,0.133l0.336-0.529      c0.096-0.08,0.207-0.18,0.336-0.299c0.127-0.121,0.256-0.236,0.385-0.35c0.143-0.127,0.287-0.264,0.432-0.406      c0.096,0,0.176,0.039,0.24,0.119c0.062,0.08,0.096,0.168,0.096,0.264l-0.096,0.191c-0.064,0.129-0.129,0.225-0.193,0.289      c-0.111,0.32-0.256,0.596-0.432,0.828s-0.367,0.455-0.576,0.672c-0.207,0.217-0.42,0.436-0.635,0.66      c-0.217,0.225-0.42,0.48-0.613,0.768l-0.527,0.744c0,0.145-0.045,0.293-0.133,0.445s-0.191,0.271-0.311,0.359      c-0.121,0.088-0.248,0.129-0.385,0.121c-0.137-0.01-0.244-0.102-0.324-0.277c-0.096-0.289-0.145-0.572-0.145-0.852      c0-0.281,0.025-0.553,0.072-0.816c0.049-0.264,0.096-0.516,0.145-0.756s0.072-0.473,0.072-0.697v-0.863v-0.48      c0-0.08-0.057-0.135-0.168-0.168c-0.064-0.016-0.121-0.023-0.168-0.023c-0.049,0-0.168,0.141-0.359,0.42      c-0.193,0.279-0.412,0.6-0.66,0.959c-0.25,0.361-0.502,0.725-0.756,1.094c-0.258,0.367-0.465,0.631-0.625,0.791      c-0.049,0.064-0.125,0.156-0.229,0.275c-0.104,0.121-0.215,0.236-0.336,0.35c-0.119,0.111-0.252,0.213-0.395,0.299      c-0.145,0.09-0.273,0.133-0.385,0.133c-0.225,0-0.408-0.08-0.553-0.24c-0.143-0.16-0.256-0.348-0.336-0.564      s-0.141-0.432-0.18-0.648c-0.039-0.215-0.061-0.371-0.061-0.467l-0.07-1.729l0.336-2.809c0-0.048,0.023-0.16,0.07-0.336      c0.049-0.176,0.113-0.368,0.193-0.576s0.172-0.412,0.275-0.612c0.104-0.199,0.211-0.363,0.324-0.491      c0.463-0.433,0.912-0.96,1.344-1.584c0.207-0.288,0.408-0.496,0.6-0.624c0.193-0.128,0.385-0.229,0.576-0.301      c0.191-0.071,0.385-0.128,0.576-0.168c0.191-0.039,0.408-0.123,0.648-0.252c0.096,0,0.219-0.052,0.371-0.155      c0.152-0.104,0.293-0.204,0.42-0.301h0.672h0.408L233.116,277.737z M230.044,280.401c-0.289,0.24-0.561,0.517-0.816,0.828      c-0.256,0.312-0.48,0.628-0.672,0.948s-0.344,0.62-0.455,0.899c-0.113,0.28-0.168,0.501-0.168,0.661      c0,0.08-0.01,0.229-0.025,0.443c-0.016,0.217-0.008,0.441,0.025,0.672c0.031,0.232,0.092,0.441,0.18,0.625      s0.244,0.275,0.467,0.275c0.209,0,0.453-0.184,0.732-0.553c0.279-0.367,0.545-0.783,0.793-1.248      c0.248-0.463,0.455-0.896,0.623-1.296c0.168-0.399,0.252-0.64,0.252-0.72c0-0.063,0.008-0.22,0.023-0.468      s0.004-0.488-0.035-0.72c-0.041-0.232-0.129-0.4-0.264-0.505C230.567,280.142,230.347,280.193,230.044,280.401z"/>
    <path d="M239.525,278.073c0.145,0,0.246,0.08,0.312,0.24c0.062,0.16,0.096,0.304,0.096,0.432      c-0.291,1.009-0.545,1.929-0.768,2.761c-0.098,0.352-0.195,0.7-0.289,1.044c-0.098,0.344-0.18,0.66-0.254,0.948      c-0.07,0.287-0.129,0.531-0.168,0.732c-0.039,0.199-0.059,0.332-0.059,0.396c0,0.111-0.02,0.295-0.059,0.551      c-0.043,0.256-0.043,0.492,0,0.709c0.039,0.215,0.141,0.359,0.309,0.432s0.461-0.027,0.879-0.301      c0.031-0.08,0.133-0.184,0.312-0.312c0.176-0.127,0.367-0.287,0.576-0.479c0.127-0.129,0.207-0.26,0.238-0.396      c0.033-0.137,0.08-0.203,0.145-0.203c0-0.129,0.057-0.248,0.168-0.361c0.111-0.111,0.168-0.215,0.168-0.312      c0.033-0.111,0.121-0.318,0.264-0.624c0.145-0.304,0.305-0.672,0.48-1.104c0.145-0.304,0.279-0.632,0.408-0.984      c0.129-0.352,0.24-0.695,0.336-1.031c0.096-0.337,0.172-0.645,0.229-0.925c0.055-0.279,0.084-0.508,0.084-0.684      s0.039-0.312,0.119-0.408s0.18-0.168,0.301-0.216c0.119-0.048,0.244-0.076,0.371-0.084c0.129-0.008,0.24-0.012,0.336-0.012      h0.553c0.191,0,0.348,0.096,0.469,0.288c0.119,0.191,0.18,0.407,0.18,0.647c0,0.048-0.021,0.196-0.061,0.444      s-0.088,0.532-0.145,0.852c-0.055,0.32-0.123,0.648-0.203,0.984s-0.16,0.616-0.24,0.84c-0.336,0.72-0.664,1.437-0.984,2.148      c-0.32,0.713-0.48,1.404-0.48,2.076c0,0.08,0.033,0.168,0.098,0.264c0.031,0.049,0.062,0.088,0.096,0.121      c0.207,0,0.42-0.064,0.635-0.193c0.217-0.127,0.408-0.264,0.576-0.408c0.168-0.143,0.316-0.279,0.445-0.408      c0.127-0.127,0.215-0.191,0.264-0.191c0.047,0,0.1,0.023,0.156,0.072c0.055,0.049,0.107,0.096,0.156,0.145      c0.062,0.064,0.119,0.127,0.168,0.191c0,0.064-0.076,0.221-0.229,0.469s-0.328,0.512-0.529,0.791      c-0.199,0.281-0.391,0.541-0.574,0.781c-0.186,0.238-0.301,0.383-0.35,0.432c-0.16,0.111-0.299,0.211-0.42,0.299      c-0.119,0.088-0.227,0.178-0.324,0.264c-0.096,0.09-0.195,0.193-0.299,0.312c-0.105,0.121-0.221,0.268-0.348,0.445      c-0.209,0.207-0.424,0.352-0.648,0.432s-0.457,0.121-0.695,0.121c-0.113,0-0.221-0.037-0.324-0.109      c-0.105-0.07-0.197-0.16-0.277-0.264s-0.143-0.217-0.191-0.336c-0.049-0.121-0.072-0.221-0.072-0.301v-0.408v-0.264      c0.064-0.191,0.129-0.385,0.191-0.576c0.049-0.16,0.098-0.328,0.145-0.504c0.049-0.176,0.072-0.328,0.072-0.455      c0-0.098-0.012-0.197-0.035-0.301c-0.025-0.104-0.102-0.156-0.229-0.156c-0.096,0-0.209,0.061-0.336,0.18      c-0.129,0.121-0.256,0.256-0.385,0.408s-0.25,0.301-0.359,0.443c-0.113,0.145-0.203,0.24-0.266,0.289      c-0.094,0.129-0.273,0.324-0.527,0.588c-0.258,0.264-0.527,0.527-0.816,0.793c-0.289,0.264-0.562,0.5-0.828,0.707      c-0.262,0.207-0.453,0.312-0.562,0.312c-0.098,0-0.192-0.043-0.29-0.133c-0.096-0.086-0.18-0.191-0.252-0.312      c-0.07-0.119-0.131-0.238-0.18-0.359c-0.047-0.119-0.072-0.203-0.072-0.252v-0.672c0-0.127,0.008-0.256,0.025-0.385      c0.016-0.111,0.027-0.223,0.035-0.336c0.008-0.111,0.012-0.207,0.012-0.287c0-0.096,0.02-0.229,0.061-0.396      c0.039-0.168,0.061-0.363,0.061-0.588c0-0.207,0.027-0.424,0.084-0.648c0.055-0.223,0.1-0.391,0.131-0.504l0.193-0.912      c0.032-0.111,0.114-0.303,0.251-0.576c0.137-0.271,0.203-0.64,0.203-1.104c0-0.224,0.008-0.38,0.023-0.468      s-0.078-0.133-0.285-0.133c-0.098,0-0.196,0.017-0.302,0.049c-0.104,0.032-0.244,0.08-0.42,0.144      c-0.127,0.08-0.256,0.145-0.383,0.192c-0.129,0.048-0.225,0.071-0.289,0.071c-0.096,0-0.199-0.06-0.312-0.18      c-0.111-0.12-0.168-0.276-0.168-0.468c0-0.192,0.049-0.34,0.145-0.444c0.096-0.104,0.213-0.191,0.348-0.264      c0.137-0.072,0.268-0.145,0.396-0.216c0.129-0.072,0.217-0.164,0.264-0.276c0.209-0.16,0.457-0.388,0.745-0.684      c0.289-0.296,0.582-0.588,0.887-0.876s0.598-0.536,0.875-0.744c0.281-0.208,0.535-0.312,0.758-0.312H239.525z"/>
    <path d="M249.557,277.81c0.176-0.032,0.293-0.008,0.35,0.072c0.055,0.08,0.188,0.168,0.395,0.264      c0.176,0.096,0.328,0.208,0.457,0.336c0.127,0.128,0.191,0.28,0.191,0.456c-0.016,0.08-0.031,0.168-0.047,0.264      c-0.033,0.208-0.018,0.408,0.047,0.601c0,0.144-0.027,0.315-0.084,0.516s-0.068,0.364-0.035,0.492      c0.031,0.064,0.08,0.128,0.143,0.192c0.049,0.048,0.1,0.092,0.156,0.132s0.109,0.044,0.156,0.012      c0.16-0.032,0.332-0.184,0.516-0.456c0.184-0.271,0.365-0.576,0.541-0.912s0.352-0.664,0.527-0.983      c0.176-0.32,0.336-0.536,0.48-0.648l0.744-0.192c0.096-0.031,0.203-0.039,0.324-0.023c0.119,0.016,0.211,0.023,0.275,0.023      c0.305,0.177,0.496,0.42,0.576,0.732c0.08,0.312,0.135,0.556,0.168,0.732c0.016,0.224-0.061,0.52-0.229,0.888      s-0.379,0.672-0.635,0.912c-0.113,0.063-0.217,0.116-0.312,0.155c-0.096,0.041-0.191,0.076-0.289,0.108      c-0.08,0-0.139-0.004-0.18-0.012c-0.039-0.008-0.092-0.028-0.156-0.061c-0.08-0.031-0.154-0.052-0.227-0.06      s-0.156-0.012-0.252-0.012c-0.209,0-0.404,0.08-0.588,0.239c-0.186,0.16-0.365,0.328-0.541,0.504      c-0.271,0.337-0.484,0.717-0.637,1.141c-0.15,0.425-0.227,0.821-0.227,1.188c-0.113,0.111-0.244,0.252-0.396,0.42      s-0.268,0.363-0.348,0.588c-0.096,0.225-0.141,0.455-0.133,0.695s-0.035,0.473-0.131,0.697c0.016,0.191,0.016,0.412,0,0.66      c-0.018,0.248-0.045,0.508-0.084,0.779c-0.041,0.271-0.094,0.531-0.156,0.779c-0.064,0.248-0.137,0.469-0.217,0.66      c-0.111,0.082-0.248,0.152-0.408,0.217s-0.328,0.111-0.504,0.145c-0.191,0.049-0.4,0.08-0.623,0.096      c-0.08,0-0.186-0.064-0.312-0.191c-0.064-0.064-0.119-0.129-0.168-0.191l-0.336-0.674c-0.016-0.111,0-0.303,0.049-0.576      c0.047-0.271,0.104-0.547,0.168-0.828c0.062-0.279,0.123-0.531,0.18-0.756c0.055-0.223,0.084-0.352,0.084-0.383      c0.352-0.529,0.584-1.084,0.695-1.668s0.232-1.164,0.359-1.741l-0.191-1.584c-0.08-0.208-0.18-0.312-0.301-0.312      c-0.119,0-0.244,0.017-0.371,0.048c-0.256,0.049-0.439,0.117-0.553,0.204c-0.111,0.089-0.207,0.181-0.287,0.276      s-0.168,0.188-0.264,0.276s-0.264,0.147-0.504,0.18c-0.129,0-0.209-0.08-0.24-0.24c-0.033-0.159-0.064-0.304-0.096-0.432      c-0.033-0.145-0.01-0.284,0.072-0.42c0.078-0.136,0.188-0.265,0.322-0.384c0.137-0.12,0.293-0.24,0.469-0.36      s0.336-0.244,0.48-0.372c0.191-0.208,0.359-0.436,0.504-0.684s0.287-0.48,0.432-0.696s0.309-0.4,0.492-0.552      C249.033,277.934,249.27,277.842,249.557,277.81z"/>
    <path d="M259.205,278.073c0.145,0,0.248,0.08,0.312,0.24c0.062,0.16,0.096,0.304,0.096,0.432      c-0.289,1.009-0.545,1.929-0.768,2.761c-0.098,0.352-0.193,0.7-0.289,1.044s-0.18,0.66-0.252,0.948      c-0.072,0.287-0.129,0.531-0.168,0.732c-0.039,0.199-0.061,0.332-0.061,0.396c0,0.111-0.02,0.295-0.059,0.551      c-0.041,0.256-0.041,0.492,0,0.709c0.039,0.215,0.143,0.359,0.311,0.432s0.461-0.027,0.877-0.301      c0.031-0.08,0.135-0.184,0.312-0.312c0.176-0.127,0.367-0.287,0.576-0.479c0.127-0.129,0.207-0.26,0.238-0.396      c0.033-0.137,0.08-0.203,0.145-0.203c0-0.129,0.057-0.248,0.168-0.361c0.111-0.111,0.168-0.215,0.168-0.312      c0.033-0.111,0.121-0.318,0.264-0.624c0.145-0.304,0.305-0.672,0.48-1.104c0.145-0.304,0.279-0.632,0.408-0.984      c0.129-0.352,0.24-0.695,0.336-1.031c0.096-0.337,0.172-0.645,0.229-0.925c0.055-0.279,0.084-0.508,0.084-0.684      s0.039-0.312,0.119-0.408s0.18-0.168,0.301-0.216c0.119-0.048,0.244-0.076,0.371-0.084c0.129-0.008,0.24-0.012,0.336-0.012      h0.553c0.191,0,0.348,0.096,0.469,0.288c0.119,0.191,0.18,0.407,0.18,0.647c0,0.048-0.021,0.196-0.061,0.444      s-0.088,0.532-0.145,0.852c-0.055,0.32-0.123,0.648-0.203,0.984s-0.16,0.616-0.24,0.84c-0.336,0.72-0.664,1.437-0.984,2.148      c-0.32,0.713-0.48,1.404-0.48,2.076c0,0.08,0.033,0.168,0.098,0.264c0.031,0.049,0.062,0.088,0.096,0.121      c0.207,0,0.42-0.064,0.635-0.193c0.217-0.127,0.408-0.264,0.576-0.408c0.168-0.143,0.316-0.279,0.445-0.408      c0.127-0.127,0.215-0.191,0.264-0.191c0.047,0,0.1,0.023,0.156,0.072c0.055,0.049,0.107,0.096,0.156,0.145      c0.062,0.064,0.119,0.127,0.168,0.191c0,0.064-0.076,0.221-0.229,0.469s-0.328,0.512-0.529,0.791      c-0.199,0.281-0.391,0.541-0.574,0.781c-0.186,0.238-0.301,0.383-0.35,0.432c-0.16,0.111-0.299,0.211-0.42,0.299      c-0.119,0.088-0.227,0.178-0.324,0.264c-0.096,0.09-0.195,0.193-0.299,0.312c-0.105,0.121-0.221,0.268-0.348,0.445      c-0.209,0.207-0.424,0.352-0.648,0.432s-0.457,0.121-0.695,0.121c-0.113,0-0.221-0.037-0.324-0.109      c-0.105-0.07-0.197-0.16-0.277-0.264s-0.143-0.217-0.191-0.336c-0.049-0.121-0.072-0.221-0.072-0.301v-0.408v-0.264      c0.064-0.191,0.129-0.385,0.191-0.576c0.049-0.16,0.098-0.328,0.145-0.504c0.049-0.176,0.072-0.328,0.072-0.455      c0-0.098-0.012-0.197-0.035-0.301c-0.025-0.104-0.102-0.156-0.229-0.156c-0.096,0-0.209,0.061-0.336,0.18      c-0.129,0.121-0.256,0.256-0.385,0.408c-0.127,0.152-0.248,0.301-0.359,0.443c-0.111,0.145-0.201,0.24-0.264,0.289      c-0.096,0.129-0.273,0.324-0.529,0.588s-0.527,0.527-0.814,0.793c-0.289,0.264-0.564,0.5-0.828,0.707s-0.453,0.312-0.564,0.312      c-0.096,0-0.191-0.043-0.289-0.133c-0.096-0.086-0.18-0.191-0.252-0.312c-0.07-0.119-0.131-0.238-0.18-0.359      c-0.047-0.119-0.072-0.203-0.072-0.252v-0.672c0-0.127,0.008-0.256,0.025-0.385c0.016-0.111,0.027-0.223,0.035-0.336      c0.008-0.111,0.012-0.207,0.012-0.287c0-0.096,0.02-0.229,0.061-0.396c0.039-0.168,0.061-0.363,0.061-0.588      c0-0.207,0.027-0.424,0.084-0.648c0.055-0.223,0.1-0.391,0.131-0.504l0.193-0.912c0.031-0.111,0.115-0.303,0.252-0.576      c0.135-0.271,0.203-0.64,0.203-1.104c0-0.224,0.008-0.38,0.023-0.468s-0.08-0.133-0.287-0.133c-0.096,0-0.195,0.017-0.301,0.049      c-0.104,0.032-0.244,0.08-0.42,0.144c-0.127,0.08-0.256,0.145-0.383,0.192c-0.129,0.048-0.225,0.071-0.289,0.071      c-0.096,0-0.199-0.06-0.312-0.18c-0.111-0.12-0.168-0.276-0.168-0.468c0-0.192,0.049-0.34,0.145-0.444      c0.096-0.104,0.213-0.191,0.348-0.264c0.137-0.072,0.268-0.145,0.396-0.216c0.129-0.072,0.217-0.164,0.264-0.276      c0.209-0.16,0.457-0.388,0.744-0.684c0.289-0.296,0.584-0.588,0.889-0.876c0.303-0.288,0.596-0.536,0.875-0.744      c0.281-0.208,0.533-0.312,0.756-0.312H259.205z"/>
    <path d="M272.404,278.073c0.191,0.225,0.287,0.448,0.287,0.672c0,0.177-0.127,0.324-0.383,0.444      s-0.545,0.232-0.865,0.336c-0.318,0.104-0.635,0.204-0.947,0.3c-0.312,0.097-0.516,0.2-0.611,0.312      c-0.145,0.144-0.248,0.308-0.312,0.492c-0.064,0.184-0.096,0.372-0.096,0.563c0,0.192,0.031,0.376,0.096,0.552      c0.064,0.177,0.145,0.336,0.24,0.48c0.111,0.225,0.244,0.46,0.396,0.708c0.15,0.248,0.291,0.533,0.42,0.852      c0.127,0.32,0.234,0.682,0.324,1.08c0.088,0.4,0.131,0.85,0.131,1.346c0,0.432-0.145,0.867-0.432,1.307      c-0.287,0.441-0.656,0.828-1.104,1.164c-0.354,0.191-0.625,0.348-0.816,0.469c-0.191,0.119-0.359,0.215-0.504,0.289      c-0.145,0.07-0.285,0.119-0.42,0.143c-0.137,0.025-0.309,0.037-0.516,0.037h-0.865c-0.08,0-0.184,0.008-0.311,0.023      c-0.129,0.016-0.258,0.039-0.385,0.072c-0.16,0.031-0.328,0.064-0.504,0.096h-0.145h-0.527c-0.447,0-0.672-0.215-0.672-0.648      c0-0.111,0.072-0.289,0.215-0.527c0.145-0.24,0.324-0.473,0.541-0.697c0.215-0.223,0.443-0.424,0.684-0.6      s0.447-0.264,0.625-0.264c0.047,0,0.127,0.035,0.238,0.107c0.113,0.072,0.244,0.148,0.396,0.229s0.324,0.156,0.516,0.229      c0.193,0.072,0.408,0.107,0.648,0.107c0.16,0,0.309-0.049,0.443-0.145c0.137-0.096,0.252-0.211,0.35-0.348      c0.096-0.135,0.168-0.279,0.215-0.432c0.049-0.152,0.072-0.283,0.072-0.396c0-0.271-0.104-0.604-0.312-0.996      c-0.207-0.391-0.439-0.791-0.695-1.199s-0.488-0.797-0.695-1.165c-0.209-0.368-0.312-0.672-0.312-0.912v-0.264      c0.064-0.272,0.16-0.552,0.287-0.84c0.129-0.288,0.273-0.553,0.434-0.792c0.158-0.24,0.336-0.452,0.527-0.637      c0.191-0.184,0.4-0.3,0.623-0.348c0.113-0.063,0.229-0.168,0.35-0.312c0.119-0.145,0.227-0.28,0.322-0.408      c0.129-0.128,0.244-0.252,0.35-0.372c0.104-0.12,0.211-0.196,0.322-0.229c0.129-0.111,0.328-0.176,0.602-0.191      c0.271-0.016,0.471-0.024,0.6-0.024h0.527C271.996,277.737,272.213,277.85,272.404,278.073z"/>
    <path d="M243.875,262.648      c0-1.279-1.035-2.316-2.316-2.316c-1.277,0-2.319,1.037-2.319,2.316s1.042,2.316,2.319,2.316      C242.84,264.965,243.875,263.928,243.875,262.648z"/>
    <path d="M262.365,236.438      c0,1.279-1.035,2.316-2.316,2.316c-1.277,0-2.312-1.037-2.312-2.316c0-1.28,1.035-2.317,2.312-2.317      C261.33,234.121,262.365,235.158,262.365,236.438z"/>
    <path d="M260.561,217.538c0,10.605-8.598,19.199-19.201,19.199        c-10.606,0-19.202-8.594-19.202-19.199"/>
    <path d="M241.359,236.737"/>
    <path d="M243.875,236.438      c0,1.279-1.035,2.316-2.316,2.316c-1.277,0-2.319-1.037-2.319-2.316c0-1.28,1.042-2.317,2.319-2.317      C242.84,234.121,243.875,235.158,243.875,236.438z"/>
    <circle cx="223.072" cy="236.438" r="2.317"/>
    <circle cx="250.673" cy="249.674" r="2.317"/>
    <circle cx="232.314" cy="249.544" r="2.315"/>
    <circle cx="260.561" cy="217.539" r="2.316"/>
    <circle cx="222.159" cy="217.539" r="2.316"/>
    <polyline points="232.315,249.543       241.559,262.648 250.803,249.543     "/>
    <polyline points="241.562,236.438       223.073,236.438 232.315,249.543     "/>
    <polyline points="241.562,236.438       260.049,236.438 250.807,249.543     "/>
    <polygon points="232.315,249.543       241.559,236.438 250.803,249.543     "/>
  </g>
</svg>
