<svg xmlns="http://www.w3.org/2000/svg" viewBox="67.2 321.1 101.3 92.4">
  <g fill="none" stroke="currentColor" stroke-width="1.5" stroke-linecap="round" stroke-linejoin="round">
    <path d="M99.397,394.855c0.119,0.105,0.211,0.236,0.275,0.396s0.1,0.324,0.109,0.492      c0.008,0.168,0.012,0.309,0.012,0.42v0.457c-0.096,0.367-0.262,0.703-0.492,1.008c-0.232,0.303-0.533,0.455-0.9,0.455      c-0.24,0-0.496-0.076-0.768-0.229c-0.273-0.152-0.576-0.227-0.912-0.227c-0.352,0-0.697,0.123-1.033,0.371      s-0.639,0.541-0.91,0.877c-0.273,0.336-0.492,0.676-0.66,1.02s-0.252,0.611-0.252,0.805v0.672v0.91      c0,0.191,0.031,0.52,0.096,0.984c0.062,0.465,0.168,0.941,0.311,1.43c0.145,0.488,0.332,0.918,0.564,1.295      s0.523,0.564,0.877,0.564l0.479-0.191c0.369,0,0.713-0.045,1.033-0.133s0.615-0.27,0.889-0.539      c0.352-0.418,0.688-0.746,1.008-0.984c0.096-0.082,0.207-0.137,0.336-0.168c0.127-0.033,0.24-0.049,0.336-0.049      c0.031,0.033,0.072,0.08,0.119,0.143c0.096,0.129,0.145,0.242,0.145,0.336c0,0.354-0.129,0.758-0.385,1.213      s-0.564,0.889-0.924,1.297s-0.729,0.756-1.104,1.045c-0.377,0.287-0.684,0.432-0.924,0.432H96.53      c-0.225,0.047-0.434,0.094-0.625,0.141c-0.176,0.035-0.344,0.066-0.504,0.098s-0.271,0.047-0.336,0.047      c-0.129,0-0.309-0.055-0.541-0.168c-0.23-0.109-0.475-0.242-0.73-0.395s-0.488-0.311-0.697-0.479      c-0.207-0.168-0.336-0.316-0.383-0.445c-0.064-0.047-0.148-0.203-0.252-0.469c-0.105-0.262-0.209-0.559-0.312-0.887      s-0.191-0.652-0.264-0.973s-0.107-0.559-0.107-0.719v-0.746c-0.049-0.094-0.098-0.184-0.145-0.262      c-0.08-0.16-0.121-0.297-0.121-0.41c0.033-0.191,0.072-0.375,0.121-0.551c0.031-0.145,0.062-0.297,0.096-0.457      c0.031-0.16,0.049-0.287,0.049-0.383v-0.527c0-0.049-0.018-0.109-0.049-0.18c-0.033-0.074-0.064-0.148-0.096-0.23      c-0.049-0.078-0.088-0.168-0.121-0.262l0.266-0.746V399.5c0.127-0.271,0.246-0.52,0.359-0.744      c0.096-0.191,0.195-0.375,0.299-0.551c0.105-0.178,0.197-0.305,0.277-0.385c0.047-0.305,0.168-0.576,0.359-0.816      s0.42-0.465,0.684-0.672s0.549-0.398,0.852-0.576c0.305-0.176,0.609-0.352,0.912-0.529c0.176-0.031,0.354-0.07,0.529-0.117      c0.127-0.033,0.26-0.066,0.396-0.098c0.135-0.031,0.227-0.047,0.275-0.047h0.48h0.912l0.742-0.266      C99.097,394.699,99.278,394.752,99.397,394.855z"/>
    <path d="M108.386,396.883c0.336,0,0.576,0.098,0.719,0.289c0.145,0.191,0.217,0.457,0.217,0.793      c0,0.062-0.023,0.203-0.072,0.42c-0.047,0.215-0.107,0.455-0.18,0.719c-0.072,0.266-0.148,0.531-0.229,0.805      s-0.143,0.488-0.191,0.648c0,0.129-0.008,0.26-0.023,0.395c-0.018,0.137-0.072,0.316-0.168,0.541      c-0.129,0.096-0.193,0.252-0.193,0.467c0,0.217,0,0.373,0,0.469l-0.072,1.273v0.934c0,0.049,0.004,0.133,0.014,0.254      c0.008,0.119,0.023,0.238,0.047,0.359s0.068,0.225,0.133,0.312c0.062,0.088,0.152,0.133,0.264,0.133l0.336-0.529      c0.096-0.08,0.207-0.18,0.336-0.299c0.127-0.121,0.256-0.238,0.385-0.35c0.143-0.127,0.287-0.264,0.432-0.408      c0.096,0,0.176,0.041,0.24,0.121c0.062,0.08,0.096,0.168,0.096,0.264l-0.096,0.191c-0.064,0.129-0.129,0.225-0.193,0.287      c-0.111,0.32-0.256,0.598-0.432,0.828c-0.176,0.234-0.367,0.457-0.576,0.672c-0.207,0.219-0.42,0.438-0.635,0.66      c-0.217,0.227-0.42,0.48-0.613,0.77l-0.527,0.744c0,0.145-0.045,0.291-0.133,0.441c-0.088,0.152-0.191,0.273-0.311,0.363      c-0.121,0.086-0.248,0.125-0.385,0.117s-0.244-0.098-0.324-0.273c-0.096-0.289-0.145-0.574-0.145-0.854s0.025-0.551,0.072-0.816      c0.049-0.262,0.096-0.516,0.145-0.754c0.049-0.242,0.072-0.473,0.072-0.697v-0.865v-0.479c0-0.08-0.057-0.135-0.168-0.168      c-0.064-0.016-0.121-0.025-0.168-0.025c-0.049,0-0.168,0.141-0.359,0.422c-0.193,0.279-0.412,0.6-0.66,0.959      c-0.25,0.361-0.502,0.725-0.756,1.092c-0.258,0.369-0.465,0.633-0.625,0.793c-0.049,0.062-0.125,0.156-0.229,0.275      s-0.215,0.236-0.336,0.35c-0.119,0.111-0.252,0.211-0.395,0.299c-0.145,0.088-0.273,0.133-0.385,0.133      c-0.225,0-0.408-0.082-0.553-0.242c-0.143-0.158-0.256-0.346-0.336-0.562s-0.141-0.432-0.18-0.648s-0.061-0.373-0.061-0.467      l-0.07-1.73l0.336-2.807c0-0.049,0.023-0.16,0.07-0.336c0.049-0.176,0.113-0.369,0.193-0.576s0.172-0.412,0.275-0.613      c0.104-0.199,0.211-0.363,0.324-0.49c0.463-0.432,0.912-0.959,1.344-1.584c0.207-0.289,0.408-0.496,0.6-0.625      c0.193-0.127,0.385-0.229,0.576-0.299c0.191-0.072,0.385-0.129,0.576-0.168s0.408-0.125,0.648-0.254      c0.096,0,0.219-0.051,0.371-0.154s0.293-0.205,0.42-0.301h0.672h0.408L108.386,396.883z M105.313,399.549      c-0.289,0.238-0.561,0.516-0.816,0.828s-0.48,0.627-0.672,0.947s-0.344,0.619-0.455,0.9c-0.113,0.279-0.168,0.5-0.168,0.66      c0,0.078-0.01,0.227-0.025,0.443s-0.008,0.439,0.025,0.672c0.031,0.232,0.092,0.439,0.18,0.623      c0.088,0.186,0.244,0.277,0.467,0.277c0.209,0,0.453-0.184,0.732-0.553c0.279-0.367,0.545-0.783,0.793-1.248      s0.455-0.895,0.623-1.297c0.168-0.398,0.252-0.639,0.252-0.719c0-0.062,0.008-0.219,0.023-0.469      c0.016-0.246,0.004-0.488-0.035-0.719c-0.041-0.232-0.129-0.4-0.264-0.504C105.837,399.287,105.616,399.34,105.313,399.549z"/>
    <path d="M114.001,397.363c0.176,0,0.312,0.057,0.408,0.168c0.096,0.113,0.184,0.232,0.264,0.359      c0.049,0.113,0.064,0.266,0.049,0.457c-0.016,0.193-0.045,0.385-0.084,0.576s-0.08,0.375-0.119,0.551      c-0.041,0.178-0.061,0.297-0.061,0.361l0.072,0.385l0.264,0.48c0.064,0,0.188-0.094,0.371-0.277s0.4-0.41,0.648-0.684      s0.508-0.564,0.781-0.875c0.271-0.312,0.535-0.605,0.791-0.877c0.256-0.273,0.488-0.5,0.695-0.684      c0.209-0.184,0.361-0.277,0.457-0.277c0.127,0,0.236,0.082,0.324,0.24c0.088,0.16,0.172,0.328,0.252,0.506      c0.08,0.207,0.152,0.447,0.215,0.719c0.016,0.225,0,0.537-0.047,0.936c-0.049,0.4-0.125,0.836-0.229,1.309      s-0.217,0.953-0.336,1.439c-0.119,0.488-0.232,0.936-0.336,1.344s-0.191,0.748-0.264,1.021c-0.072,0.271-0.107,0.414-0.107,0.43      c0,0.066-0.01,0.141-0.025,0.23c-0.016,0.086-0.023,0.168-0.023,0.238c0,0.072,0.02,0.133,0.061,0.18      c0.039,0.049,0.123,0.074,0.252,0.074c0.096-0.066,0.191-0.129,0.287-0.193c0.08-0.064,0.168-0.127,0.264-0.193      c0.096-0.062,0.201-0.135,0.312-0.215c0.271-0.176,0.523-0.34,0.756-0.492s0.381-0.227,0.443-0.227      c0.098,0,0.201,0.051,0.312,0.156c0.111,0.102,0.168,0.203,0.168,0.299c0,0.033-0.051,0.119-0.156,0.264      c-0.104,0.145-0.227,0.297-0.371,0.457s-0.289,0.305-0.432,0.432c-0.145,0.127-0.248,0.191-0.312,0.191      c0,0.127-0.045,0.248-0.133,0.361c-0.088,0.111-0.18,0.168-0.275,0.168c-0.256,0.271-0.473,0.535-0.648,0.791      s-0.352,0.492-0.527,0.709c-0.176,0.215-0.369,0.387-0.576,0.514c-0.209,0.129-0.473,0.193-0.791,0.193      c-0.113,0-0.229-0.041-0.35-0.119c-0.119-0.082-0.227-0.182-0.324-0.301c-0.096-0.119-0.172-0.248-0.227-0.385      c-0.057-0.137-0.084-0.252-0.084-0.348l-0.072-0.863c0.096-0.434,0.219-0.896,0.371-1.393s0.293-0.959,0.42-1.393      c0.129-0.367,0.232-0.719,0.312-1.055s0.137-0.656,0.168-0.961v-0.264c-0.064-0.447-0.225-0.672-0.48-0.672      c-0.383,0-0.688,0.084-0.912,0.252c-0.223,0.168-0.406,0.383-0.551,0.648c-0.145,0.264-0.268,0.547-0.373,0.852      c-0.104,0.305-0.219,0.592-0.348,0.863c-0.08,0.098-0.131,0.188-0.156,0.277c-0.023,0.086-0.02,0.195,0.012,0.324      c-0.031,0.191-0.068,0.383-0.107,0.574s-0.092,0.377-0.156,0.553c-0.176,0.514-0.344,1.02-0.504,1.525      c-0.16,0.504-0.303,0.971-0.432,1.402c0.08,0.129,0.068,0.205-0.035,0.229c-0.105,0.023-0.205,0.035-0.301,0.035      s-0.232-0.004-0.408-0.012s-0.348-0.035-0.516-0.084c-0.168-0.047-0.32-0.121-0.457-0.215c-0.135-0.098-0.211-0.232-0.227-0.41      c-0.033-0.27,0-0.555,0.096-0.852c0.096-0.295,0.203-0.57,0.324-0.828c0.119-0.254,0.236-0.48,0.348-0.672      s0.168-0.32,0.168-0.383v-0.408v-0.455l-0.121-0.41c0-0.094,0.033-0.219,0.098-0.371c0.062-0.152,0.131-0.305,0.203-0.457      c0.072-0.15,0.141-0.289,0.205-0.418c0.062-0.129,0.096-0.225,0.096-0.289v-0.336l-0.072-0.936c0-0.096-0.012-0.197-0.037-0.299      c-0.023-0.105-0.1-0.156-0.227-0.156c-0.096,0-0.205,0.023-0.324,0.07c-0.121,0.049-0.24,0.102-0.361,0.156      c-0.119,0.057-0.23,0.109-0.336,0.156c-0.104,0.047-0.188,0.072-0.252,0.072h-0.191c-0.111-0.064-0.141-0.189-0.084-0.373      s0.084-0.324,0.084-0.418c0.4-0.562,0.787-1.053,1.164-1.477c0.375-0.426,0.828-0.805,1.355-1.141      c0.113-0.064,0.266-0.145,0.457-0.24S113.825,397.363,114.001,397.363z"/>
    <path d="M125.69,397.148c0.207,0.031,0.436,0.08,0.684,0.145c0.248,0.062,0.467,0.156,0.66,0.275      c0.191,0.119,0.344,0.279,0.455,0.479c0.111,0.201,0.152,0.461,0.121,0.781c0,0.176-0.037,0.344-0.109,0.504      s-0.16,0.309-0.264,0.443c-0.104,0.137-0.221,0.246-0.348,0.324c-0.129,0.082-0.24,0.121-0.336,0.121      c-0.129-0.016-0.236-0.027-0.324-0.037c-0.088-0.008-0.156-0.012-0.203-0.012h-0.145h-0.191c-0.273,0-0.576,0.01-0.912,0.025      s-0.568,0.07-0.697,0.168c-0.127,0-0.203,0.039-0.229,0.119c-0.023,0.08-0.035,0.176-0.035,0.287l-0.336,0.527      c-0.031,0.193-0.064,0.377-0.096,0.553c-0.033,0.145-0.064,0.287-0.096,0.432c-0.033,0.145-0.057,0.242-0.072,0.289v0.383      l-0.191,0.672c-0.033,0.066-0.072,0.129-0.121,0.193c-0.031,0.064-0.064,0.123-0.096,0.18c-0.033,0.057-0.057,0.107-0.072,0.156      c0,0.143,0.023,0.34,0.072,0.588s0.111,0.488,0.191,0.719c0.08,0.234,0.172,0.438,0.277,0.613      c0.104,0.176,0.219,0.273,0.348,0.289c0.24,0,0.488-0.098,0.744-0.289s0.508-0.404,0.756-0.637      c0.248-0.23,0.488-0.439,0.719-0.623c0.232-0.186,0.445-0.268,0.637-0.252c0.24,0.031,0.375,0.092,0.408,0.18      c0.031,0.088,0.031,0.18,0,0.275c-0.016,0.225-0.107,0.48-0.275,0.768c-0.168,0.289-0.369,0.574-0.602,0.852      c-0.23,0.281-0.471,0.537-0.719,0.77c-0.248,0.23-0.453,0.395-0.613,0.492c-0.527,0.336-1,0.615-1.416,0.84      s-0.879,0.318-1.391,0.287c-0.225-0.016-0.408-0.131-0.553-0.348s-0.256-0.463-0.336-0.744c-0.08-0.279-0.141-0.555-0.18-0.828      c-0.041-0.271-0.061-0.471-0.061-0.6l0.072-0.217c0-0.062-0.008-0.172-0.023-0.324c-0.016-0.15-0.029-0.311-0.037-0.479      s-0.016-0.332-0.023-0.492s-0.004-0.279,0.012-0.361c0-0.494,0.057-0.883,0.168-1.164c0.111-0.277,0.168-0.578,0.168-0.898      l0.264-0.602v-0.551c0.016-0.047,0.057-0.172,0.121-0.371c0.062-0.201,0.139-0.426,0.229-0.672      c0.088-0.25,0.172-0.5,0.252-0.758c0.078-0.254,0.143-0.455,0.191-0.6c0-0.096,0.057-0.217,0.168-0.359      c0.111-0.145,0.244-0.283,0.396-0.42c0.15-0.137,0.311-0.252,0.479-0.35c0.168-0.094,0.316-0.143,0.445-0.143      c0.096-0.033,0.152-0.057,0.168-0.072s0.023-0.031,0.023-0.047s0.008-0.037,0.023-0.061c0.016-0.025,0.072-0.053,0.168-0.084      c0.24-0.031,0.424-0.068,0.553-0.109c0.127-0.039,0.248-0.078,0.359-0.119c0.113-0.041,0.221-0.072,0.324-0.096      S125.497,397.133,125.69,397.148z"/>
    <path d="M132.696,397.1c0.336,0,0.619,0.061,0.852,0.182c0.232,0.119,0.42,0.283,0.564,0.492      c0.143,0.207,0.248,0.447,0.311,0.719c0.064,0.271,0.088,0.561,0.072,0.865c0,0.43-0.16,0.777-0.479,1.043      c-0.32,0.264-0.648,0.492-0.984,0.684c-0.305,0.207-0.629,0.393-0.973,0.551c-0.344,0.16-0.664,0.336-0.959,0.529      c-0.297,0.193-0.545,0.416-0.744,0.672c-0.201,0.256-0.309,0.584-0.324,0.984v1.008c-0.033,0.271,0.023,0.541,0.168,0.803      c0.143,0.266,0.328,0.398,0.551,0.398c0.016,0.016,0.08-0.008,0.193-0.074c0.111-0.062,0.234-0.139,0.371-0.227      s0.271-0.18,0.408-0.277c0.137-0.094,0.236-0.168,0.301-0.215c0.24-0.113,0.428-0.203,0.562-0.277      c0.137-0.07,0.236-0.09,0.301-0.059c0.111,0,0.207,0.016,0.287,0.047c0.08,0.033,0.121,0.152,0.121,0.359      c-0.033,0.354-0.184,0.693-0.457,1.021c-0.271,0.328-0.566,0.631-0.887,0.912s-0.633,0.523-0.936,0.73      c-0.305,0.209-0.506,0.361-0.602,0.457c-0.271,0.24-0.523,0.369-0.756,0.385s-0.467,0.023-0.707,0.023      c-0.145-0.016-0.293-0.08-0.445-0.191s-0.287-0.244-0.406-0.396c-0.121-0.152-0.213-0.309-0.277-0.469s-0.088-0.295-0.072-0.406      v-0.41c0-0.109-0.031-0.23-0.096-0.359c-0.031-0.062-0.064-0.119-0.096-0.168l0.072-0.48v-0.383      c0-0.064,0.016-0.236,0.049-0.516c0.031-0.281,0.07-0.586,0.119-0.914c0.049-0.326,0.092-0.639,0.133-0.934      c0.039-0.297,0.066-0.492,0.084-0.59c0.062-0.047,0.096-0.094,0.096-0.145c0-0.047-0.01-0.094-0.025-0.143      s-0.023-0.107-0.023-0.18s0.031-0.156,0.096-0.252c0-0.191,0.041-0.393,0.121-0.602c0.047-0.109,0.096-0.223,0.143-0.336      l0.336-0.791c0.033-0.352,0.201-0.717,0.506-1.092c0.303-0.375,0.658-0.715,1.066-1.021c0.408-0.303,0.828-0.547,1.26-0.73      C132.024,397.145,132.392,397.068,132.696,397.1z M131.616,398.9c-0.08,0-0.16,0.059-0.24,0.18s-0.16,0.252-0.24,0.395      c-0.08,0.178-0.16,0.361-0.24,0.555c-0.016,0.078-0.039,0.172-0.072,0.273c-0.031,0.105-0.057,0.201-0.072,0.289      s-0.008,0.16,0.025,0.215c0.031,0.059,0.096,0.086,0.191,0.086c0.08,0.016,0.199,0,0.359-0.049s0.324-0.119,0.492-0.217      c0.168-0.094,0.32-0.211,0.457-0.348c0.135-0.135,0.211-0.283,0.227-0.443v-0.408c0-0.08-0.023-0.152-0.07-0.215      c-0.049-0.064-0.105-0.113-0.168-0.145c-0.064-0.049-0.145-0.088-0.24-0.121L131.616,398.9z"/>
    <path d="M138.239,396.957c0.176-0.033,0.293-0.008,0.35,0.07c0.055,0.082,0.188,0.168,0.395,0.266      c0.176,0.094,0.328,0.207,0.457,0.336c0.127,0.127,0.191,0.279,0.191,0.455c-0.016,0.08-0.031,0.168-0.047,0.264      c-0.033,0.209-0.018,0.408,0.047,0.6c0,0.145-0.027,0.316-0.084,0.516c-0.057,0.201-0.068,0.365-0.035,0.492      c0.031,0.066,0.08,0.129,0.143,0.193c0.049,0.049,0.1,0.092,0.156,0.131c0.057,0.041,0.109,0.045,0.156,0.012      c0.16-0.031,0.332-0.184,0.516-0.455s0.365-0.576,0.541-0.912s0.352-0.664,0.527-0.982c0.176-0.32,0.336-0.537,0.48-0.648      l0.744-0.193c0.096-0.031,0.203-0.039,0.324-0.023c0.119,0.016,0.211,0.023,0.275,0.023c0.305,0.178,0.496,0.42,0.576,0.732      c0.08,0.311,0.135,0.557,0.168,0.732c0.016,0.223-0.061,0.52-0.229,0.887c-0.168,0.369-0.379,0.672-0.635,0.914      c-0.113,0.062-0.217,0.115-0.312,0.154c-0.096,0.041-0.191,0.076-0.289,0.107c-0.08,0-0.139-0.004-0.18-0.012      c-0.039-0.008-0.092-0.027-0.156-0.059c-0.08-0.031-0.154-0.053-0.227-0.061s-0.156-0.012-0.252-0.012      c-0.209,0-0.404,0.08-0.588,0.24c-0.186,0.16-0.365,0.328-0.541,0.504c-0.271,0.336-0.484,0.715-0.637,1.141      c-0.15,0.422-0.227,0.82-0.227,1.188c-0.113,0.111-0.244,0.25-0.396,0.418s-0.268,0.365-0.348,0.59      c-0.096,0.223-0.141,0.455-0.133,0.695s-0.035,0.473-0.131,0.695c0.016,0.193,0.016,0.414,0,0.66      c-0.018,0.25-0.045,0.508-0.084,0.781c-0.041,0.271-0.094,0.531-0.156,0.779c-0.064,0.248-0.137,0.469-0.217,0.66      c-0.111,0.08-0.248,0.152-0.408,0.215c-0.16,0.066-0.328,0.113-0.504,0.145c-0.191,0.047-0.4,0.078-0.623,0.098      c-0.08,0-0.186-0.066-0.312-0.195c-0.064-0.062-0.119-0.125-0.168-0.189l-0.336-0.672c-0.016-0.113,0-0.305,0.049-0.576      c0.047-0.271,0.104-0.549,0.168-0.828c0.062-0.279,0.123-0.533,0.18-0.756c0.055-0.223,0.084-0.352,0.084-0.383      c0.352-0.529,0.584-1.086,0.695-1.668c0.111-0.586,0.232-1.164,0.359-1.742l-0.191-1.582c-0.08-0.209-0.18-0.312-0.301-0.312      c-0.119,0-0.244,0.016-0.371,0.047c-0.256,0.049-0.439,0.117-0.553,0.203c-0.111,0.09-0.207,0.182-0.287,0.277      s-0.168,0.188-0.264,0.277c-0.096,0.086-0.264,0.146-0.504,0.18c-0.129,0-0.209-0.082-0.24-0.242      c-0.033-0.158-0.064-0.303-0.096-0.43c-0.033-0.145-0.01-0.285,0.072-0.422c0.078-0.135,0.188-0.264,0.322-0.383      c0.137-0.121,0.293-0.24,0.469-0.359c0.176-0.121,0.336-0.246,0.48-0.373c0.191-0.209,0.359-0.436,0.504-0.684      s0.287-0.48,0.432-0.695c0.145-0.217,0.309-0.402,0.492-0.553C137.716,397.08,137.952,396.988,138.239,396.957z"/>
    <path d="M112.9,359.785c0,8.838-7.164,16-16,16c-8.84,0-16-7.162-16-16s7.16-16,16-16      C105.736,343.785,112.9,350.947,112.9,359.785z"/>
    <path d="M81.15,359.785c0-29.33,40.332-41.664,57.332-24.666"/>
    <path d="M99.301,343.787      c0,1.324-1.074,2.398-2.402,2.398c-1.324,0-2.398-1.074-2.398-2.398c0-1.328,1.074-2.402,2.398-2.402      C98.227,341.385,99.301,342.459,99.301,343.787z"/>
    <path d="M99.301,375.537      c0,1.324-1.074,2.398-2.402,2.398c-1.324,0-2.398-1.074-2.398-2.398c0-1.328,1.074-2.402,2.398-2.402      C98.227,373.135,99.301,374.209,99.301,375.537z"/>
    <path d="M115.301,359.787      c0,1.324-1.074,2.398-2.402,2.398c-1.324,0-2.398-1.074-2.398-2.398c0-1.328,1.074-2.402,2.398-2.402      C114.227,357.385,115.301,358.459,115.301,359.787z"/>
    <path d="M140.883,335.121      c0,1.324-1.074,2.398-2.402,2.398c-1.324,0-2.398-1.074-2.398-2.398c0-1.328,1.074-2.402,2.398-2.402      C139.809,332.719,140.883,333.793,140.883,335.121z"/>
    <path d="M83.551,359.787      c0,1.324-1.074,2.398-2.402,2.398c-1.324,0-2.398-1.074-2.398-2.398c0-1.328,1.074-2.402,2.398-2.402      C82.477,357.385,83.551,358.459,83.551,359.787z"/>
    <path d="M122.734,359.787c0-8.838,7.164-16,16-16c8.84,0,16,7.162,16,16s-7.16,16-16,16       C129.898,375.787,122.734,368.625,122.734,359.787z"/>
    <path d="M154.484,359.787c0,29.332-40.332,41.666-57.332,24.666"/>
    <path d="M136.334,375.785       c0-1.324,1.074-2.398,2.402-2.398c1.324,0,2.398,1.074,2.398,2.398c0,1.328-1.074,2.402-2.398,2.402       C137.408,378.188,136.334,377.113,136.334,375.785z"/>
    <path d="M136.334,344.035       c0-1.324,1.074-2.398,2.402-2.398c1.324,0,2.398,1.074,2.398,2.398c0,1.328-1.074,2.402-2.398,2.402       C137.408,346.438,136.334,345.363,136.334,344.035z"/>
    <path d="M120.334,359.785       c0-1.324,1.074-2.398,2.402-2.398c1.324,0,2.398,1.074,2.398,2.398c0,1.328-1.074,2.402-2.398,2.402       C121.408,362.188,120.334,361.113,120.334,359.785z"/>
    <path d="M94.752,384.451       c0-1.324,1.074-2.398,2.402-2.398c1.324,0,2.398,1.074,2.398,2.398c0,1.328-1.074,2.402-2.398,2.402       C95.826,386.854,94.752,385.779,94.752,384.451z"/>
    <path d="M152.084,359.785       c0-1.324,1.074-2.398,2.402-2.398c1.324,0,2.398,1.074,2.398,2.398c0,1.328-1.074,2.402-2.398,2.402       C153.158,362.188,152.084,361.113,152.084,359.785z"/>
  </g>
</svg>
