<svg xmlns="http://www.w3.org/2000/svg" viewBox="313.1 432.2 107.4 113.3">
  <g fill="none" stroke="currentColor" stroke-width="1.5" stroke-linecap="round" stroke-linejoin="round">
    <path d="M327.072,516.98c0-0.254,0.043-0.477,0.131-0.66s0.209-0.348,0.361-0.492      c0.15-0.145,0.324-0.279,0.516-0.406c0.191-0.129,0.393-0.258,0.6-0.385c0.432-0.271,0.828-0.496,1.188-0.672      c0.361-0.176,0.805-0.264,1.332-0.264c0.336,0,0.633,0.004,0.889,0.012s0.52,0.117,0.791,0.324      c0.225,0.176,0.381,0.367,0.469,0.574c0.088,0.209,0.133,0.465,0.133,0.77c0,0.16-0.029,0.328-0.084,0.504      c-0.057,0.176-0.137,0.336-0.24,0.48c-0.105,0.145-0.232,0.26-0.385,0.348s-0.316,0.133-0.492,0.133s-0.316-0.045-0.42-0.133      s-0.199-0.18-0.287-0.277c-0.088-0.094-0.184-0.188-0.289-0.275c-0.104-0.088-0.236-0.131-0.395-0.131      c-0.209,0-0.42,0.02-0.637,0.059c-0.217,0.041-0.412,0.109-0.588,0.203c-0.176,0.098-0.32,0.219-0.432,0.361      c-0.113,0.145-0.168,0.32-0.168,0.529c0,0.191,0.062,0.328,0.191,0.406c0.127,0.082,0.283,0.137,0.469,0.168      c0.184,0.033,0.379,0.064,0.588,0.098c0.207,0.031,0.398,0.094,0.576,0.191c0.432,0.223,0.803,0.424,1.115,0.6      s0.668,0.4,1.068,0.672c0.145,0.08,0.271,0.148,0.383,0.205c0.113,0.055,0.221,0.107,0.324,0.156      c0.104,0.047,0.213,0.102,0.324,0.168c0.111,0.062,0.24,0.152,0.385,0.262c0.463,0.369,0.836,0.742,1.115,1.117      s0.42,0.867,0.42,1.477v0.551c0,0.191,0.033,0.363,0.096,0.516c0.064,0.152,0.098,0.332,0.098,0.541      c0,0.336-0.068,0.607-0.205,0.814c-0.137,0.211-0.268,0.449-0.396,0.723c-0.031,0.127-0.031,0.234,0,0.324      c0.033,0.086,0.008,0.18-0.072,0.273c-0.062,0.209-0.168,0.346-0.311,0.41c-0.145,0.062-0.281,0.176-0.408,0.336      c-0.145,0.127-0.281,0.238-0.408,0.336c-0.129,0.094-0.256,0.188-0.385,0.275c-0.127,0.088-0.26,0.172-0.395,0.252      c-0.137,0.08-0.301,0.168-0.492,0.264c-0.305,0.176-0.576,0.299-0.816,0.373c-0.24,0.07-0.52,0.146-0.84,0.227      c-0.113,0.031-0.209,0.084-0.289,0.156s-0.184,0.109-0.311,0.109c-0.145,0-0.258-0.012-0.336-0.037      c-0.082-0.025-0.168-0.037-0.266-0.037c-0.238,0-0.428,0.025-0.562,0.074c-0.137,0.047-0.309,0.07-0.518,0.07      c-0.127,0-0.227-0.027-0.299-0.082c-0.072-0.059-0.172-0.102-0.301-0.133c-0.176-0.064-0.332-0.094-0.467-0.086      c-0.137,0.008-0.293-0.004-0.469-0.035c-0.176,0-0.32-0.051-0.432-0.156c-0.113-0.104-0.256-0.211-0.432-0.324      c-0.178-0.094-0.346-0.164-0.504-0.203c-0.16-0.039-0.328-0.148-0.504-0.324c-0.178-0.096-0.273-0.219-0.289-0.371      s-0.072-0.316-0.168-0.492c-0.129-0.273-0.24-0.484-0.336-0.637s-0.145-0.387-0.145-0.707c0-0.465,0.176-0.867,0.529-1.213      c0.352-0.344,0.775-0.516,1.271-0.516c0.303,0,0.592,0.068,0.863,0.205c0.271,0.135,0.408,0.34,0.408,0.609      c0,0.098-0.012,0.168-0.035,0.219c-0.025,0.047-0.037,0.102-0.037,0.168c0,0.109,0.025,0.199,0.072,0.262      c0.049,0.066,0.072,0.137,0.072,0.217c0,0.033-0.012,0.076-0.035,0.131c-0.025,0.059-0.037,0.102-0.037,0.133      c0,0.24,0.064,0.445,0.191,0.613c0.129,0.168,0.293,0.312,0.492,0.432c0.201,0.119,0.428,0.209,0.686,0.264      c0.256,0.055,0.512,0.084,0.768,0.084c0.512,0,0.979-0.119,1.404-0.361c0.424-0.238,0.803-0.559,1.139-0.959      c0.193-0.209,0.352-0.424,0.48-0.646c0.129-0.227,0.191-0.504,0.191-0.842c0-0.191-0.047-0.371-0.143-0.539      c-0.096-0.17-0.145-0.34-0.145-0.518c0-0.078,0.012-0.123,0.035-0.131c0.025-0.008,0.037-0.027,0.037-0.061      c0-0.254-0.068-0.469-0.205-0.637c-0.135-0.168-0.307-0.314-0.516-0.441c-0.207-0.129-0.436-0.25-0.684-0.361      s-0.492-0.232-0.732-0.361c-0.064-0.031-0.115-0.086-0.156-0.168c-0.039-0.078-0.1-0.135-0.18-0.168      c-0.16-0.078-0.32-0.121-0.48-0.131c-0.16-0.008-0.311-0.076-0.455-0.205c-0.129-0.078-0.217-0.164-0.264-0.25      c-0.049-0.09-0.137-0.18-0.264-0.277c-0.178-0.078-0.334-0.123-0.469-0.133c-0.137-0.008-0.293-0.074-0.469-0.203      c-0.096-0.111-0.18-0.207-0.252-0.287s-0.139-0.186-0.203-0.312c-0.129-0.16-0.285-0.287-0.469-0.385      c-0.184-0.094-0.275-0.262-0.275-0.504v-0.6c0-0.096-0.008-0.191-0.023-0.287c-0.018-0.098-0.025-0.199-0.025-0.312      c0-0.062,0.008-0.117,0.025-0.156c0.016-0.039,0.023-0.092,0.023-0.156c0-0.078,0.012-0.148,0.035-0.203      C327.061,517.057,327.072,517.012,327.072,516.98z"/>
    <path d="M344.545,516.766c0.336,0,0.576,0.096,0.719,0.287c0.145,0.193,0.217,0.455,0.217,0.791      c0,0.066-0.023,0.205-0.072,0.422c-0.047,0.215-0.107,0.455-0.18,0.719c-0.072,0.266-0.148,0.531-0.229,0.805      s-0.143,0.488-0.191,0.648c0,0.129-0.008,0.26-0.023,0.395c-0.018,0.137-0.072,0.316-0.168,0.541      c-0.129,0.096-0.193,0.252-0.193,0.467c0,0.217,0,0.373,0,0.469l-0.072,1.273v0.934c0,0.049,0.004,0.133,0.014,0.254      c0.008,0.119,0.023,0.238,0.047,0.359s0.068,0.225,0.133,0.312c0.062,0.088,0.152,0.133,0.264,0.133l0.336-0.529      c0.096-0.08,0.207-0.18,0.336-0.299c0.127-0.121,0.256-0.238,0.385-0.35c0.143-0.127,0.287-0.264,0.432-0.408      c0.096,0,0.176,0.041,0.24,0.121c0.062,0.08,0.096,0.168,0.096,0.264l-0.096,0.191c-0.064,0.129-0.129,0.225-0.193,0.287      c-0.111,0.32-0.256,0.598-0.432,0.828c-0.176,0.234-0.367,0.457-0.576,0.672c-0.207,0.219-0.42,0.438-0.635,0.66      c-0.217,0.227-0.42,0.48-0.613,0.77l-0.527,0.742c0,0.145-0.045,0.293-0.133,0.445s-0.191,0.273-0.311,0.359      c-0.121,0.09-0.248,0.129-0.385,0.121s-0.244-0.102-0.324-0.277c-0.096-0.287-0.145-0.57-0.145-0.852      c0-0.279,0.025-0.551,0.072-0.816c0.049-0.262,0.096-0.516,0.145-0.754c0.049-0.242,0.072-0.473,0.072-0.697v-0.865v-0.479      c0-0.08-0.057-0.135-0.168-0.168c-0.064-0.016-0.121-0.025-0.168-0.025c-0.049,0-0.168,0.141-0.359,0.422      c-0.193,0.279-0.412,0.6-0.66,0.959c-0.25,0.361-0.502,0.725-0.756,1.092c-0.258,0.369-0.465,0.633-0.625,0.793      c-0.049,0.062-0.125,0.156-0.229,0.275s-0.215,0.236-0.336,0.35c-0.119,0.109-0.252,0.211-0.395,0.299      c-0.145,0.088-0.273,0.131-0.385,0.131c-0.225,0-0.408-0.078-0.553-0.238c-0.143-0.16-0.256-0.348-0.336-0.564      s-0.141-0.432-0.18-0.648s-0.061-0.373-0.061-0.467l-0.07-1.73l0.336-2.807c0-0.049,0.023-0.16,0.07-0.336      c0.049-0.176,0.113-0.369,0.193-0.576s0.172-0.412,0.275-0.613c0.104-0.199,0.211-0.363,0.324-0.49      c0.463-0.432,0.912-0.959,1.344-1.584c0.207-0.289,0.408-0.496,0.6-0.625c0.193-0.127,0.385-0.227,0.576-0.301      c0.191-0.07,0.385-0.127,0.576-0.168c0.191-0.039,0.408-0.121,0.648-0.25c0.096,0,0.219-0.053,0.371-0.156      c0.152-0.105,0.293-0.203,0.42-0.301h0.672h0.408L344.545,516.766z M341.473,519.43c-0.289,0.238-0.561,0.516-0.816,0.828      s-0.48,0.627-0.672,0.947s-0.344,0.619-0.455,0.9c-0.113,0.279-0.168,0.5-0.168,0.66c0,0.078-0.01,0.227-0.025,0.443      s-0.008,0.439,0.025,0.672c0.031,0.232,0.092,0.439,0.18,0.623c0.088,0.186,0.244,0.277,0.467,0.277      c0.209,0,0.453-0.184,0.732-0.553c0.279-0.367,0.545-0.783,0.793-1.248s0.455-0.895,0.623-1.297      c0.168-0.398,0.252-0.639,0.252-0.719c0-0.062,0.008-0.219,0.023-0.469c0.016-0.246,0.004-0.488-0.035-0.719      c-0.041-0.232-0.129-0.4-0.264-0.504C341.996,519.168,341.775,519.221,341.473,519.43z"/>
    <path d="M350.688,517.172c0.287,0,0.531,0.074,0.732,0.217c0.199,0.145,0.367,0.32,0.504,0.529      c0.135,0.207,0.23,0.426,0.287,0.66c0.057,0.23,0.084,0.426,0.084,0.586v0.217v0.672c0,0.178-0.049,0.492-0.145,0.947      c-0.096,0.457-0.203,0.93-0.324,1.418c-0.119,0.488-0.227,0.943-0.322,1.367c-0.098,0.424-0.145,0.691-0.145,0.805v0.455      c0,0.096-0.061,0.244-0.18,0.443c-0.121,0.201-0.248,0.449-0.385,0.744c-0.137,0.297-0.264,0.645-0.385,1.045      c-0.119,0.398-0.18,0.855-0.18,1.367v0.672v0.672c0.129,0.225,0.213,0.465,0.252,0.721c0.041,0.256,0.18,0.545,0.42,0.865      c0.129,0.238,0.213,0.512,0.252,0.814c0.041,0.303,0.109,0.568,0.205,0.791c0.047,0.289,0.084,0.512,0.107,0.672      s0.045,0.305,0.061,0.434s0.023,0.256,0.023,0.383c0,0.129,0,0.305,0,0.529v0.912c-0.047,0.238-0.137,0.443-0.264,0.611      c-0.129,0.168-0.268,0.324-0.42,0.467c-0.152,0.145-0.309,0.277-0.469,0.398c-0.16,0.119-0.287,0.234-0.383,0.348      c-0.225,0.223-0.477,0.432-0.756,0.623c-0.281,0.193-0.469,0.287-0.564,0.287l-0.672,0.217h-0.457      c-0.143,0-0.344,0.033-0.6,0.096c-0.256,0.064-0.439,0.098-0.551,0.098h-1.393c-0.225,0-0.424-0.049-0.6-0.145      c-0.176-0.098-0.336-0.213-0.48-0.348c-0.145-0.137-0.275-0.281-0.396-0.434c-0.119-0.152-0.229-0.283-0.324-0.395      c-0.096-0.049-0.199-0.133-0.312-0.254c-0.111-0.119-0.215-0.246-0.311-0.383s-0.172-0.277-0.229-0.42      c-0.057-0.145-0.084-0.264-0.084-0.361v-0.672c0-0.271,0.035-0.504,0.107-0.695s0.172-0.424,0.301-0.695      c0.064-0.207,0.207-0.461,0.432-0.756c0.225-0.297,0.393-0.557,0.504-0.779c0.064-0.082,0.152-0.148,0.264-0.205      c0.113-0.057,0.225-0.115,0.336-0.18c0.113-0.064,0.225-0.133,0.336-0.205c0.113-0.07,0.201-0.164,0.264-0.275      c0.225-0.127,0.408-0.248,0.553-0.361c0.145-0.109,0.336-0.215,0.576-0.311c0.111,0,0.229-0.037,0.348-0.107      c0.121-0.072,0.236-0.16,0.348-0.266c0.113-0.104,0.221-0.207,0.324-0.311s0.205-0.189,0.301-0.252      c0.145-0.098,0.26-0.164,0.348-0.203c0.088-0.041,0.133-0.125,0.133-0.254c0.127-0.111,0.283-0.219,0.467-0.324      c0.184-0.104,0.34-0.219,0.469-0.348c0.08-0.287,0.152-0.566,0.215-0.84c0.064-0.223,0.121-0.451,0.168-0.684      c0.049-0.23,0.072-0.412,0.072-0.539c0-0.209-0.096-0.328-0.287-0.361c-0.191-0.031-0.408-0.049-0.648-0.049h-0.191      c-0.064,0-0.172-0.047-0.324-0.143s-0.309-0.213-0.469-0.35c-0.16-0.135-0.299-0.262-0.42-0.383      c-0.119-0.121-0.18-0.203-0.18-0.252v-0.479c0-0.32-0.035-0.566-0.107-0.734s-0.107-0.363-0.107-0.586      c0-0.336,0.084-0.758,0.252-1.262s0.359-1.004,0.574-1.5c0.217-0.496,0.42-0.951,0.613-1.367      c0.191-0.416,0.312-0.711,0.359-0.889c0.111-0.096,0.252-0.17,0.42-0.229c0.168-0.055,0.252-0.203,0.252-0.443      c0.24-0.191,0.516-0.416,0.828-0.672S350.352,517.172,350.688,517.172z M348.215,531.574c-0.225,0-0.432,0.066-0.623,0.203      c-0.193,0.137-0.4,0.316-0.625,0.539c0,0.064-0.092,0.18-0.275,0.348s-0.385,0.385-0.6,0.648      c-0.217,0.266-0.418,0.58-0.602,0.949c-0.184,0.367-0.275,0.783-0.275,1.246c0,0.176,0.107,0.336,0.324,0.48      s0.459,0.273,0.732,0.385c0.271,0.111,0.539,0.199,0.803,0.264c0.266,0.062,0.445,0.096,0.541,0.096      c0.16,0,0.34-0.061,0.539-0.18c0.201-0.119,0.385-0.275,0.553-0.467c0.168-0.193,0.309-0.402,0.42-0.625      c0.111-0.225,0.168-0.449,0.168-0.672v-0.938c0-0.062-0.012-0.219-0.035-0.467c-0.025-0.248-0.076-0.504-0.156-0.768      c-0.08-0.266-0.189-0.504-0.324-0.721C348.643,531.68,348.455,531.574,348.215,531.574z M349.703,520.438      c-0.176,0-0.324,0.092-0.443,0.275c-0.121,0.186-0.225,0.396-0.312,0.635c-0.088,0.242-0.152,0.473-0.191,0.697      c-0.041,0.225-0.061,0.377-0.061,0.455v1.082c0.08,0.254,0.152,0.479,0.215,0.672c0.064,0.176,0.137,0.328,0.217,0.455      s0.16,0.191,0.24,0.191l0.336-0.311c0.127-0.449,0.248-0.865,0.359-1.25c0.08-0.32,0.16-0.635,0.24-0.947      c0.08-0.311,0.121-0.516,0.121-0.611c0-0.08-0.006-0.195-0.014-0.348s-0.035-0.301-0.084-0.445      c-0.047-0.145-0.119-0.271-0.215-0.383C350.016,520.492,349.879,520.438,349.703,520.438z"/>
    <path d="M356.303,516.836c0.271,0,0.496,0.102,0.672,0.301s0.264,0.412,0.264,0.637l-0.215,0.672      c0.096,0.096,0.16,0.23,0.191,0.406c0.016,0.082,0.023,0.168,0.023,0.266c0,0.32-0.035,0.617-0.107,0.887      c-0.072,0.273-0.107,0.578-0.107,0.914v0.191c0,0.08-0.008,0.172-0.025,0.275c-0.016,0.104-0.039,0.205-0.07,0.299      c-0.033,0.113-0.064,0.234-0.098,0.361v0.264c0,0.176-0.027,0.32-0.084,0.434c-0.055,0.109-0.115,0.254-0.18,0.43      c-0.031,0.129-0.084,0.262-0.156,0.398c-0.07,0.135-0.107,0.291-0.107,0.467c0,0.064,0.016,0.146,0.049,0.252      c0.031,0.105,0.08,0.207,0.143,0.312c0.064,0.104,0.141,0.191,0.229,0.264s0.188,0.107,0.301,0.107      c0.127,0,0.244-0.039,0.348-0.121c0.104-0.078,0.188-0.168,0.252-0.262c0.08-0.082,0.164-0.148,0.252-0.205      s0.188-0.084,0.301-0.084h0.455c0.096,0,0.152,0.047,0.168,0.145c0.016,0.096,0.023,0.207,0.023,0.336      c0,0.047-0.072,0.145-0.215,0.289c-0.145,0.143-0.305,0.299-0.48,0.467s-0.352,0.328-0.527,0.479      c-0.178,0.152-0.297,0.254-0.361,0.301c-0.047,0.113-0.152,0.305-0.311,0.576c-0.16,0.271-0.336,0.549-0.529,0.828      c-0.191,0.279-0.396,0.529-0.611,0.744c-0.217,0.215-0.404,0.324-0.564,0.324c-0.111,0-0.236-0.035-0.371-0.109      c-0.137-0.07-0.262-0.168-0.373-0.287s-0.203-0.244-0.275-0.373c-0.072-0.127-0.107-0.254-0.107-0.383v-0.383      c0-0.129-0.01-0.242-0.025-0.336c-0.016-0.098-0.072-0.145-0.168-0.145v-0.457l0.193-0.672v-1.129      c0-0.238,0.031-0.43,0.096-0.574c0.062-0.145,0.096-0.328,0.096-0.553v-0.217c0-0.109,0.035-0.27,0.107-0.48      c0.072-0.207,0.148-0.43,0.229-0.672c0.08-0.238,0.156-0.475,0.229-0.707c0.072-0.23,0.107-0.436,0.107-0.611      c0-0.127-0.053-0.268-0.156-0.42s-0.275-0.229-0.516-0.229c-0.096,0-0.18,0.033-0.252,0.096      c-0.072,0.064-0.275,0.098-0.611,0.098c-0.033-0.016-0.064-0.057-0.098-0.121c-0.062-0.096-0.096-0.215-0.096-0.359v-0.385      c0-0.143,0.141-0.355,0.42-0.635c0.281-0.281,0.6-0.562,0.961-0.84c0.359-0.281,0.707-0.529,1.043-0.746      C355.99,516.945,356.207,516.836,356.303,516.836z M356.375,511.172c0.064,0,0.148-0.012,0.252-0.035s0.211-0.047,0.324-0.072      c0.111-0.023,0.219-0.049,0.324-0.072c0.104-0.023,0.18-0.035,0.227-0.035c0.225,0.08,0.369,0.215,0.434,0.408      c0.062,0.191,0.158,0.393,0.287,0.6c0,0.129,0.012,0.256,0.037,0.383c0.023,0.129,0.035,0.25,0.035,0.361      c0,0.096-0.033,0.213-0.096,0.348c-0.064,0.137-0.096,0.309-0.096,0.518c-0.033,0.109-0.076,0.246-0.133,0.406      s-0.129,0.309-0.215,0.445c-0.09,0.135-0.193,0.246-0.312,0.336c-0.121,0.086-0.26,0.115-0.42,0.082      c-0.225,0-0.469-0.074-0.732-0.227s-0.461-0.348-0.588-0.588c-0.113-0.096-0.152-0.24-0.121-0.432      c0.033-0.191,0.049-0.359,0.049-0.504c0-0.434,0.072-0.785,0.217-1.057C355.99,511.766,356.166,511.477,356.375,511.172z"/>
    <path d="M364.367,513.381c0.145,0,0.285,0.004,0.42,0.012c0.137,0.01,0.264,0.033,0.385,0.072      c0.119,0.039,0.215,0.105,0.287,0.191c0.072,0.09,0.109,0.213,0.109,0.373c0,0.096-0.113,0.275-0.336,0.541      c-0.225,0.262-0.469,0.551-0.732,0.863s-0.508,0.615-0.732,0.91c-0.225,0.297-0.336,0.525-0.336,0.686      c0,0.127,0.035,0.225,0.107,0.287c0.072,0.064,0.156,0.109,0.252,0.133s0.195,0.039,0.301,0.047      c0.104,0.008,0.18,0.012,0.229,0.012h0.791c0.031-0.031,0.08-0.07,0.145-0.119c0.127-0.096,0.23-0.143,0.312-0.143      c0.238,0,0.41,0.094,0.516,0.287c0.104,0.191,0.156,0.408,0.156,0.646v0.193v0.455c0,0.176-0.098,0.312-0.289,0.41      c-0.191,0.094-0.404,0.168-0.635,0.215c-0.232,0.047-0.457,0.08-0.674,0.096c-0.215,0.018-0.348,0.025-0.395,0.025      c-0.24,0-0.377-0.014-0.408-0.037c-0.033-0.025-0.096-0.037-0.191-0.037h-0.48c-0.096,0-0.232,0.049-0.408,0.145      c-0.176,0.098-0.264,0.207-0.264,0.336c0,0.176-0.01,0.332-0.025,0.469s-0.031,0.252-0.047,0.348      c-0.016,0.113-0.033,0.215-0.049,0.312c-0.047,0.096-0.096,0.184-0.143,0.264c-0.082,0.16-0.121,0.295-0.121,0.408v0.264      c0,0.271-0.039,0.568-0.119,0.889s-0.152,0.512-0.217,0.574c-0.08,0.082-0.145,0.156-0.191,0.23      c-0.049,0.07-0.072,0.258-0.072,0.562v0.48c0,0.096,0.016,0.211,0.047,0.348c0.033,0.137,0.088,0.26,0.168,0.371      c0.08,0.113,0.178,0.209,0.289,0.289s0.256,0.121,0.432,0.121c0.207,0,0.385-0.059,0.527-0.168      c0.064-0.051,0.129-0.105,0.193-0.168c0.127,0,0.229,0.035,0.299,0.105c0.072,0.074,0.141,0.148,0.205,0.23      c0.062,0.094,0.119,0.207,0.168,0.336c0,0.127-0.053,0.295-0.156,0.504c-0.104,0.207-0.229,0.41-0.373,0.611      c-0.143,0.201-0.295,0.377-0.455,0.527c-0.16,0.152-0.297,0.229-0.408,0.229s-0.221,0.092-0.324,0.275s-0.156,0.316-0.156,0.396      c-0.047,0-0.135,0.016-0.264,0.047c-0.127,0.033-0.256,0.064-0.383,0.098c-0.16,0.047-0.32,0.086-0.48,0.119      c-0.209,0-0.373-0.012-0.492-0.037c-0.121-0.023-0.18-0.098-0.18-0.227c-0.049-0.031-0.121-0.148-0.217-0.348      s-0.191-0.422-0.287-0.66c-0.096-0.24-0.18-0.477-0.252-0.707c-0.072-0.234-0.109-0.398-0.109-0.492v-1.129      c0-0.064,0.021-0.211,0.061-0.445c0.039-0.23,0.088-0.488,0.145-0.766c0.055-0.281,0.104-0.562,0.145-0.842      c0.039-0.279,0.059-0.506,0.059-0.684v-0.408c0.129-0.367,0.248-0.695,0.361-0.984c0.08-0.254,0.158-0.492,0.238-0.707      c0.08-0.217,0.121-0.34,0.121-0.371V519.5c0-0.207-0.064-0.336-0.191-0.383c-0.098-0.08-0.201-0.16-0.312-0.24      c-0.113-0.08-0.168-0.184-0.168-0.312c0-0.096,0.035-0.195,0.107-0.299c0.072-0.105,0.16-0.213,0.264-0.324      c0.105-0.113,0.209-0.229,0.312-0.348c0.104-0.121,0.188-0.236,0.252-0.348c0.111-0.242,0.221-0.389,0.324-0.445      c0.104-0.055,0.221-0.133,0.348-0.227c0.209-0.242,0.432-0.441,0.672-0.602s0.465-0.408,0.672-0.744      c0.129-0.225,0.225-0.447,0.289-0.672c0.062-0.225,0.207-0.4,0.432-0.527c0.207-0.064,0.393-0.189,0.553-0.373      C364.143,513.473,364.271,513.381,364.367,513.381z"/>
    <path d="M370.367,513.381c0.145,0,0.285,0.004,0.42,0.012c0.137,0.01,0.264,0.033,0.385,0.072      c0.119,0.039,0.215,0.105,0.287,0.191c0.072,0.09,0.109,0.213,0.109,0.373c0,0.096-0.113,0.275-0.336,0.541      c-0.225,0.262-0.469,0.551-0.732,0.863s-0.508,0.615-0.732,0.91c-0.225,0.297-0.336,0.525-0.336,0.686      c0,0.127,0.035,0.225,0.107,0.287c0.072,0.064,0.156,0.109,0.252,0.133s0.195,0.039,0.301,0.047      c0.104,0.008,0.18,0.012,0.229,0.012h0.791c0.031-0.031,0.08-0.07,0.145-0.119c0.127-0.096,0.23-0.143,0.312-0.143      c0.238,0,0.41,0.094,0.516,0.287c0.104,0.191,0.156,0.408,0.156,0.646v0.193v0.455c0,0.176-0.098,0.312-0.289,0.41      c-0.191,0.094-0.404,0.168-0.635,0.215c-0.232,0.047-0.457,0.08-0.674,0.096c-0.215,0.018-0.348,0.025-0.395,0.025      c-0.24,0-0.377-0.014-0.408-0.037c-0.033-0.025-0.096-0.037-0.191-0.037h-0.48c-0.096,0-0.232,0.049-0.408,0.145      c-0.176,0.098-0.264,0.207-0.264,0.336c0,0.176-0.01,0.332-0.025,0.469s-0.031,0.252-0.047,0.348      c-0.016,0.113-0.033,0.215-0.049,0.312c-0.047,0.096-0.096,0.184-0.143,0.264c-0.082,0.16-0.121,0.295-0.121,0.408v0.264      c0,0.271-0.039,0.568-0.119,0.889s-0.152,0.512-0.217,0.574c-0.08,0.082-0.145,0.156-0.191,0.23      c-0.049,0.07-0.072,0.258-0.072,0.562v0.48c0,0.096,0.016,0.211,0.047,0.348c0.033,0.137,0.088,0.26,0.168,0.371      c0.08,0.113,0.178,0.209,0.289,0.289s0.256,0.121,0.432,0.121c0.207,0,0.385-0.059,0.527-0.168      c0.064-0.051,0.129-0.105,0.193-0.168c0.127,0,0.229,0.035,0.299,0.105c0.072,0.074,0.141,0.148,0.205,0.23      c0.062,0.094,0.119,0.207,0.168,0.336c0,0.127-0.053,0.295-0.156,0.504c-0.104,0.207-0.229,0.41-0.373,0.611      c-0.143,0.201-0.295,0.377-0.455,0.527c-0.16,0.152-0.297,0.229-0.408,0.229s-0.221,0.092-0.324,0.275s-0.156,0.316-0.156,0.396      c-0.047,0-0.135,0.016-0.264,0.047c-0.127,0.033-0.256,0.064-0.383,0.098c-0.16,0.047-0.32,0.086-0.48,0.119      c-0.209,0-0.373-0.012-0.492-0.037c-0.121-0.023-0.18-0.098-0.18-0.227c-0.049-0.031-0.121-0.148-0.217-0.348      s-0.191-0.422-0.287-0.66c-0.096-0.24-0.18-0.477-0.252-0.707c-0.072-0.234-0.109-0.398-0.109-0.492v-1.129      c0-0.064,0.021-0.211,0.061-0.445c0.039-0.23,0.088-0.488,0.145-0.766c0.055-0.281,0.104-0.562,0.145-0.842      c0.039-0.279,0.059-0.506,0.059-0.684v-0.408c0.129-0.367,0.248-0.695,0.361-0.984c0.08-0.254,0.158-0.492,0.238-0.707      c0.08-0.217,0.121-0.34,0.121-0.371V519.5c0-0.207-0.064-0.336-0.191-0.383c-0.098-0.08-0.201-0.16-0.312-0.24      c-0.113-0.08-0.168-0.184-0.168-0.312c0-0.096,0.035-0.195,0.107-0.299c0.072-0.105,0.16-0.213,0.264-0.324      c0.105-0.113,0.209-0.229,0.312-0.348c0.104-0.121,0.188-0.236,0.252-0.348c0.111-0.242,0.221-0.389,0.324-0.445      c0.104-0.055,0.221-0.133,0.348-0.227c0.209-0.242,0.432-0.441,0.672-0.602s0.465-0.408,0.672-0.744      c0.129-0.225,0.225-0.447,0.289-0.672c0.062-0.225,0.207-0.4,0.432-0.527c0.207-0.064,0.393-0.189,0.553-0.373      C370.143,513.473,370.271,513.381,370.367,513.381z"/>
    <path d="M378.168,516.766c0.336,0,0.576,0.096,0.719,0.287c0.145,0.193,0.217,0.455,0.217,0.791      c0,0.066-0.023,0.205-0.072,0.422c-0.047,0.215-0.107,0.455-0.18,0.719c-0.072,0.266-0.148,0.531-0.229,0.805      s-0.143,0.488-0.191,0.648c0,0.129-0.008,0.26-0.023,0.395c-0.018,0.137-0.072,0.316-0.168,0.541      c-0.129,0.096-0.193,0.252-0.193,0.467c0,0.217,0,0.373,0,0.469l-0.072,1.273v0.934c0,0.049,0.004,0.133,0.014,0.254      c0.008,0.119,0.023,0.238,0.047,0.359s0.068,0.225,0.133,0.312c0.062,0.088,0.152,0.133,0.264,0.133l0.336-0.529      c0.096-0.08,0.207-0.18,0.336-0.299c0.127-0.121,0.256-0.238,0.385-0.35c0.143-0.127,0.287-0.264,0.432-0.408      c0.096,0,0.176,0.041,0.24,0.121c0.062,0.08,0.096,0.168,0.096,0.264l-0.096,0.191c-0.064,0.129-0.129,0.225-0.193,0.287      c-0.111,0.32-0.256,0.598-0.432,0.828c-0.176,0.234-0.367,0.457-0.576,0.672c-0.207,0.219-0.42,0.438-0.635,0.66      c-0.217,0.227-0.42,0.48-0.613,0.77l-0.527,0.742c0,0.145-0.045,0.293-0.133,0.445s-0.191,0.273-0.311,0.359      c-0.121,0.09-0.248,0.129-0.385,0.121s-0.244-0.102-0.324-0.277c-0.096-0.287-0.145-0.57-0.145-0.852      c0-0.279,0.025-0.551,0.072-0.816c0.049-0.262,0.096-0.516,0.145-0.754c0.049-0.242,0.072-0.473,0.072-0.697v-0.865v-0.479      c0-0.08-0.057-0.135-0.168-0.168c-0.064-0.016-0.121-0.025-0.168-0.025c-0.049,0-0.168,0.141-0.359,0.422      c-0.193,0.279-0.412,0.6-0.66,0.959c-0.25,0.361-0.502,0.725-0.756,1.092c-0.258,0.369-0.465,0.633-0.625,0.793      c-0.049,0.062-0.125,0.156-0.229,0.275s-0.215,0.236-0.336,0.35c-0.119,0.109-0.252,0.211-0.395,0.299      c-0.145,0.088-0.273,0.131-0.385,0.131c-0.225,0-0.408-0.078-0.553-0.238c-0.143-0.16-0.256-0.348-0.336-0.564      s-0.141-0.432-0.18-0.648s-0.061-0.373-0.061-0.467l-0.07-1.73l0.336-2.807c0-0.049,0.023-0.16,0.07-0.336      c0.049-0.176,0.113-0.369,0.193-0.576s0.172-0.412,0.275-0.613c0.104-0.199,0.211-0.363,0.324-0.49      c0.463-0.432,0.912-0.959,1.344-1.584c0.207-0.289,0.408-0.496,0.6-0.625c0.193-0.127,0.385-0.227,0.576-0.301      c0.191-0.07,0.385-0.127,0.576-0.168c0.191-0.039,0.408-0.121,0.648-0.25c0.096,0,0.219-0.053,0.371-0.156      c0.152-0.105,0.293-0.203,0.42-0.301h0.672h0.408L378.168,516.766z M375.096,519.43c-0.289,0.238-0.561,0.516-0.816,0.828      s-0.48,0.627-0.672,0.947s-0.344,0.619-0.455,0.9c-0.113,0.279-0.168,0.5-0.168,0.66c0,0.078-0.01,0.227-0.025,0.443      s-0.008,0.439,0.025,0.672c0.031,0.232,0.092,0.439,0.18,0.623c0.088,0.186,0.244,0.277,0.467,0.277      c0.209,0,0.453-0.184,0.732-0.553c0.279-0.367,0.545-0.783,0.793-1.248s0.455-0.895,0.623-1.297      c0.168-0.398,0.252-0.639,0.252-0.719c0-0.062,0.008-0.219,0.023-0.469c0.016-0.246,0.004-0.488-0.035-0.719      c-0.041-0.232-0.129-0.4-0.264-0.504C375.619,519.168,375.398,519.221,375.096,519.43z"/>
    <path d="M383.662,516.836c0.176-0.031,0.293-0.008,0.35,0.074c0.055,0.078,0.188,0.168,0.395,0.262      c0.176,0.098,0.328,0.209,0.457,0.336c0.127,0.129,0.191,0.281,0.191,0.457c-0.016,0.08-0.031,0.168-0.047,0.264      c-0.033,0.209-0.018,0.408,0.047,0.6c0,0.145-0.027,0.316-0.084,0.516c-0.057,0.201-0.068,0.365-0.035,0.492      c0.031,0.066,0.08,0.129,0.143,0.193c0.049,0.049,0.1,0.092,0.156,0.131c0.057,0.041,0.109,0.045,0.156,0.012      c0.16-0.031,0.332-0.184,0.516-0.455s0.365-0.576,0.541-0.912s0.352-0.664,0.527-0.984s0.336-0.535,0.48-0.648l0.744-0.191      c0.096-0.031,0.203-0.039,0.324-0.023c0.119,0.016,0.211,0.023,0.275,0.023c0.305,0.176,0.496,0.42,0.576,0.732      c0.08,0.311,0.135,0.557,0.168,0.732c0.016,0.223-0.061,0.52-0.229,0.887c-0.168,0.369-0.379,0.672-0.635,0.914      c-0.113,0.062-0.217,0.115-0.312,0.154c-0.096,0.041-0.191,0.076-0.289,0.107c-0.08,0-0.139-0.004-0.18-0.012      c-0.039-0.008-0.092-0.027-0.156-0.059c-0.08-0.031-0.154-0.053-0.227-0.061s-0.156-0.012-0.252-0.012      c-0.209,0-0.404,0.08-0.588,0.24c-0.186,0.16-0.365,0.328-0.541,0.504c-0.271,0.336-0.484,0.715-0.637,1.141      c-0.15,0.422-0.227,0.82-0.227,1.188c-0.113,0.111-0.244,0.25-0.396,0.418s-0.268,0.365-0.348,0.59      c-0.096,0.223-0.141,0.455-0.133,0.695s-0.035,0.473-0.131,0.695c0.016,0.193,0.016,0.414,0,0.66      c-0.018,0.25-0.045,0.508-0.084,0.781c-0.041,0.271-0.094,0.531-0.156,0.779c-0.064,0.248-0.137,0.467-0.217,0.66      c-0.111,0.08-0.248,0.152-0.408,0.217c-0.16,0.062-0.328,0.111-0.504,0.145c-0.191,0.047-0.4,0.078-0.623,0.094      c-0.08,0-0.186-0.062-0.312-0.191c-0.064-0.062-0.119-0.129-0.168-0.191l-0.336-0.672c-0.016-0.113,0-0.305,0.049-0.576      c0.047-0.271,0.104-0.549,0.168-0.828c0.062-0.279,0.123-0.533,0.18-0.756c0.055-0.223,0.084-0.352,0.084-0.383      c0.352-0.529,0.584-1.086,0.695-1.668c0.111-0.586,0.232-1.164,0.359-1.742l-0.191-1.582c-0.08-0.209-0.18-0.312-0.301-0.312      c-0.119,0-0.244,0.016-0.371,0.047c-0.256,0.049-0.439,0.117-0.553,0.203c-0.111,0.09-0.207,0.182-0.287,0.277      s-0.168,0.188-0.264,0.277c-0.096,0.086-0.264,0.146-0.504,0.18c-0.129,0-0.209-0.082-0.24-0.242      c-0.033-0.158-0.064-0.303-0.096-0.43c-0.033-0.145-0.01-0.285,0.072-0.422c0.078-0.135,0.188-0.264,0.322-0.383      c0.137-0.121,0.293-0.24,0.469-0.359c0.176-0.121,0.336-0.246,0.48-0.373c0.191-0.209,0.359-0.436,0.504-0.684      s0.287-0.48,0.432-0.697c0.145-0.215,0.309-0.398,0.492-0.551S383.375,516.869,383.662,516.836z"/>
    <path d="M393.311,517.102c0.145,0,0.248,0.078,0.312,0.238c0.062,0.16,0.096,0.305,0.096,0.434      c-0.289,1.008-0.545,1.928-0.768,2.76c-0.098,0.352-0.193,0.701-0.289,1.045s-0.18,0.66-0.252,0.945      c-0.072,0.289-0.129,0.533-0.168,0.734c-0.039,0.199-0.061,0.332-0.061,0.395c0,0.113-0.02,0.297-0.059,0.553      c-0.041,0.256-0.041,0.492,0,0.709c0.039,0.215,0.143,0.359,0.311,0.43c0.168,0.074,0.461-0.027,0.877-0.299      c0.031-0.08,0.135-0.184,0.312-0.312c0.176-0.127,0.367-0.287,0.576-0.479c0.127-0.129,0.207-0.262,0.238-0.398      c0.033-0.135,0.08-0.203,0.145-0.203c0-0.127,0.057-0.246,0.168-0.359s0.168-0.215,0.168-0.312      c0.033-0.111,0.121-0.32,0.264-0.625c0.145-0.303,0.305-0.672,0.48-1.102c0.145-0.305,0.279-0.633,0.408-0.984      s0.24-0.695,0.336-1.031c0.096-0.338,0.172-0.645,0.229-0.926c0.055-0.279,0.084-0.508,0.084-0.684s0.039-0.312,0.119-0.408      s0.18-0.168,0.301-0.217c0.119-0.047,0.244-0.074,0.371-0.082c0.129-0.008,0.24-0.012,0.336-0.012h0.553      c0.191,0,0.348,0.094,0.469,0.287c0.119,0.191,0.18,0.408,0.18,0.646c0,0.049-0.021,0.197-0.061,0.445s-0.088,0.531-0.145,0.852      c-0.055,0.32-0.123,0.648-0.203,0.984s-0.16,0.617-0.24,0.84c-0.336,0.719-0.664,1.438-0.984,2.148s-0.48,1.402-0.48,2.074      c0,0.082,0.033,0.168,0.098,0.266c0.031,0.047,0.062,0.088,0.096,0.121c0.207,0,0.42-0.066,0.635-0.193      c0.217-0.127,0.408-0.264,0.576-0.408s0.316-0.279,0.445-0.408c0.127-0.127,0.215-0.191,0.264-0.191      c0.047,0,0.1,0.023,0.156,0.072c0.055,0.047,0.107,0.096,0.156,0.145c0.062,0.062,0.119,0.127,0.168,0.191      c0,0.062-0.076,0.219-0.229,0.469c-0.152,0.246-0.328,0.512-0.529,0.791c-0.199,0.279-0.391,0.541-0.574,0.779      c-0.186,0.24-0.301,0.385-0.35,0.434c-0.16,0.111-0.299,0.211-0.42,0.299c-0.119,0.088-0.227,0.178-0.324,0.264      c-0.096,0.09-0.195,0.191-0.299,0.312c-0.105,0.121-0.221,0.268-0.348,0.445c-0.209,0.207-0.424,0.352-0.648,0.43      c-0.225,0.082-0.457,0.121-0.695,0.121c-0.113,0-0.221-0.035-0.324-0.109c-0.105-0.07-0.197-0.16-0.277-0.262      c-0.08-0.105-0.143-0.217-0.191-0.336c-0.049-0.121-0.072-0.221-0.072-0.301v-0.408v-0.264c0.064-0.191,0.129-0.385,0.191-0.576      c0.049-0.16,0.098-0.328,0.145-0.504c0.049-0.176,0.072-0.328,0.072-0.455c0-0.098-0.012-0.197-0.035-0.301      c-0.025-0.105-0.102-0.156-0.229-0.156c-0.096,0-0.209,0.059-0.336,0.18c-0.129,0.121-0.256,0.256-0.385,0.408      c-0.127,0.152-0.248,0.299-0.359,0.443s-0.201,0.24-0.264,0.289c-0.096,0.129-0.273,0.324-0.529,0.588s-0.527,0.527-0.814,0.791      c-0.289,0.266-0.564,0.5-0.828,0.709c-0.264,0.207-0.453,0.311-0.564,0.311c-0.096,0-0.191-0.043-0.289-0.131      c-0.096-0.088-0.18-0.193-0.252-0.312c-0.07-0.119-0.131-0.24-0.18-0.359c-0.047-0.119-0.072-0.205-0.072-0.252v-0.672      c0-0.129,0.008-0.256,0.025-0.385c0.016-0.111,0.027-0.225,0.035-0.336s0.012-0.207,0.012-0.287c0-0.098,0.02-0.229,0.061-0.396      c0.039-0.168,0.061-0.365,0.061-0.588c0-0.207,0.027-0.424,0.084-0.648c0.055-0.223,0.1-0.391,0.131-0.504l0.193-0.912      c0.031-0.111,0.115-0.303,0.252-0.576c0.135-0.271,0.203-0.641,0.203-1.104c0-0.225,0.008-0.381,0.023-0.467      c0.016-0.09-0.08-0.133-0.287-0.133c-0.096,0-0.195,0.016-0.301,0.047c-0.104,0.033-0.244,0.082-0.42,0.145      c-0.127,0.08-0.256,0.145-0.383,0.191c-0.129,0.049-0.225,0.072-0.289,0.072c-0.096,0-0.199-0.061-0.312-0.18      c-0.111-0.119-0.168-0.275-0.168-0.467c0-0.193,0.049-0.34,0.145-0.445c0.096-0.104,0.213-0.191,0.348-0.264      c0.137-0.072,0.268-0.145,0.396-0.217c0.129-0.07,0.217-0.164,0.264-0.275c0.209-0.16,0.457-0.389,0.744-0.684      c0.289-0.295,0.584-0.588,0.889-0.877c0.303-0.287,0.596-0.535,0.875-0.742c0.281-0.209,0.533-0.312,0.756-0.312H393.311z"/>
    <path d="M406.512,517.102c0.191,0.223,0.287,0.447,0.287,0.672c0,0.176-0.127,0.324-0.383,0.443      s-0.545,0.232-0.865,0.336c-0.318,0.104-0.635,0.205-0.947,0.299c-0.312,0.098-0.516,0.201-0.611,0.312      c-0.145,0.145-0.248,0.309-0.312,0.492s-0.096,0.373-0.096,0.564c0,0.193,0.031,0.377,0.096,0.553s0.145,0.336,0.24,0.48      c0.111,0.223,0.244,0.459,0.396,0.707c0.15,0.248,0.291,0.531,0.42,0.852c0.127,0.32,0.234,0.68,0.324,1.08      c0.088,0.4,0.131,0.85,0.131,1.346c0,0.43-0.145,0.867-0.432,1.307s-0.656,0.828-1.104,1.164      c-0.354,0.191-0.625,0.348-0.816,0.467c-0.191,0.121-0.359,0.217-0.504,0.289s-0.285,0.121-0.42,0.145      c-0.137,0.023-0.309,0.035-0.516,0.035h-0.865c-0.08,0-0.184,0.008-0.311,0.023c-0.129,0.016-0.258,0.041-0.385,0.074      c-0.16,0.031-0.328,0.062-0.504,0.094h-0.145h-0.527c-0.447,0-0.672-0.215-0.672-0.648c0-0.109,0.072-0.287,0.215-0.527      c0.145-0.238,0.324-0.471,0.541-0.695c0.215-0.223,0.443-0.424,0.684-0.6s0.447-0.264,0.625-0.264      c0.047,0,0.127,0.035,0.238,0.107c0.113,0.072,0.244,0.148,0.396,0.229s0.324,0.156,0.516,0.227      c0.193,0.074,0.408,0.109,0.648,0.109c0.16,0,0.309-0.049,0.443-0.145c0.137-0.096,0.252-0.211,0.35-0.348      c0.096-0.137,0.168-0.281,0.215-0.434c0.049-0.15,0.072-0.281,0.072-0.395c0-0.273-0.104-0.605-0.312-0.996      c-0.207-0.391-0.439-0.793-0.695-1.199c-0.256-0.41-0.488-0.797-0.695-1.164c-0.209-0.369-0.312-0.672-0.312-0.914v-0.262      c0.064-0.273,0.16-0.553,0.287-0.84c0.129-0.289,0.273-0.555,0.434-0.793c0.158-0.24,0.336-0.453,0.527-0.637      s0.4-0.301,0.623-0.348c0.113-0.062,0.229-0.168,0.35-0.312c0.119-0.145,0.227-0.279,0.322-0.406      c0.129-0.129,0.244-0.254,0.35-0.373c0.104-0.119,0.211-0.197,0.322-0.229c0.129-0.111,0.328-0.176,0.602-0.191      c0.271-0.016,0.471-0.023,0.6-0.023h0.527C406.104,516.766,406.32,516.877,406.512,517.102z"/>
    <path d="M404.123,451.525      c0.662,1.145,0.271,2.611-0.877,3.275c-1.148,0.662-2.615,0.268-3.277-0.877c-0.664-1.148-0.27-2.617,0.877-3.279      C401.996,449.98,403.461,450.377,404.123,451.525z"/>
    <path d="M399.766,467.779      c0.664,1.148,0.273,2.613-0.877,3.277c-1.146,0.662-2.615,0.27-3.275-0.879c-0.664-1.148-0.27-2.615,0.875-3.277      C397.641,466.236,399.104,466.631,399.766,467.779z"/>
    <path d="M387.332,446.24      c-0.664-1.145-2.127-1.541-3.277-0.877c-1.146,0.662-1.539,2.131-0.879,3.275c0.664,1.148,2.133,1.543,3.277,0.881      C387.605,448.855,387.994,447.389,387.332,446.24z"/>
    <circle cx="329.617" cy="494.541" r="2.399"/>
    <circle cx="349.25" cy="496.947" r="2.399"/>
    <circle cx="336.814" cy="475.408" r="2.398"/>
    <line x1="402.691" y1="452.504" x2="386.068" y2="448.051"/>
    <line x1="402.691" y1="452.504" x2="398.236" y2="469.127"/>
    <line x1="337.281" y1="476.217" x2="349.117" y2="496.715"/>
    <polyline points="329.656,494.67       402.691,452.504 386.068,448.051     "/>
  </g>
</svg>
