<svg xmlns="http://www.w3.org/2000/svg" viewBox="333.6 324.6 77.0 99.9">
  <g fill="none" stroke="currentColor" stroke-width="1.5" stroke-linecap="round" stroke-linejoin="round">
    <path d="M349.031,393.746c0.209,0,0.373,0.016,0.492,0.047c0.119,0.035,0.18,0.145,0.18,0.336      c0,0.305-0.096,0.531-0.287,0.672c-0.193,0.145-0.408,0.258-0.648,0.34c-0.24,0.078-0.457,0.16-0.648,0.238      s-0.287,0.199-0.287,0.359c0,0.129,0.023,0.273,0.072,0.434c0.047,0.16,0.1,0.312,0.154,0.453      c0.057,0.145,0.121,0.266,0.193,0.363c0.072,0.094,0.131,0.141,0.18,0.141c0.111,0.113,0.207,0.234,0.287,0.363      c0.08,0.109,0.152,0.227,0.217,0.348c0.064,0.117,0.096,0.242,0.096,0.371c0,0.047,0.037,0.172,0.107,0.371      c0.072,0.199,0.164,0.441,0.277,0.719c0.111,0.281,0.236,0.582,0.371,0.902c0.137,0.32,0.279,0.613,0.432,0.875      c0.152,0.266,0.301,0.484,0.445,0.66c0.143,0.176,0.271,0.266,0.383,0.266c0.096,0,0.197-0.082,0.301-0.242      s0.195-0.336,0.275-0.527c0.096-0.223,0.193-0.48,0.289-0.77c0.111-0.156,0.283-0.449,0.516-0.875      c0.232-0.422,0.459-0.883,0.684-1.379s0.424-0.973,0.6-1.43c0.176-0.453,0.264-0.801,0.264-1.043      c0-0.176-0.051-0.293-0.154-0.348c-0.105-0.055-0.205-0.117-0.301-0.18c-0.111-0.031-0.221-0.09-0.324-0.168      c-0.104-0.082-0.156-0.199-0.156-0.359s0.049-0.289,0.145-0.387c0.096-0.094,0.211-0.16,0.348-0.203      c0.137-0.039,0.264-0.062,0.385-0.07c0.119-0.008,0.203-0.012,0.252-0.012h1.152c0.047,0,0.096,0.008,0.143,0.023      c0.049,0.016,0.088,0.031,0.121,0.047c0.047,0.016,0.088,0.031,0.119,0.047c0.352,0,0.613-0.008,0.781-0.023      s0.303-0.035,0.406-0.059c0.105-0.023,0.209-0.047,0.312-0.07c0.104-0.027,0.277-0.039,0.516-0.039l0.457,0.074l0.48-0.074      c0.191,0,0.359,0.059,0.504,0.168c0.143,0.113,0.215,0.305,0.215,0.578c0,0.176-0.031,0.316-0.096,0.418      c-0.064,0.105-0.145,0.18-0.24,0.23c-0.096,0.047-0.207,0.086-0.336,0.117c-0.127,0.035-0.256,0.066-0.383,0.098      c-0.369,0.062-0.744,0.141-1.129,0.227c-0.385,0.09-0.656,0.301-0.816,0.637l-0.119,0.527c-0.033,0.051-0.092,0.137-0.18,0.266      s-0.18,0.273-0.277,0.43c-0.096,0.16-0.188,0.336-0.275,0.52s-0.156,0.355-0.203,0.516c-0.049,0.094-0.105,0.184-0.168,0.262      c-0.049,0.082-0.102,0.156-0.156,0.23c-0.057,0.07-0.109,0.129-0.156,0.18c-0.096,0.238-0.213,0.508-0.348,0.805      c-0.137,0.293-0.309,0.562-0.518,0.801c-0.398,0.945-0.742,1.816-1.031,2.617c-0.129,0.336-0.256,0.68-0.385,1.031      c-0.127,0.352-0.238,0.676-0.336,0.973c-0.096,0.297-0.172,0.562-0.227,0.793c-0.057,0.23-0.084,0.402-0.084,0.516v0.672      c0,0.238-0.029,0.445-0.084,0.613c-0.057,0.168-0.252,0.25-0.588,0.25c-0.129,0-0.262-0.008-0.396-0.023      c-0.137-0.016-0.268-0.07-0.396-0.168c-0.207-0.098-0.324-0.207-0.348-0.336s-0.084-0.238-0.18-0.336      c-0.145-0.191-0.217-0.367-0.217-0.527c-0.031-0.176-0.064-0.332-0.096-0.469s-0.088-0.27-0.168-0.395      c0-0.113-0.045-0.262-0.133-0.445s-0.131-0.324-0.131-0.422c-0.176-0.301-0.316-0.594-0.42-0.875      c-0.105-0.277-0.213-0.562-0.324-0.852s-0.236-0.586-0.373-0.898c-0.135-0.312-0.322-0.645-0.562-0.996      c-0.033-0.16-0.072-0.32-0.121-0.48c-0.031-0.129-0.064-0.262-0.096-0.398c-0.031-0.133-0.064-0.242-0.096-0.324l-0.217-0.598      c-0.031-0.098-0.107-0.23-0.227-0.41c-0.121-0.176-0.244-0.352-0.373-0.527c-0.16-0.191-0.336-0.406-0.527-0.648      c-0.08-0.605-0.221-1.176-0.42-1.703c-0.201-0.527-0.484-0.895-0.852-1.102c-0.801-0.418-1.201-0.777-1.201-1.082      c0-0.254,0.225-0.383,0.672-0.383h0.457c0.223,0,0.496-0.039,0.814-0.121c0.178-0.047,0.354-0.098,0.529-0.145h0.863l0.6,0.121      l0.434-0.047c0.111-0.016,0.219-0.035,0.322-0.051c0.105-0.016,0.189-0.023,0.252-0.023H349.031z"/>
    <path d="M362.807,395.738c0.271,0,0.496,0.102,0.672,0.301s0.264,0.41,0.264,0.637l-0.215,0.672      c0.096,0.094,0.16,0.23,0.191,0.406c0.016,0.082,0.023,0.168,0.023,0.266c0,0.32-0.035,0.617-0.107,0.887      c-0.072,0.273-0.107,0.578-0.107,0.914v0.191c0,0.078-0.008,0.172-0.025,0.273c-0.016,0.105-0.039,0.207-0.07,0.301      c-0.033,0.113-0.064,0.234-0.098,0.359v0.266c0,0.176-0.027,0.32-0.084,0.434c-0.055,0.109-0.115,0.254-0.18,0.43      c-0.031,0.129-0.084,0.262-0.156,0.398c-0.07,0.133-0.107,0.289-0.107,0.465c0,0.066,0.016,0.148,0.049,0.254      c0.031,0.105,0.08,0.207,0.143,0.312c0.064,0.102,0.141,0.191,0.229,0.262c0.088,0.074,0.188,0.109,0.301,0.109      c0.127,0,0.244-0.039,0.348-0.121c0.104-0.078,0.188-0.168,0.252-0.262c0.08-0.082,0.164-0.148,0.252-0.207      c0.088-0.055,0.188-0.082,0.301-0.082h0.455c0.096,0,0.152,0.047,0.168,0.145c0.016,0.094,0.023,0.207,0.023,0.336      c0,0.047-0.072,0.145-0.215,0.289c-0.145,0.141-0.305,0.297-0.48,0.465s-0.352,0.328-0.527,0.48      c-0.178,0.152-0.297,0.254-0.361,0.301c-0.047,0.113-0.152,0.305-0.311,0.574c-0.16,0.273-0.336,0.551-0.529,0.828      c-0.191,0.281-0.396,0.531-0.611,0.746c-0.217,0.215-0.404,0.324-0.564,0.324c-0.111,0-0.236-0.035-0.371-0.109      c-0.137-0.07-0.262-0.168-0.373-0.289c-0.111-0.117-0.203-0.242-0.275-0.371s-0.107-0.254-0.107-0.383v-0.383      c0-0.129-0.01-0.242-0.025-0.336c-0.016-0.098-0.072-0.145-0.168-0.145v-0.457l0.193-0.672v-1.129      c0-0.238,0.031-0.43,0.096-0.574c0.062-0.145,0.096-0.328,0.096-0.555v-0.215c0-0.109,0.035-0.27,0.107-0.48      c0.072-0.207,0.148-0.43,0.229-0.672c0.08-0.238,0.156-0.477,0.229-0.707s0.107-0.438,0.107-0.613      c0-0.125-0.053-0.266-0.156-0.418s-0.275-0.23-0.516-0.23c-0.096,0-0.18,0.035-0.252,0.098s-0.275,0.098-0.611,0.098      c-0.033-0.016-0.064-0.059-0.098-0.121c-0.062-0.098-0.096-0.215-0.096-0.359v-0.387c0-0.141,0.141-0.355,0.42-0.633      c0.281-0.281,0.6-0.562,0.961-0.84c0.359-0.281,0.707-0.531,1.043-0.746S362.711,395.738,362.807,395.738z M362.879,390.074      c0.064,0,0.148-0.012,0.252-0.035s0.211-0.047,0.324-0.074c0.111-0.023,0.219-0.047,0.324-0.07      c0.104-0.023,0.18-0.035,0.227-0.035c0.225,0.078,0.369,0.215,0.434,0.406c0.062,0.191,0.158,0.395,0.287,0.602      c0,0.129,0.012,0.254,0.037,0.383c0.023,0.129,0.035,0.25,0.035,0.359c0,0.098-0.033,0.215-0.096,0.348      c-0.064,0.137-0.096,0.309-0.096,0.52c-0.033,0.109-0.076,0.246-0.133,0.406s-0.129,0.309-0.215,0.445      c-0.09,0.133-0.193,0.246-0.312,0.336c-0.121,0.086-0.26,0.113-0.42,0.082c-0.225,0-0.469-0.074-0.732-0.227      s-0.461-0.348-0.588-0.59c-0.113-0.094-0.152-0.238-0.121-0.43c0.033-0.191,0.049-0.359,0.049-0.504      c0-0.434,0.072-0.785,0.217-1.059C362.494,390.668,362.67,390.379,362.879,390.074z"/>
    <path d="M369.143,395.738c0.176-0.031,0.293-0.008,0.35,0.074c0.055,0.078,0.188,0.168,0.395,0.262      c0.176,0.098,0.328,0.207,0.457,0.336c0.127,0.129,0.191,0.281,0.191,0.457c-0.016,0.078-0.031,0.168-0.047,0.262      c-0.033,0.211-0.018,0.41,0.047,0.602c0,0.145-0.027,0.316-0.084,0.516s-0.068,0.363-0.035,0.492      c0.031,0.066,0.08,0.129,0.143,0.191c0.049,0.051,0.1,0.094,0.156,0.133s0.109,0.043,0.156,0.012      c0.16-0.031,0.332-0.184,0.516-0.457c0.184-0.27,0.365-0.574,0.541-0.91s0.352-0.664,0.527-0.984s0.336-0.535,0.48-0.648      l0.744-0.191c0.096-0.031,0.203-0.039,0.324-0.023c0.119,0.016,0.211,0.023,0.275,0.023c0.305,0.176,0.496,0.418,0.576,0.73      s0.135,0.559,0.168,0.734c0.016,0.223-0.061,0.52-0.229,0.887s-0.379,0.672-0.635,0.914c-0.113,0.062-0.217,0.113-0.312,0.152      c-0.096,0.043-0.191,0.078-0.289,0.109c-0.08,0-0.139-0.004-0.18-0.012c-0.039-0.008-0.092-0.027-0.156-0.059      c-0.08-0.031-0.154-0.055-0.227-0.062s-0.156-0.012-0.252-0.012c-0.209,0-0.404,0.082-0.588,0.242      c-0.186,0.16-0.365,0.328-0.541,0.504c-0.271,0.336-0.484,0.715-0.637,1.141c-0.15,0.422-0.227,0.82-0.227,1.188      c-0.113,0.109-0.244,0.25-0.396,0.418s-0.268,0.363-0.348,0.59c-0.096,0.223-0.141,0.453-0.133,0.695      c0.008,0.238-0.035,0.473-0.131,0.695c0.016,0.191,0.016,0.414,0,0.66c-0.018,0.25-0.045,0.508-0.084,0.781      c-0.041,0.27-0.094,0.531-0.156,0.777c-0.064,0.25-0.137,0.469-0.217,0.66c-0.111,0.082-0.248,0.152-0.408,0.219      c-0.16,0.062-0.328,0.109-0.504,0.145c-0.191,0.047-0.4,0.078-0.623,0.094c-0.08,0-0.186-0.062-0.312-0.191      c-0.064-0.062-0.119-0.129-0.168-0.191l-0.336-0.672c-0.016-0.113,0-0.305,0.049-0.578c0.047-0.27,0.104-0.547,0.168-0.828      c0.062-0.277,0.123-0.531,0.18-0.754c0.055-0.223,0.084-0.352,0.084-0.383c0.352-0.531,0.584-1.086,0.695-1.668      c0.111-0.586,0.232-1.164,0.359-1.742l-0.191-1.582c-0.08-0.211-0.18-0.312-0.301-0.312c-0.119,0-0.244,0.016-0.371,0.047      c-0.256,0.047-0.439,0.117-0.553,0.203c-0.111,0.09-0.207,0.18-0.287,0.277c-0.08,0.094-0.168,0.188-0.264,0.277      c-0.096,0.086-0.264,0.145-0.504,0.18c-0.129,0-0.209-0.082-0.24-0.242c-0.033-0.16-0.064-0.305-0.096-0.43      c-0.033-0.145-0.01-0.285,0.072-0.422c0.078-0.137,0.188-0.266,0.322-0.383c0.137-0.121,0.293-0.242,0.469-0.359      c0.176-0.121,0.336-0.246,0.48-0.375c0.191-0.207,0.359-0.434,0.504-0.684c0.145-0.246,0.287-0.48,0.432-0.695      s0.309-0.398,0.492-0.551S368.855,395.77,369.143,395.738z"/>
    <path d="M378.287,396.074c0.287,0,0.531,0.074,0.732,0.215c0.199,0.145,0.367,0.32,0.504,0.531      c0.135,0.207,0.23,0.426,0.287,0.66c0.057,0.23,0.084,0.426,0.084,0.586v0.215v0.672c0,0.18-0.049,0.492-0.145,0.949      s-0.203,0.93-0.324,1.418c-0.119,0.488-0.227,0.941-0.322,1.367c-0.098,0.422-0.145,0.691-0.145,0.805v0.453      c0,0.098-0.061,0.246-0.18,0.445c-0.121,0.199-0.248,0.449-0.385,0.742c-0.137,0.297-0.264,0.645-0.385,1.047      c-0.119,0.398-0.18,0.855-0.18,1.367v0.672v0.672c0.129,0.223,0.213,0.465,0.252,0.719c0.041,0.258,0.18,0.547,0.42,0.867      c0.129,0.238,0.213,0.512,0.252,0.812c0.041,0.305,0.109,0.57,0.205,0.793c0.047,0.289,0.084,0.512,0.107,0.672      s0.045,0.305,0.061,0.434s0.023,0.254,0.023,0.383s0,0.305,0,0.527v0.914c-0.047,0.238-0.137,0.441-0.264,0.609      c-0.129,0.168-0.268,0.324-0.42,0.469s-0.309,0.277-0.469,0.398c-0.16,0.117-0.287,0.234-0.383,0.348      c-0.225,0.223-0.477,0.43-0.756,0.621c-0.281,0.195-0.469,0.289-0.564,0.289l-0.672,0.215h-0.457      c-0.143,0-0.344,0.035-0.6,0.098s-0.439,0.098-0.551,0.098h-1.393c-0.225,0-0.424-0.051-0.6-0.145      c-0.176-0.098-0.336-0.215-0.48-0.348c-0.145-0.137-0.275-0.281-0.396-0.434c-0.119-0.152-0.229-0.285-0.324-0.395      c-0.096-0.051-0.199-0.133-0.312-0.254c-0.111-0.121-0.215-0.246-0.311-0.383s-0.172-0.277-0.229-0.422      s-0.084-0.262-0.084-0.359v-0.672c0-0.273,0.035-0.504,0.107-0.695s0.172-0.426,0.301-0.695      c0.064-0.207,0.207-0.461,0.432-0.758s0.393-0.555,0.504-0.777c0.064-0.082,0.152-0.148,0.264-0.207      c0.113-0.055,0.225-0.113,0.336-0.18c0.113-0.062,0.225-0.133,0.336-0.203c0.113-0.07,0.201-0.164,0.264-0.277      c0.225-0.125,0.408-0.246,0.553-0.359c0.145-0.109,0.336-0.215,0.576-0.312c0.111,0,0.229-0.035,0.348-0.105      c0.121-0.074,0.236-0.16,0.348-0.266c0.113-0.105,0.221-0.207,0.324-0.312c0.104-0.102,0.205-0.188,0.301-0.25      c0.145-0.098,0.26-0.164,0.348-0.203c0.088-0.043,0.133-0.125,0.133-0.254c0.127-0.113,0.283-0.219,0.467-0.324      s0.34-0.219,0.469-0.348c0.08-0.289,0.152-0.566,0.215-0.84c0.064-0.223,0.121-0.453,0.168-0.684      c0.049-0.23,0.072-0.414,0.072-0.539c0-0.211-0.096-0.328-0.287-0.363c-0.191-0.031-0.408-0.047-0.648-0.047h-0.191      c-0.064,0-0.172-0.047-0.324-0.145c-0.152-0.094-0.309-0.211-0.469-0.348s-0.299-0.262-0.42-0.383      c-0.119-0.121-0.18-0.203-0.18-0.254v-0.477c0-0.32-0.035-0.566-0.107-0.734s-0.107-0.363-0.107-0.586      c0-0.336,0.084-0.758,0.252-1.262s0.359-1.004,0.574-1.5c0.217-0.496,0.42-0.953,0.613-1.367      c0.191-0.418,0.312-0.711,0.359-0.891c0.111-0.094,0.252-0.168,0.42-0.227c0.168-0.055,0.252-0.203,0.252-0.445      c0.24-0.191,0.516-0.414,0.828-0.672C377.627,396.203,377.951,396.074,378.287,396.074z M375.814,410.477      c-0.225,0-0.432,0.066-0.623,0.203c-0.193,0.137-0.4,0.316-0.625,0.539c0,0.062-0.092,0.18-0.275,0.348s-0.385,0.383-0.6,0.648      c-0.217,0.266-0.418,0.578-0.602,0.949c-0.184,0.367-0.275,0.781-0.275,1.246c0,0.176,0.107,0.336,0.324,0.48      s0.459,0.273,0.732,0.383c0.271,0.113,0.539,0.199,0.803,0.266c0.266,0.062,0.445,0.094,0.541,0.094      c0.16,0,0.34-0.059,0.539-0.18c0.201-0.117,0.385-0.273,0.553-0.465c0.168-0.195,0.309-0.402,0.42-0.625      c0.111-0.227,0.168-0.449,0.168-0.672v-0.938c0-0.062-0.012-0.219-0.035-0.469c-0.025-0.246-0.076-0.504-0.156-0.766      c-0.08-0.266-0.189-0.504-0.324-0.723C376.242,410.582,376.055,410.477,375.814,410.477z M377.303,399.34      c-0.176,0-0.324,0.09-0.443,0.273c-0.121,0.188-0.225,0.398-0.312,0.637c-0.088,0.242-0.152,0.473-0.191,0.695      c-0.041,0.227-0.061,0.379-0.061,0.457v1.082c0.08,0.254,0.152,0.477,0.215,0.672c0.064,0.176,0.137,0.328,0.217,0.453      c0.08,0.129,0.16,0.191,0.24,0.191l0.336-0.309c0.127-0.449,0.248-0.867,0.359-1.25c0.08-0.32,0.16-0.637,0.24-0.949      c0.08-0.309,0.121-0.516,0.121-0.609c0-0.082-0.006-0.195-0.014-0.348s-0.035-0.301-0.084-0.445      c-0.047-0.145-0.119-0.273-0.215-0.383C377.615,399.395,377.479,399.34,377.303,399.34z"/>
    <path d="M385.174,395.883c0.225,0,0.5,0.008,0.828,0.023s0.604,0.074,0.828,0.168      c0.24,0,0.396,0.098,0.469,0.289s0.164,0.406,0.275,0.648c0.064,0.062,0.141,0.152,0.229,0.262      c0.088,0.113,0.168,0.23,0.24,0.348c0.072,0.121,0.131,0.246,0.18,0.375c0.049,0.125,0.072,0.238,0.072,0.336l-0.193,2.133      c0,0.449-0.096,0.945-0.287,1.488c-0.191,0.547-0.473,1.035-0.84,1.465c-0.129,0.129-0.221,0.27-0.275,0.422      c-0.057,0.152-0.113,0.309-0.168,0.469c-0.057,0.16-0.121,0.32-0.193,0.488s-0.172,0.336-0.299,0.492      c-0.096,0.113-0.205,0.25-0.324,0.41c-0.121,0.16-0.248,0.324-0.385,0.492c-0.135,0.168-0.279,0.32-0.432,0.457      c-0.152,0.133-0.309,0.234-0.469,0.297c-0.238,0.129-0.439,0.242-0.6,0.336c-0.16,0.098-0.303,0.176-0.432,0.242      c-0.129,0.062-0.26,0.105-0.396,0.133c-0.135,0.023-0.283,0.035-0.443,0.035c-0.24,0-0.465-0.059-0.672-0.168      c-0.209-0.113-0.389-0.262-0.541-0.445s-0.275-0.391-0.371-0.625c-0.096-0.23-0.145-0.465-0.145-0.707v-1.605      c0-0.098-0.031-0.188-0.096-0.266c-0.064-0.082-0.096-0.305-0.096-0.672c-0.016-0.465,0.096-1.023,0.336-1.68      s0.523-1.301,0.852-1.934s0.656-1.191,0.984-1.68s0.58-0.789,0.756-0.898c0.176-0.113,0.324-0.238,0.443-0.371      c0.121-0.137,0.236-0.262,0.35-0.375c0.111-0.109,0.227-0.203,0.348-0.273C384.826,395.918,384.982,395.883,385.174,395.883z       M385.295,398.617c-0.256,0-0.516,0.109-0.781,0.324c-0.264,0.219-0.508,0.465-0.73,0.746c-0.225,0.281-0.424,0.559-0.602,0.84      c-0.176,0.281-0.295,0.484-0.359,0.613l-0.24,0.91c-0.064,0.223-0.115,0.441-0.156,0.648c-0.039,0.207-0.059,0.336-0.059,0.383      v0.457c0.062,0.047,0.119,0.145,0.168,0.289c0.047,0.145,0.107,0.285,0.18,0.43s0.156,0.273,0.252,0.387      c0.096,0.109,0.232,0.168,0.408,0.168c0.32-0.145,0.615-0.289,0.887-0.434c0.225-0.129,0.445-0.266,0.66-0.406      c0.217-0.145,0.365-0.289,0.445-0.434c0.096-0.223,0.203-0.488,0.324-0.793c0.119-0.305,0.234-0.59,0.348-0.863      c-0.033-0.129,0.004-0.254,0.107-0.383s0.156-0.25,0.156-0.359v-0.676c0-0.078-0.02-0.219-0.061-0.418      c-0.039-0.199-0.104-0.406-0.191-0.625c-0.088-0.215-0.197-0.402-0.324-0.562C385.598,398.699,385.455,398.617,385.295,398.617z      "/>
    <path d="M357.459,366.895      c0,1.324-1.074,2.398-2.402,2.398c-1.324,0-2.398-1.074-2.398-2.398c0-1.328,1.074-2.402,2.398-2.402      C356.385,364.492,357.459,365.566,357.459,366.895z"/>
    <path d="M376.967,366.891      c0,1.328-1.074,2.402-2.398,2.402c-1.328,0-2.4-1.074-2.4-2.402c0-1.324,1.072-2.398,2.4-2.398      C375.893,364.492,376.967,365.566,376.967,366.891z"/>
    <path d="M347.65,338.562      c0,1.324-1.074,2.398-2.402,2.398c-1.324,0-2.398-1.074-2.398-2.398c0-1.328,1.074-2.402,2.398-2.402      C346.576,336.16,347.65,337.234,347.65,338.562z"/>
    <path d="M367.268,338.561      c0,1.326-1.074,2.4-2.398,2.4c-1.328,0-2.4-1.074-2.4-2.4c0-1.324,1.072-2.398,2.4-2.398      C366.193,336.162,367.268,337.236,367.268,338.561z"/>
    <path d="M377.066,348.166      c0,1.324-1.072,2.398-2.398,2.398c-1.324,0-2.4-1.074-2.4-2.398c0-1.328,1.076-2.402,2.4-2.402      C375.994,345.764,377.066,346.838,377.066,348.166z"/>
    <path d="M396.695,348.164      c0,1.328-1.07,2.402-2.398,2.402c-1.324,0-2.398-1.074-2.398-2.402c0-1.324,1.074-2.398,2.398-2.398      C395.625,345.766,396.695,346.84,396.695,348.164z"/>
    <path d="M394.338,361.898      c0-3.379,1.295-6.117,4.672-6.117s4.67,2.738,4.67,6.117c0,5.256-14.725,13.699-18.576,15.867"/>
    <circle cx="355.059" cy="348.164" r="2.4"/>
    <circle cx="384.486" cy="338.561" r="2.4"/>
    <circle cx="330.384" cy="338.561" r="2.399"/>
    <circle cx="385.104" cy="377.766" r="2.4"/>
    <circle cx="394.297" cy="388.016" r="2.4"/>
    <line x1="355.059" y1="348.367" x2="355.059" y2="366.893"/>
    <line x1="374.566" y1="348.367" x2="374.566" y2="366.893"/>
    <polyline points="330.383,338.561       345.248,338.561 355.059,348.367     "/>
    <polyline points="355.059,348.367       364.867,338.561 374.68,348.367     "/>
    <polyline points="374.68,348.367       384.486,338.561 394.297,348.367 394.297,388.016     "/>
  </g>
</svg>
