<svg xmlns="http://www.w3.org/2000/svg" viewBox="203.0 330.2 81.3 82.9">
  <g fill="none" stroke="currentColor" stroke-width="1.5" stroke-linecap="round" stroke-linejoin="round">
    <path d="M235.023,394.646c0.225,0,0.436,0.062,0.637,0.191c0.199,0.129,0.299,0.312,0.299,0.551v0.457      c-0.176,0.129-0.344,0.238-0.504,0.336c-0.127,0.078-0.256,0.156-0.383,0.227c-0.129,0.074-0.217,0.109-0.264,0.109h-0.721      c-0.336,0-0.6,0.098-0.793,0.289c-0.191,0.191-0.287,0.453-0.287,0.789v0.723c0,0.43-0.053,0.902-0.156,1.414      s-0.203,1-0.301,1.465v1.32v1.344v0.672v0.266c0,0.047,0.014,0.129,0.037,0.25s0.064,0.242,0.119,0.359      c0.057,0.121,0.125,0.227,0.205,0.312c0.08,0.09,0.184,0.133,0.312,0.133h0.672h0.719h0.672c0.049,0,0.18-0.047,0.396-0.145      c0.217-0.094,0.451-0.207,0.709-0.336c0.254-0.129,0.508-0.266,0.756-0.406c0.248-0.145,0.428-0.266,0.539-0.363      c0.129-0.109,0.256-0.219,0.385-0.32c0.127-0.105,0.248-0.156,0.359-0.156c0.096-0.227,0.164-0.359,0.203-0.398      c0.041-0.039,0.125-0.059,0.252-0.059c0.098,0,0.232,0.051,0.408,0.156c0.176,0.102,0.266,0.203,0.266,0.301      c0,0.047-0.068,0.234-0.205,0.562s-0.299,0.695-0.492,1.105c-0.191,0.406-0.4,0.797-0.623,1.176      c-0.225,0.375-0.432,0.625-0.625,0.754c-0.047,0.066-0.188,0.109-0.42,0.133s-0.477,0.043-0.732,0.059      c-0.287,0.016-0.615,0.023-0.982,0.023h-0.672h-0.457c-0.336,0-0.672-0.031-1.008-0.094s-0.561-0.055-0.672,0.023l-0.312,0.07      l-1.152,0.266c-0.047,0-0.148-0.012-0.299-0.035c-0.152-0.023-0.316-0.059-0.492-0.098s-0.34-0.07-0.492-0.094      s-0.252-0.039-0.301-0.039c-0.127,0-0.248,0.02-0.359,0.051s-0.209,0.062-0.287,0.094c-0.098,0.051-0.193,0.09-0.289,0.121      c-0.176,0-0.309-0.039-0.396-0.121c-0.088-0.078-0.152-0.176-0.191-0.285c-0.041-0.113-0.064-0.227-0.072-0.336      c-0.008-0.113-0.012-0.203-0.012-0.266c0-0.336,0.107-0.543,0.324-0.625c0.217-0.078,0.451-0.148,0.707-0.203      s0.492-0.152,0.709-0.289c0.217-0.133,0.324-0.426,0.324-0.875v-2.016l0.191-1.801v-0.863c0-0.062,0.008-0.188,0.023-0.371      s0.041-0.379,0.072-0.59c0.033-0.238,0.072-0.496,0.121-0.766c0-0.129-0.037-0.25-0.109-0.363      c-0.07-0.109-0.107-0.215-0.107-0.309v-0.266c0-0.449-0.068-0.758-0.203-0.926c-0.137-0.168-0.289-0.293-0.457-0.383      c-0.168-0.086-0.32-0.188-0.455-0.301c-0.137-0.109-0.205-0.336-0.205-0.672c0-0.16,0.037-0.297,0.109-0.418      c0.07-0.121,0.154-0.219,0.252-0.301c0.096-0.078,0.191-0.137,0.287-0.168s0.168-0.047,0.217-0.047H235.023z"/>
    <path d="M245.295,396.396c0.338,0,0.621,0.062,0.854,0.18c0.232,0.121,0.42,0.285,0.564,0.492      c0.143,0.211,0.248,0.449,0.311,0.723c0.064,0.27,0.088,0.559,0.072,0.863c0,0.43-0.16,0.777-0.479,1.043      c-0.32,0.266-0.648,0.492-0.984,0.684c-0.307,0.207-0.631,0.395-0.975,0.551c-0.344,0.16-0.664,0.336-0.957,0.531      c-0.297,0.191-0.547,0.414-0.746,0.672c-0.199,0.254-0.309,0.582-0.324,0.984v1.008c-0.031,0.27,0.023,0.539,0.168,0.801      c0.145,0.266,0.328,0.398,0.551,0.398c0.016,0.016,0.082-0.008,0.195-0.074c0.109-0.062,0.234-0.137,0.371-0.227      c0.137-0.086,0.27-0.18,0.406-0.277c0.137-0.094,0.238-0.168,0.301-0.215c0.242-0.113,0.43-0.203,0.562-0.277      c0.137-0.07,0.238-0.09,0.301-0.059c0.113,0,0.209,0.016,0.289,0.047c0.08,0.035,0.121,0.152,0.121,0.359      c-0.033,0.355-0.184,0.695-0.457,1.023s-0.566,0.629-0.887,0.91s-0.633,0.523-0.938,0.73c-0.305,0.211-0.504,0.363-0.602,0.457      c-0.27,0.242-0.523,0.367-0.754,0.383c-0.232,0.02-0.467,0.027-0.707,0.027c-0.145-0.016-0.293-0.082-0.445-0.195      c-0.152-0.109-0.287-0.242-0.406-0.395c-0.121-0.152-0.213-0.309-0.277-0.469s-0.088-0.293-0.072-0.406v-0.41      c0-0.109-0.031-0.23-0.096-0.359c-0.031-0.062-0.064-0.117-0.096-0.168l0.072-0.48v-0.383c0-0.062,0.016-0.234,0.049-0.516      c0.031-0.281,0.07-0.586,0.119-0.914c0.049-0.324,0.092-0.637,0.133-0.934c0.039-0.297,0.066-0.492,0.084-0.59      c0.062-0.047,0.096-0.094,0.096-0.145c0-0.047-0.01-0.094-0.025-0.141c-0.016-0.051-0.023-0.109-0.023-0.18      c0-0.074,0.031-0.156,0.096-0.254c0-0.191,0.041-0.391,0.121-0.602c0.047-0.109,0.096-0.223,0.143-0.336l0.336-0.789      c0.033-0.352,0.201-0.719,0.506-1.094c0.301-0.375,0.656-0.715,1.066-1.02c0.406-0.305,0.828-0.547,1.258-0.73      C244.623,396.443,244.99,396.365,245.295,396.396z M244.217,398.197c-0.082,0-0.16,0.059-0.242,0.18      c-0.078,0.121-0.16,0.254-0.238,0.395c-0.082,0.18-0.16,0.363-0.242,0.555c-0.016,0.078-0.039,0.172-0.07,0.273      c-0.031,0.105-0.059,0.203-0.074,0.289c-0.016,0.09-0.008,0.16,0.027,0.215c0.031,0.059,0.094,0.086,0.191,0.086      c0.078,0.016,0.199,0,0.359-0.047c0.16-0.051,0.324-0.121,0.492-0.219c0.168-0.094,0.32-0.211,0.457-0.348      c0.133-0.133,0.211-0.281,0.227-0.441v-0.41c0-0.078-0.023-0.152-0.07-0.215c-0.051-0.062-0.105-0.113-0.168-0.145      c-0.066-0.047-0.145-0.086-0.242-0.121L244.217,398.197z"/>
    <path d="M251.582,396.396c0.225,0,0.5,0.008,0.828,0.023s0.604,0.074,0.828,0.168      c0.24,0,0.396,0.098,0.469,0.289s0.164,0.41,0.275,0.648c0.064,0.062,0.141,0.152,0.229,0.266      c0.088,0.109,0.168,0.227,0.24,0.348c0.072,0.117,0.131,0.242,0.18,0.371s0.072,0.238,0.072,0.336l-0.193,2.137      c0,0.445-0.096,0.941-0.287,1.488c-0.191,0.543-0.473,1.031-0.84,1.461c-0.129,0.129-0.221,0.27-0.275,0.422      c-0.057,0.152-0.113,0.309-0.168,0.469c-0.057,0.16-0.121,0.324-0.193,0.492s-0.172,0.332-0.299,0.492      c-0.096,0.109-0.205,0.246-0.324,0.406c-0.121,0.16-0.248,0.324-0.385,0.492c-0.135,0.168-0.279,0.32-0.432,0.457      s-0.309,0.234-0.469,0.301c-0.238,0.125-0.439,0.238-0.6,0.336c-0.16,0.094-0.303,0.176-0.432,0.238s-0.26,0.109-0.396,0.133      c-0.135,0.023-0.283,0.035-0.443,0.035c-0.24,0-0.465-0.055-0.672-0.168c-0.209-0.113-0.389-0.258-0.541-0.445      c-0.152-0.184-0.275-0.391-0.371-0.621c-0.096-0.234-0.145-0.469-0.145-0.711v-1.605c0-0.098-0.031-0.184-0.096-0.266      c-0.064-0.078-0.096-0.305-0.096-0.672c-0.016-0.465,0.096-1.023,0.336-1.68s0.523-1.301,0.852-1.934      c0.328-0.629,0.656-1.191,0.984-1.68s0.58-0.785,0.756-0.898s0.324-0.234,0.443-0.371c0.121-0.137,0.236-0.262,0.35-0.371      c0.111-0.113,0.227-0.207,0.348-0.277C251.234,396.432,251.391,396.396,251.582,396.396z M251.703,399.135      c-0.256,0-0.516,0.105-0.781,0.324c-0.264,0.215-0.508,0.461-0.73,0.742c-0.225,0.281-0.424,0.559-0.602,0.84      c-0.176,0.281-0.295,0.484-0.359,0.613l-0.24,0.91c-0.064,0.227-0.115,0.441-0.156,0.648c-0.039,0.207-0.059,0.336-0.059,0.383      v0.457c0.062,0.047,0.119,0.145,0.168,0.289c0.047,0.145,0.107,0.289,0.18,0.43c0.072,0.145,0.156,0.273,0.252,0.387      c0.096,0.109,0.232,0.168,0.408,0.168c0.32-0.145,0.615-0.289,0.887-0.434c0.225-0.129,0.445-0.262,0.66-0.406      c0.217-0.145,0.365-0.289,0.445-0.434c0.096-0.223,0.203-0.488,0.324-0.793c0.119-0.301,0.234-0.59,0.348-0.863      c-0.033-0.129,0.004-0.254,0.107-0.383s0.156-0.25,0.156-0.359v-0.672c0-0.082-0.02-0.223-0.061-0.422      c-0.039-0.199-0.104-0.406-0.191-0.625c-0.088-0.215-0.197-0.402-0.324-0.562C252.006,399.213,251.863,399.135,251.703,399.135z      "/>
    <path d="M253.129,363.361       c0-20.256-5.527-17.564-5.527-26.348c0-8.502,12.895-8.783,12.895,0s-4.535,33.148-4.535,44.484       c0,10.059,11.902,10.059,11.902,0"/>
    <path d="M236.175,344.193      c0-1.277-1.035-2.316-2.316-2.316c-1.277,0-2.312,1.039-2.312,2.316c0,1.281,1.035,2.318,2.312,2.318      C235.14,346.512,236.175,345.475,236.175,344.193z"/>
    <path d="M236.175,382.529      c0-1.277-1.035-2.316-2.316-2.316c-1.277,0-2.312,1.039-2.312,2.316c0,1.281,1.035,2.318,2.312,2.318      C235.14,384.848,236.175,383.811,236.175,382.529z"/>
    <path d="M255.344,363.361      c0-1.277-1.035-2.316-2.316-2.316c-1.277,0-2.312,1.039-2.312,2.316c0,1.281,1.035,2.318,2.312,2.318      C254.309,365.68,255.344,364.643,255.344,363.361z"/>
    <path d="M270.342,381.197      c0-1.277-1.035-2.316-2.316-2.316c-1.277,0-2.312,1.039-2.312,2.316c0,1.281,1.035,2.318,2.312,2.318      C269.307,383.516,270.342,382.479,270.342,381.197z"/>
    <path d="M217.007,363.361      c0-1.277-1.035-2.316-2.316-2.316c-1.277,0-2.312,1.039-2.312,2.316c0,1.281,1.035,2.318,2.312,2.318      C215.972,365.68,217.007,364.643,217.007,363.361z"/>
    <circle cx="233.861" cy="363.363" r="19.268"/>
    <ellipse cx="233.86" cy="363.363" rx="19.269" ry="7.709"/>
    <ellipse cx="233.861" cy="363.363" rx="7.709" ry="19.268"/>
  </g>
</svg>
