<svg xmlns="http://www.w3.org/2000/svg" viewBox="197.3 90.6 101.2 81.3">
  <g fill="none" stroke="currentColor" stroke-width="1.5" stroke-linecap="round" stroke-linejoin="round">
    <path d="M243.377,104.627       c0,1.326-1.074,2.4-2.398,2.4c-1.328,0-2.4-1.074-2.4-2.4c0-1.325,1.072-2.399,2.4-2.399       C242.303,102.228,243.377,103.302,243.377,104.627z"/>
    <path d="M284.488,118.093       c0,1.326-1.07,2.4-2.398,2.4c-1.324,0-2.398-1.074-2.398-2.4s1.074-2.4,2.398-2.4       C283.418,115.692,284.488,116.767,284.488,118.093z"/>
    <path d="M243.377,120.627       c0,1.326-1.074,2.4-2.398,2.4c-1.328,0-2.4-1.074-2.4-2.4c0-1.325,1.072-2.399,2.4-2.399       C242.303,118.228,243.377,119.302,243.377,120.627z"/>
    <path d="M284.488,134.093       c0,1.326-1.07,2.4-2.398,2.4c-1.324,0-2.398-1.074-2.398-2.4s1.074-2.4,2.398-2.4       C283.418,131.692,284.488,132.767,284.488,134.093z"/>
    <path d="M211.59,152.025c0.352,0,0.617,0.076,0.793,0.228c0.176,0.152,0.299,0.349,0.371,0.588      c0.072,0.24,0.121,0.501,0.145,0.78c0.023,0.28,0.053,0.548,0.084,0.804v0.864c0.096,0.177,0.221,0.412,0.373,0.708      c0.15,0.296,0.227,0.597,0.227,0.9v0.6c0,0.048,0.041,0.192,0.121,0.432c0.08,0.24,0.172,0.505,0.275,0.792      c0.104,0.288,0.195,0.564,0.275,0.828c0.08,0.265,0.121,0.444,0.121,0.54c0,0.305,0.039,0.708,0.119,1.212      s0.184,0.996,0.312,1.477c0.127,0.479,0.275,0.896,0.443,1.248s0.348,0.527,0.541,0.527c0.223,0,0.398,0.024,0.527,0.072      s0.24,0.072,0.336,0.072c0.049,0,0.133,0.008,0.252,0.023c0.121,0.017,0.248,0.049,0.385,0.097      c0.135,0.048,0.252,0.116,0.348,0.204s0.145,0.204,0.145,0.348c0,0.32-0.113,0.544-0.336,0.672      c-0.225,0.128-0.488,0.192-0.793,0.192l-1.607-0.072h-0.672h-1.201h-0.527l-0.672,0.072c-0.096,0-0.252-0.009-0.469-0.024      c-0.215-0.016-0.324-0.08-0.324-0.191c0-0.225,0.102-0.408,0.301-0.553c0.199-0.144,0.436-0.264,0.709-0.359      c0.223-0.08,0.41-0.168,0.562-0.265c0.152-0.096,0.229-0.256,0.229-0.479c0-0.048-0.02-0.168-0.061-0.36      c-0.039-0.191-0.088-0.396-0.143-0.612c-0.057-0.216-0.121-0.407-0.193-0.575s-0.139-0.252-0.203-0.252      c-0.049-0.16-0.084-0.336-0.107-0.528c-0.025-0.192-0.057-0.364-0.098-0.516c-0.039-0.152-0.104-0.269-0.191-0.349      s-0.221-0.104-0.396-0.072h-0.814c-0.049,0-0.141,0-0.277,0c-0.135,0-0.275,0.009-0.42,0.024      c-0.143,0.017-0.283,0.036-0.42,0.06c-0.135,0.024-0.229,0.061-0.275,0.108c-0.209,0.096-0.293,0.236-0.252,0.42      c0.039,0.185,0.061,0.381,0.061,0.588c-0.049,0.064-0.121,0.188-0.217,0.372c-0.096,0.185-0.188,0.381-0.275,0.588      c-0.088,0.208-0.164,0.4-0.229,0.576c-0.064,0.177-0.096,0.288-0.096,0.336c0,0.192,0.051,0.328,0.156,0.408      c0.104,0.08,0.219,0.156,0.348,0.228c0.127,0.072,0.244,0.173,0.348,0.301s0.156,0.344,0.156,0.647      c0,0.097-0.033,0.172-0.096,0.229c-0.064,0.056-0.141,0.096-0.229,0.12c-0.088,0.023-0.176,0.04-0.264,0.048      s-0.156,0.012-0.205,0.012c0,0.048-0.016,0.08-0.047,0.096c-0.033,0.016-0.076,0.024-0.133,0.024s-0.131-0.04-0.229-0.12      c-0.062,0-0.146,0-0.252,0c-0.104,0-0.211-0.008-0.322-0.024l-0.434-0.048c-0.207,0-0.375,0.024-0.504,0.072      c-0.127,0.048-0.295,0.072-0.504,0.072c-0.225,0-0.383,0.012-0.479,0.036c-0.098,0.023-0.166,0.048-0.205,0.071      c-0.039,0.024-0.068,0.044-0.084,0.061c-0.016,0.016-0.047,0.023-0.096,0.023c-0.08,0-0.221-0.008-0.42-0.023      c-0.201-0.017-0.404-0.045-0.611-0.084c-0.209-0.04-0.389-0.097-0.541-0.168c-0.152-0.072-0.229-0.156-0.229-0.252      c0-0.304,0.092-0.561,0.277-0.769c0.184-0.208,0.428-0.312,0.73-0.312l0.457-0.12c0.031,0,0.092-0.028,0.18-0.084      s0.18-0.124,0.275-0.204c0.098-0.08,0.197-0.164,0.301-0.252s0.188-0.156,0.252-0.204c0.096-0.399,0.268-0.836,0.516-1.308      s0.477-0.925,0.684-1.356c0.098-0.271,0.221-0.556,0.373-0.852s0.291-0.548,0.42-0.757c0.16-0.304,0.295-0.6,0.408-0.888      c0.111-0.288,0.215-0.579,0.312-0.876c0.096-0.296,0.199-0.596,0.311-0.899c0.113-0.304,0.24-0.616,0.385-0.937      c0.111-0.24,0.199-0.5,0.264-0.78c0.064-0.279,0.123-0.567,0.18-0.863s0.129-0.597,0.217-0.9s0.203-0.607,0.348-0.912      c0.096-0.08,0.199-0.176,0.312-0.288c0.111-0.111,0.271-0.216,0.479-0.312H211.59z M211.303,156.417      c-0.111,0-0.213,0.048-0.301,0.145c-0.088,0.096-0.164,0.203-0.227,0.323c-0.064,0.12-0.113,0.24-0.145,0.36      c-0.033,0.12-0.049,0.204-0.049,0.252c0,0.145,0,0.252,0,0.324s-0.008,0.136-0.023,0.191c-0.016,0.057-0.035,0.133-0.061,0.229      c-0.023,0.096-0.059,0.248-0.107,0.456v0.191c0,0.097,0.072,0.188,0.217,0.276c0.143,0.088,0.271,0.132,0.383,0.132      c0.049,0,0.125,0,0.229,0s0.207-0.008,0.312-0.023c0.104-0.016,0.195-0.048,0.275-0.097c0.08-0.048,0.119-0.119,0.119-0.216      c0-0.208-0.055-0.368-0.168-0.479c-0.111-0.112-0.168-0.225-0.168-0.336v-1.057c0-0.096-0.027-0.231-0.084-0.408      C211.451,156.505,211.383,156.417,211.303,156.417z"/>
    <path d="M225.006,154.881h0.264c0.049,0,0.129,0.045,0.24,0.132c0.111,0.089,0.232,0.188,0.359,0.301      c0.145,0.128,0.297,0.271,0.457,0.432v0.264l-0.191,1.345v0.191c0,0.177-0.033,0.376-0.096,0.601      c-0.064,0.224-0.145,0.447-0.24,0.672c-0.064,0.208-0.137,0.428-0.217,0.66c-0.08,0.231-0.119,0.436-0.119,0.611v0.192      l-0.193,1.607l-0.191,1.2l-0.072,0.672l-0.215,0.408v0.72c-0.033,0.112-0.094,0.261-0.182,0.444      c-0.088,0.185-0.131,0.324-0.131,0.42v0.48c0,0.048-0.029,0.195-0.084,0.443c-0.057,0.248-0.121,0.521-0.193,0.816      c-0.07,0.296-0.139,0.588-0.203,0.876s-0.104,0.488-0.119,0.6l-0.072,0.673c0,0.191-0.037,0.455-0.109,0.792      c-0.07,0.336-0.123,0.735-0.154,1.199l-0.145,1.128l-0.121,0.744c0,0.256,0.008,0.444,0.025,0.564      c0.016,0.12,0.027,0.216,0.035,0.288c0.008,0.071,0.02,0.144,0.037,0.216c0.016,0.072,0.023,0.18,0.023,0.324      c0,0.191,0.043,0.319,0.131,0.384c0.088,0.063,0.197,0.107,0.324,0.132c0.129,0.024,0.268,0.052,0.42,0.084      s0.301,0.096,0.445,0.192c0.143,0.096,0.264,0.252,0.359,0.468s0.16,0.531,0.191,0.948c0,0.128-0.043,0.204-0.131,0.228      c-0.088,0.024-0.205,0.036-0.348,0.036c-0.098,0-0.25-0.068-0.457-0.204s-0.432-0.204-0.672-0.204      c-0.145,0.016-0.309,0.028-0.492,0.036s-0.359,0.016-0.527,0.024c-0.168,0.008-0.324,0.012-0.469,0.012s-0.248,0-0.312,0      c-0.096,0.016-0.207,0.08-0.336,0.192c-0.127,0.111-0.271,0.228-0.432,0.348s-0.336,0.235-0.527,0.348s-0.4,0.176-0.625,0.192      h-0.479c-0.098,0-0.252,0.048-0.469,0.144c-0.217,0.097-0.436,0.16-0.66,0.192h-0.408c-0.271,0-0.539-0.088-0.803-0.264      c-0.266-0.177-0.396-0.385-0.396-0.624c-0.016-0.209,0.023-0.4,0.119-0.576c0.096-0.177,0.221-0.324,0.373-0.444      s0.32-0.212,0.504-0.276c0.184-0.063,0.363-0.096,0.539-0.096h0.457c0.158-0.016,0.359-0.063,0.6-0.144s0.471-0.188,0.695-0.324      s0.416-0.292,0.576-0.468c0.16-0.177,0.248-0.376,0.264-0.601v-0.672c0-0.063,0.016-0.172,0.049-0.324      c0.031-0.151,0.072-0.308,0.119-0.468c0.049-0.176,0.105-0.376,0.168-0.6c0.016-0.384,0.016-0.624,0-0.72      c-0.016-0.097-0.031-0.145-0.047-0.145s-0.025,0.008-0.025,0.024c0,0.016,0.025-0.064,0.072-0.24      c0.033-0.225,0.096-0.408,0.193-0.552c0.096-0.145,0.143-0.336,0.143-0.576c0-0.336,0.064-0.668,0.193-0.996      c0.127-0.328,0.24-0.66,0.336-0.996c0-0.048,0.016-0.136,0.047-0.264c0.033-0.129,0.072-0.261,0.121-0.396      c0.047-0.136,0.088-0.268,0.119-0.396c0.031-0.129,0.049-0.225,0.049-0.288v-0.265c0-0.096,0.027-0.256,0.084-0.479      c0.055-0.224,0.119-0.456,0.191-0.696s0.137-0.46,0.191-0.66c0.057-0.199,0.084-0.323,0.084-0.372l0.049-0.72      c0-0.048,0.012-0.12,0.035-0.216c0.025-0.096,0.049-0.192,0.072-0.288c0.025-0.096,0.027-0.18,0.012-0.252      s-0.055-0.108-0.119-0.108c-0.049,0-0.16,0.093-0.336,0.276c-0.176,0.185-0.385,0.42-0.625,0.708      c-0.238,0.288-0.504,0.592-0.791,0.912c-0.289,0.32-0.561,0.624-0.816,0.912s-0.484,0.523-0.684,0.708      c-0.201,0.184-0.34,0.275-0.42,0.275c-0.273,0-0.492-0.119-0.66-0.359s-0.301-0.517-0.396-0.828      c-0.096-0.312-0.164-0.628-0.203-0.948c-0.041-0.319-0.061-0.567-0.061-0.744v-0.647c0.129-0.24,0.213-0.512,0.252-0.816      c0.039-0.304,0.107-0.567,0.205-0.792c0.238-0.544,0.543-1.144,0.91-1.8c0.369-0.656,0.689-1.32,0.961-1.992      c0.031-0.159,0.107-0.336,0.229-0.528c0.119-0.191,0.26-0.375,0.42-0.552c0.16-0.176,0.32-0.332,0.48-0.468      c0.158-0.136,0.295-0.228,0.406-0.276c0.098,0,0.209-0.044,0.336-0.132c0.129-0.088,0.24-0.132,0.336-0.132      c0.098-0.096,0.248-0.152,0.457-0.168c0.207-0.016,0.344-0.024,0.408-0.024c0.191-0.063,0.34-0.136,0.443-0.216      s0.191-0.151,0.264-0.216c0.072-0.063,0.145-0.12,0.217-0.168s0.164-0.072,0.275-0.072H225.006z M223.062,157.881l-0.721,0.408      c-0.191,0-0.381,0.084-0.564,0.252s-0.363,0.38-0.539,0.636c-0.176,0.257-0.332,0.545-0.469,0.864      c-0.135,0.32-0.26,0.628-0.371,0.924c-0.113,0.297-0.197,0.564-0.252,0.805c-0.057,0.239-0.084,0.416-0.084,0.527v0.937      c0.031,0.128,0.08,0.239,0.145,0.336c0.031,0.08,0.074,0.152,0.131,0.216c0.057,0.064,0.1,0.096,0.133,0.096      c0.062,0,0.227-0.14,0.492-0.42c0.264-0.279,0.555-0.611,0.875-0.996c0.32-0.384,0.629-0.771,0.924-1.164      c0.297-0.392,0.508-0.708,0.637-0.947c0-0.049,0.02-0.168,0.061-0.36c0.039-0.192,0.086-0.404,0.143-0.636      c0.057-0.232,0.104-0.444,0.145-0.637c0.039-0.191,0.061-0.312,0.061-0.359c0-0.112-0.021-0.22-0.061-0.324      c-0.041-0.104-0.18-0.156-0.42-0.156H223.062z"/>
    <path d="M230.863,154.881c0.145,0,0.248,0.08,0.312,0.24c0.062,0.16,0.096,0.304,0.096,0.432      c-0.289,1.009-0.545,1.929-0.768,2.761c-0.098,0.352-0.193,0.7-0.289,1.044s-0.18,0.66-0.252,0.947      c-0.072,0.288-0.129,0.532-0.168,0.732s-0.061,0.332-0.061,0.396c0,0.111-0.02,0.296-0.059,0.552      c-0.041,0.256-0.041,0.492,0,0.708c0.039,0.216,0.143,0.359,0.311,0.432s0.461-0.027,0.877-0.3      c0.031-0.08,0.135-0.184,0.312-0.312c0.176-0.127,0.367-0.287,0.576-0.479c0.127-0.128,0.207-0.26,0.238-0.396      c0.033-0.136,0.08-0.203,0.145-0.203c0-0.128,0.057-0.248,0.168-0.36s0.168-0.216,0.168-0.312      c0.033-0.111,0.121-0.319,0.264-0.624c0.145-0.304,0.305-0.672,0.48-1.104c0.145-0.304,0.279-0.632,0.408-0.984      c0.129-0.352,0.24-0.695,0.336-1.031c0.096-0.337,0.172-0.645,0.229-0.925c0.055-0.279,0.084-0.508,0.084-0.684      s0.039-0.312,0.119-0.408s0.18-0.168,0.301-0.216c0.119-0.048,0.244-0.076,0.371-0.084c0.129-0.008,0.24-0.012,0.336-0.012      h0.553c0.191,0,0.348,0.096,0.47,0.288c0.117,0.191,0.18,0.407,0.18,0.647c0,0.048-0.023,0.196-0.062,0.444      s-0.086,0.532-0.145,0.852c-0.054,0.32-0.122,0.648-0.202,0.984s-0.16,0.616-0.24,0.84c-0.336,0.72-0.664,1.437-0.984,2.148      s-0.48,1.403-0.48,2.075c0,0.081,0.033,0.168,0.098,0.265c0.031,0.048,0.062,0.088,0.096,0.12c0.207,0,0.42-0.064,0.635-0.192      c0.217-0.128,0.408-0.264,0.576-0.408c0.168-0.144,0.316-0.279,0.445-0.408c0.128-0.128,0.214-0.191,0.265-0.191      c0.047,0,0.098,0.023,0.156,0.072c0.055,0.048,0.105,0.096,0.156,0.144c0.062,0.064,0.117,0.128,0.168,0.192      c0,0.063-0.078,0.22-0.23,0.468s-0.328,0.512-0.528,0.792c-0.199,0.28-0.391,0.54-0.574,0.78      c-0.186,0.239-0.301,0.384-0.35,0.432c-0.16,0.112-0.299,0.212-0.42,0.3c-0.119,0.088-0.227,0.177-0.324,0.264      c-0.096,0.089-0.195,0.192-0.299,0.312c-0.105,0.12-0.221,0.268-0.348,0.444c-0.209,0.207-0.424,0.352-0.648,0.432      s-0.457,0.12-0.695,0.12c-0.113,0-0.221-0.036-0.324-0.108c-0.105-0.071-0.197-0.16-0.277-0.264      c-0.08-0.104-0.143-0.216-0.191-0.336s-0.072-0.22-0.072-0.3v-0.408v-0.264c0.064-0.192,0.129-0.385,0.191-0.576      c0.049-0.16,0.098-0.328,0.145-0.504c0.049-0.176,0.072-0.328,0.072-0.456c0-0.097-0.012-0.196-0.035-0.301      c-0.025-0.104-0.102-0.155-0.229-0.155c-0.096,0-0.209,0.06-0.336,0.18c-0.129,0.12-0.256,0.256-0.385,0.408      c-0.127,0.152-0.248,0.3-0.359,0.443c-0.111,0.145-0.201,0.24-0.264,0.288c-0.096,0.129-0.273,0.324-0.529,0.589      c-0.256,0.264-0.527,0.527-0.814,0.792c-0.289,0.264-0.564,0.499-0.828,0.708c-0.264,0.207-0.453,0.312-0.564,0.312      c-0.096,0-0.191-0.044-0.289-0.132c-0.096-0.088-0.18-0.192-0.252-0.312c-0.07-0.12-0.131-0.239-0.18-0.359      c-0.047-0.12-0.072-0.204-0.072-0.252v-0.672c0-0.128,0.008-0.256,0.025-0.385c0.016-0.111,0.027-0.224,0.035-0.336      c0.008-0.111,0.012-0.207,0.012-0.288c0-0.096,0.02-0.228,0.061-0.396c0.039-0.168,0.061-0.364,0.061-0.588      c0-0.208,0.027-0.424,0.084-0.648c0.055-0.224,0.1-0.392,0.131-0.504l0.193-0.912c0.031-0.111,0.115-0.304,0.252-0.576      c0.135-0.271,0.203-0.64,0.203-1.104c0-0.224,0.008-0.38,0.023-0.468s-0.08-0.133-0.287-0.133c-0.096,0-0.195,0.017-0.301,0.049      c-0.104,0.032-0.244,0.08-0.42,0.144c-0.127,0.08-0.256,0.145-0.383,0.192c-0.129,0.048-0.225,0.071-0.289,0.071      c-0.096,0-0.199-0.06-0.312-0.18c-0.111-0.12-0.168-0.276-0.168-0.468c0-0.192,0.049-0.34,0.145-0.444      c0.096-0.104,0.213-0.191,0.348-0.264c0.137-0.072,0.268-0.145,0.396-0.216c0.129-0.072,0.217-0.164,0.264-0.276      c0.209-0.16,0.457-0.388,0.744-0.684c0.289-0.296,0.584-0.588,0.889-0.876c0.303-0.288,0.596-0.536,0.875-0.744      c0.281-0.208,0.533-0.312,0.756-0.312H230.863z"/>
    <path d="M244.541,154.545c0.336,0,0.576,0.097,0.719,0.288c0.145,0.192,0.217,0.456,0.217,0.792      c0,0.064-0.023,0.204-0.072,0.42c-0.047,0.216-0.107,0.456-0.18,0.72c-0.072,0.265-0.148,0.532-0.229,0.805      s-0.143,0.488-0.191,0.647c0,0.129-0.008,0.261-0.023,0.396c-0.018,0.136-0.072,0.316-0.168,0.54      c-0.129,0.096-0.193,0.252-0.193,0.468s0,0.372,0,0.468l-0.072,1.272v0.936c0,0.048,0.004,0.132,0.014,0.252      c0.008,0.12,0.023,0.24,0.047,0.36s0.068,0.225,0.133,0.312c0.062,0.089,0.152,0.133,0.264,0.133l0.336-0.528      c0.096-0.08,0.207-0.18,0.336-0.3c0.127-0.12,0.256-0.236,0.385-0.349c0.143-0.128,0.287-0.264,0.432-0.407      c0.096,0,0.176,0.04,0.24,0.119c0.062,0.081,0.096,0.169,0.096,0.265l-0.096,0.191c-0.064,0.129-0.129,0.225-0.193,0.288      c-0.111,0.32-0.256,0.597-0.432,0.828c-0.176,0.232-0.367,0.456-0.576,0.672c-0.207,0.217-0.42,0.437-0.635,0.66      c-0.217,0.225-0.42,0.48-0.613,0.769l-0.527,0.743c0,0.145-0.043,0.292-0.133,0.444c-0.086,0.152-0.191,0.272-0.309,0.36      c-0.121,0.088-0.25,0.128-0.387,0.12c-0.137-0.009-0.242-0.101-0.324-0.276c-0.094-0.288-0.145-0.572-0.145-0.852      c0-0.28,0.027-0.553,0.074-0.816s0.094-0.516,0.145-0.756c0.047-0.24,0.07-0.472,0.07-0.696v-0.864v-0.479      c0-0.08-0.055-0.136-0.168-0.168c-0.062-0.016-0.121-0.024-0.168-0.024s-0.168,0.141-0.359,0.42      c-0.191,0.28-0.41,0.601-0.66,0.96c-0.25,0.36-0.5,0.725-0.754,1.093c-0.258,0.368-0.464,0.632-0.624,0.792      c-0.051,0.063-0.125,0.155-0.23,0.275c-0.102,0.12-0.215,0.236-0.336,0.349c-0.117,0.111-0.25,0.212-0.393,0.3      c-0.146,0.088-0.275,0.132-0.385,0.132c-0.227,0-0.41-0.08-0.555-0.24c-0.141-0.16-0.254-0.348-0.336-0.563      c-0.078-0.217-0.141-0.433-0.18-0.648s-0.059-0.372-0.059-0.468l-0.07-1.729l0.336-2.808c0-0.048,0.023-0.16,0.07-0.336      s0.113-0.368,0.191-0.576c0.082-0.208,0.172-0.412,0.277-0.612c0.102-0.199,0.211-0.363,0.324-0.491      c0.463-0.433,0.91-0.96,1.344-1.584c0.206-0.288,0.405-0.496,0.597-0.624c0.195-0.128,0.387-0.229,0.578-0.301      c0.191-0.071,0.383-0.128,0.574-0.168c0.191-0.039,0.41-0.123,0.648-0.252c0.098,0,0.219-0.052,0.371-0.155      c0.152-0.104,0.293-0.204,0.422-0.301h0.672h0.406L244.541,154.545z M241.471,157.209c-0.289,0.24-0.562,0.517-0.816,0.828      c-0.258,0.312-0.48,0.628-0.671,0.948c-0.191,0.32-0.344,0.62-0.457,0.899c-0.113,0.28-0.168,0.501-0.168,0.66      c0,0.08-0.008,0.229-0.023,0.444s-0.008,0.44,0.023,0.672c0.031,0.232,0.094,0.44,0.18,0.624      c0.09,0.185,0.246,0.276,0.468,0.276c0.207,0,0.453-0.185,0.73-0.553c0.281-0.367,0.547-0.783,0.793-1.248      c0.25-0.464,0.457-0.896,0.625-1.296c0.168-0.399,0.25-0.64,0.25-0.72c0-0.063,0.008-0.22,0.023-0.468s0.004-0.488-0.035-0.72      c-0.039-0.232-0.129-0.4-0.262-0.505C241.994,156.949,241.771,157.001,241.471,157.209z"/>
    <path d="M250.035,154.617c0.176-0.032,0.293-0.008,0.35,0.072c0.055,0.08,0.188,0.168,0.395,0.264      c0.176,0.096,0.328,0.208,0.457,0.336c0.127,0.128,0.191,0.28,0.191,0.456c-0.016,0.08-0.031,0.168-0.047,0.264      c-0.033,0.208-0.018,0.408,0.047,0.601c0,0.144-0.027,0.315-0.084,0.516s-0.068,0.364-0.035,0.492      c0.031,0.064,0.08,0.128,0.143,0.192c0.049,0.048,0.1,0.092,0.156,0.132s0.109,0.044,0.156,0.012      c0.16-0.032,0.332-0.184,0.516-0.456c0.184-0.271,0.365-0.576,0.541-0.912s0.352-0.664,0.527-0.983      c0.176-0.32,0.336-0.536,0.48-0.648l0.744-0.192c0.096-0.031,0.203-0.039,0.324-0.023c0.119,0.016,0.211,0.023,0.275,0.023      c0.305,0.177,0.496,0.42,0.576,0.732c0.08,0.312,0.135,0.556,0.168,0.732c0.016,0.224-0.061,0.52-0.229,0.888      s-0.379,0.672-0.635,0.912c-0.113,0.063-0.217,0.116-0.312,0.155c-0.096,0.041-0.191,0.076-0.289,0.108      c-0.08,0-0.139-0.004-0.18-0.012c-0.039-0.008-0.092-0.028-0.156-0.061c-0.08-0.031-0.154-0.052-0.227-0.06      s-0.156-0.012-0.252-0.012c-0.209,0-0.404,0.08-0.588,0.239c-0.186,0.16-0.365,0.328-0.541,0.504      c-0.271,0.337-0.084,0.588-0.637,1.141c-0.318,0.318-0.227,0.82-0.227,1.188c-0.113,0.112-0.244,0.252-0.396,0.42      s-0.268,0.364-0.348,0.589c-0.096,0.224-0.141,0.455-0.133,0.695s-0.035,0.473-0.131,0.696c0.016,0.192,0.016,0.412,0,0.66      c-0.018,0.248-0.045,0.508-0.084,0.78c-0.041,0.271-0.094,0.531-0.156,0.779c-0.064,0.248-0.137,0.468-0.217,0.66      c-0.111,0.08-0.248,0.152-0.408,0.216c-0.16,0.064-0.328,0.112-0.504,0.145c-0.191,0.048-0.4,0.079-0.623,0.096      c-0.08,0-0.186-0.064-0.312-0.192c-0.064-0.063-0.119-0.128-0.168-0.191l-0.336-0.672c-0.016-0.112,0-0.304,0.049-0.576      c0.047-0.272,0.104-0.548,0.168-0.828c0.062-0.279,0.123-0.532,0.18-0.756c0.055-0.224,0.084-0.352,0.084-0.384      c0.352-0.528,0.584-1.084,0.695-1.668s0.232-1.164,0.359-1.74l-0.191-1.584c-0.08-0.208-0.18-0.312-0.301-0.312      c-0.119,0-0.244,0.017-0.371,0.048c-0.256,0.049-0.439,0.117-0.553,0.204c-0.111,0.089-0.207,0.181-0.287,0.276      s-0.168,0.188-0.264,0.276s-0.264,0.147-0.504,0.18c-0.129,0-0.209-0.08-0.24-0.24c-0.033-0.159-0.064-0.304-0.096-0.432      c-0.033-0.145-0.01-0.284,0.072-0.42c0.078-0.136,0.188-0.265,0.322-0.384c0.137-0.12,0.293-0.24,0.469-0.36      s0.336-0.244,0.48-0.372c0.191-0.208,0.359-0.436,0.504-0.684s0.287-0.48,0.432-0.696s0.309-0.4,0.492-0.552      C249.512,154.741,249.748,154.649,250.035,154.617z"/>
    <path d="M258.604,154.617c0.27,0,0.496,0.1,0.672,0.3s0.262,0.412,0.262,0.636l-0.215,0.673      c0.098,0.096,0.16,0.231,0.191,0.407c0.016,0.081,0.023,0.168,0.023,0.265c0,0.32-0.035,0.616-0.105,0.888      c-0.074,0.272-0.109,0.576-0.109,0.912v0.191c0,0.081-0.008,0.173-0.023,0.276c-0.016,0.104-0.039,0.204-0.07,0.3      c-0.035,0.112-0.066,0.232-0.098,0.36v0.264c0,0.177-0.027,0.32-0.086,0.433c-0.055,0.111-0.113,0.256-0.18,0.432      c-0.031,0.128-0.082,0.261-0.156,0.396c-0.07,0.136-0.105,0.292-0.105,0.468c0,0.063,0.016,0.147,0.047,0.252      s0.082,0.208,0.145,0.312c0.062,0.104,0.141,0.192,0.227,0.265c0.09,0.071,0.188,0.107,0.301,0.107      c0.129,0,0.246-0.039,0.348-0.12c0.105-0.079,0.188-0.168,0.254-0.264c0.078-0.08,0.164-0.147,0.25-0.204      c0.09-0.056,0.188-0.084,0.301-0.084h0.457c0.094,0,0.152,0.048,0.168,0.145c0.016,0.096,0.023,0.208,0.023,0.336      c0,0.048-0.074,0.144-0.215,0.288c-0.145,0.144-0.305,0.3-0.48,0.468s-0.352,0.328-0.527,0.479      c-0.18,0.152-0.297,0.252-0.363,0.3c-0.047,0.112-0.152,0.305-0.309,0.576c-0.16,0.272-0.336,0.549-0.531,0.828      c-0.191,0.28-0.395,0.528-0.609,0.744c-0.219,0.216-0.404,0.324-0.564,0.324c-0.111,0-0.236-0.036-0.371-0.108      c-0.137-0.072-0.262-0.168-0.373-0.288s-0.203-0.243-0.275-0.372c-0.072-0.128-0.107-0.256-0.107-0.384v-0.384      c0-0.128-0.01-0.24-0.025-0.336s-0.072-0.145-0.168-0.145v-0.456l0.193-0.672v-1.128c0-0.239,0.031-0.432,0.096-0.576      c0.062-0.144,0.096-0.327,0.096-0.552v-0.216c0-0.111,0.035-0.271,0.107-0.48c0.072-0.207,0.148-0.432,0.229-0.672      c0.08-0.239,0.156-0.476,0.229-0.708c0.072-0.231,0.107-0.436,0.107-0.611c0-0.128-0.053-0.268-0.156-0.42      s-0.275-0.229-0.516-0.229c-0.096,0-0.18,0.032-0.252,0.096c-0.072,0.064-0.275,0.097-0.611,0.097      c-0.033-0.016-0.064-0.056-0.098-0.12c-0.062-0.096-0.096-0.216-0.096-0.36v-0.384c0-0.144,0.141-0.355,0.42-0.636      c0.281-0.28,0.6-0.561,0.961-0.84c0.359-0.28,0.707-0.528,1.043-0.744S258.506,154.617,258.604,154.617z M258.674,148.953      c0.066,0,0.148-0.012,0.254-0.036c0.102-0.023,0.211-0.048,0.324-0.072c0.109-0.023,0.219-0.048,0.324-0.071      c0.102-0.024,0.18-0.036,0.227-0.036c0.223,0.08,0.367,0.216,0.434,0.408c0.062,0.191,0.156,0.392,0.285,0.6      c0,0.128,0.012,0.256,0.039,0.384c0.023,0.129,0.035,0.248,0.035,0.36c0,0.096-0.035,0.212-0.098,0.348      c-0.062,0.137-0.094,0.309-0.094,0.517c-0.035,0.111-0.078,0.248-0.133,0.407c-0.059,0.16-0.129,0.309-0.215,0.444      c-0.09,0.136-0.195,0.248-0.312,0.336c-0.121,0.088-0.262,0.116-0.422,0.084c-0.223,0-0.469-0.075-0.73-0.228      c-0.266-0.152-0.461-0.349-0.59-0.588c-0.113-0.097-0.152-0.24-0.121-0.433c0.035-0.191,0.051-0.359,0.051-0.504      c0-0.432,0.07-0.783,0.215-1.056S258.467,149.257,258.674,148.953z"/>
    <path d="M265.732,154.881c0.145,0,0.246,0.08,0.312,0.24c0.062,0.16,0.094,0.304,0.094,0.432      c-0.289,1.009-0.543,1.929-0.766,2.761c-0.098,0.352-0.195,0.7-0.289,1.044c-0.098,0.344-0.18,0.66-0.254,0.947      c-0.07,0.288-0.129,0.532-0.168,0.732s-0.059,0.332-0.059,0.396c0,0.111-0.02,0.296-0.059,0.552      c-0.043,0.256-0.043,0.492,0,0.708c0.039,0.216,0.141,0.359,0.309,0.432s0.461-0.027,0.879-0.3      c0.031-0.08,0.133-0.184,0.312-0.312c0.176-0.127,0.367-0.287,0.574-0.479c0.129-0.128,0.207-0.26,0.238-0.396      c0.035-0.136,0.082-0.203,0.145-0.203c0-0.128,0.059-0.248,0.168-0.36c0.113-0.112,0.168-0.216,0.168-0.312      c0.035-0.111,0.121-0.319,0.266-0.624c0.145-0.304,0.305-0.672,0.48-1.104c0.145-0.304,0.277-0.632,0.406-0.984      c0.129-0.352,0.242-0.695,0.336-1.031c0.098-0.337,0.172-0.645,0.23-0.925c0.055-0.279,0.082-0.508,0.082-0.684      s0.039-0.312,0.121-0.408c0.078-0.096,0.18-0.168,0.301-0.216c0.117-0.048,0.242-0.076,0.371-0.084s0.238-0.012,0.336-0.012      h0.551c0.191,0,0.348,0.096,0.469,0.288c0.121,0.191,0.18,0.407,0.18,0.647c0,0.048-0.02,0.196-0.059,0.444      s-0.09,0.532-0.145,0.852c-0.055,0.32-0.125,0.648-0.203,0.984c-0.082,0.336-0.16,0.616-0.242,0.84      c-0.336,0.72-0.664,1.437-0.984,2.148s-0.48,1.403-0.48,2.075c0,0.081,0.035,0.168,0.098,0.265      c0.031,0.048,0.062,0.088,0.098,0.12c0.207,0,0.418-0.064,0.633-0.192c0.219-0.128,0.41-0.264,0.578-0.408      c0.168-0.144,0.316-0.279,0.445-0.408c0.125-0.128,0.215-0.191,0.262-0.191s0.102,0.023,0.156,0.072      c0.055,0.048,0.109,0.096,0.156,0.144c0.062,0.064,0.121,0.128,0.168,0.192c0,0.063-0.074,0.22-0.227,0.468      s-0.328,0.512-0.531,0.792c-0.199,0.28-0.391,0.54-0.574,0.78c-0.184,0.239-0.301,0.384-0.348,0.432      c-0.16,0.112-0.301,0.212-0.422,0.3c-0.117,0.088-0.227,0.177-0.324,0.264c-0.094,0.089-0.195,0.192-0.297,0.312      c-0.105,0.12-0.223,0.268-0.348,0.444c-0.211,0.207-0.426,0.352-0.648,0.432c-0.227,0.08-0.457,0.12-0.695,0.12      c-0.113,0-0.223-0.036-0.324-0.108c-0.105-0.071-0.199-0.16-0.277-0.264c-0.082-0.104-0.145-0.216-0.191-0.336      c-0.051-0.12-0.074-0.22-0.074-0.3v-0.408v-0.264c0.066-0.192,0.129-0.385,0.191-0.576c0.051-0.16,0.098-0.328,0.145-0.504      c0.051-0.176,0.074-0.328,0.074-0.456c0-0.097-0.012-0.196-0.035-0.301c-0.027-0.104-0.102-0.155-0.23-0.155      c-0.094,0-0.207,0.06-0.336,0.18s-0.254,0.256-0.383,0.408s-0.25,0.3-0.359,0.443c-0.113,0.145-0.203,0.24-0.266,0.288      c-0.094,0.129-0.273,0.324-0.527,0.589c-0.258,0.264-0.527,0.527-0.816,0.792c-0.289,0.264-0.562,0.499-0.828,0.708      c-0.262,0.207-0.453,0.312-0.562,0.312c-0.098,0-0.191-0.044-0.289-0.132s-0.18-0.192-0.254-0.312      c-0.07-0.12-0.129-0.239-0.18-0.359c-0.047-0.12-0.07-0.204-0.07-0.252v-0.672c0-0.128,0.008-0.256,0.023-0.385      c0.016-0.111,0.027-0.224,0.035-0.336c0.008-0.111,0.012-0.207,0.012-0.288c0-0.096,0.02-0.228,0.062-0.396      c0.039-0.168,0.059-0.364,0.059-0.588c0-0.208,0.027-0.424,0.086-0.648c0.055-0.224,0.098-0.392,0.129-0.504l0.195-0.912      c0.031-0.111,0.113-0.304,0.25-0.576c0.137-0.271,0.203-0.64,0.203-1.104c0-0.224,0.008-0.38,0.023-0.468      s-0.078-0.133-0.285-0.133c-0.098,0-0.195,0.017-0.301,0.049s-0.246,0.08-0.422,0.144c-0.125,0.08-0.254,0.145-0.383,0.192      s-0.223,0.071-0.289,0.071c-0.094,0-0.199-0.06-0.312-0.18c-0.109-0.12-0.168-0.276-0.168-0.468c0-0.192,0.051-0.34,0.145-0.444      c0.098-0.104,0.215-0.191,0.348-0.264c0.137-0.072,0.27-0.145,0.398-0.216c0.129-0.072,0.215-0.164,0.262-0.276      c0.211-0.16,0.457-0.388,0.746-0.684s0.582-0.588,0.887-0.876s0.598-0.536,0.875-0.744c0.281-0.208,0.535-0.312,0.758-0.312      H265.732z"/>
    <path d="M278.932,154.881c0.191,0.225,0.285,0.448,0.285,0.672c0,0.177-0.125,0.324-0.383,0.444      c-0.254,0.12-0.543,0.232-0.863,0.336c-0.32,0.104-0.637,0.204-0.949,0.3c-0.312,0.097-0.516,0.2-0.609,0.312      c-0.145,0.144-0.25,0.308-0.312,0.492c-0.066,0.184-0.098,0.372-0.098,0.563c0,0.192,0.031,0.376,0.098,0.552      c0.062,0.177,0.145,0.336,0.238,0.48c0.113,0.225,0.246,0.46,0.398,0.708c0.148,0.248,0.289,0.532,0.418,0.852      c0.129,0.32,0.234,0.681,0.324,1.08c0.09,0.4,0.133,0.849,0.133,1.345c0,0.432-0.145,0.868-0.434,1.308      c-0.285,0.44-0.656,0.828-1.102,1.164c-0.355,0.191-0.625,0.348-0.816,0.468s-0.359,0.216-0.504,0.288s-0.285,0.12-0.422,0.144      c-0.137,0.024-0.309,0.036-0.516,0.036h-0.863c-0.082,0-0.184,0.008-0.312,0.024c-0.129,0.016-0.258,0.04-0.383,0.072      c-0.16,0.031-0.328,0.063-0.504,0.096h-0.145h-0.527c-0.449,0-0.672-0.216-0.672-0.648c0-0.111,0.07-0.288,0.215-0.527      c0.145-0.24,0.324-0.472,0.539-0.696c0.215-0.224,0.445-0.424,0.684-0.6c0.242-0.176,0.449-0.265,0.625-0.265      c0.047,0,0.129,0.036,0.238,0.108c0.113,0.072,0.246,0.148,0.398,0.228c0.152,0.081,0.324,0.156,0.516,0.229      s0.406,0.107,0.648,0.107c0.16,0,0.309-0.048,0.441-0.144c0.137-0.096,0.254-0.212,0.352-0.348      c0.094-0.136,0.168-0.28,0.215-0.433c0.047-0.151,0.07-0.283,0.07-0.396c0-0.272-0.102-0.604-0.312-0.996      c-0.207-0.392-0.438-0.792-0.695-1.2c-0.254-0.408-0.488-0.796-0.695-1.164s-0.312-0.672-0.312-0.912v-0.264      c0.066-0.272,0.16-0.552,0.289-0.84s0.273-0.553,0.434-0.792c0.156-0.24,0.336-0.452,0.527-0.637      c0.191-0.184,0.398-0.3,0.621-0.348c0.113-0.063,0.23-0.168,0.352-0.312c0.117-0.145,0.227-0.28,0.32-0.408      c0.129-0.128,0.246-0.252,0.352-0.372c0.102-0.12,0.211-0.196,0.32-0.229c0.129-0.111,0.328-0.176,0.602-0.191      s0.473-0.024,0.602-0.024h0.527C278.521,154.545,278.74,154.657,278.932,154.881z"/>
    <circle cx="214.205" cy="104.517" r="2.4"/>
    <circle cx="227.647" cy="117.958" r="2.4"/>
    <circle cx="254.937" cy="118.251" r="2.399"/>
    <circle cx="268.393" cy="104.794" r="2.4"/>
    <circle cx="200.63" cy="118.092" r="2.4"/>
    <circle cx="214.205" cy="120.517" r="2.4"/>
    <circle cx="227.647" cy="133.958" r="2.4"/>
    <circle cx="254.937" cy="134.251" r="2.399"/>
    <circle cx="268.393" cy="120.794" r="2.4"/>
    <circle cx="200.63" cy="134.092" r="2.4"/>
    <polyline points="200.63,118.093        214.205,104.517 227.783,118.093      "/>
    <polyline points="227.783,118.093        241.357,104.517 254.938,118.093      "/>
    <polyline points="254.938,118.093        268.512,104.517 282.09,118.093      "/>
    <polyline points="200.63,134.093        214.205,120.517 227.783,134.093      "/>
    <polyline points="227.783,134.093        241.357,120.517 254.938,134.093      "/>
    <polyline points="254.938,134.093        268.512,120.517 282.09,134.093      "/>
  </g>
</svg>
