<svg xmlns="http://www.w3.org/2000/svg" viewBox="332.5 210.0 73.4 82.9">
  <g fill="none" stroke="currentColor" stroke-width="1.5" stroke-linecap="round" stroke-linejoin="round">
    <path d="M346.451,274.919h0.457h0.672c0.336,0,0.621,0.141,0.852,0.42c0.23,0.28,0.414,0.597,0.551,0.948      c0.137,0.353,0.238,0.684,0.301,0.996c0.062,0.312,0.098,0.5,0.098,0.563c0,0.129,0.008,0.229,0.023,0.301      c0.016,0.071,0.039,0.14,0.07,0.204c0.031,0.063,0.066,0.119,0.098,0.168c0,0.048-0.008,0.104-0.023,0.168      c-0.035,0.111-0.09,0.208-0.168,0.287c0,0.112-0.008,0.221-0.023,0.324c-0.02,0.104-0.074,0.156-0.168,0.156      c-0.082,0-0.211-0.092-0.387-0.276c-0.176-0.184-0.359-0.388-0.551-0.611c-0.223-0.272-0.473-0.576-0.746-0.912      c-0.176-0.097-0.41-0.2-0.707-0.312c-0.297-0.111-0.578-0.216-0.852-0.312c-0.336-0.112-0.68-0.216-1.031-0.312      c-0.512,0-1.02,0.097-1.523,0.288c-0.504,0.192-0.961,0.473-1.367,0.84c-0.41,0.368-0.754,0.816-1.035,1.345      c-0.277,0.527-0.441,1.128-0.492,1.8c0,0.32-0.031,0.576-0.094,0.768c-0.066,0.192-0.098,0.4-0.098,0.624      c0,0.225,0.008,0.412,0.023,0.564s0.074,0.34,0.168,0.563c0.113,0.336,0.273,0.696,0.48,1.08s0.453,0.74,0.734,1.068      c0.277,0.328,0.594,0.6,0.945,0.815c0.352,0.217,0.73,0.324,1.129,0.324l0.863-0.288c0.227,0,0.469-0.084,0.734-0.252      c0.262-0.168,0.395-0.411,0.395-0.731v-0.48c-0.031-0.191-0.07-0.388-0.121-0.588c-0.047-0.2-0.117-0.403-0.215-0.612      c-0.129-0.224-0.285-0.451-0.469-0.684c-0.184-0.231-0.34-0.38-0.469-0.444c-0.223-0.079-0.336-0.191-0.336-0.336      c0-0.063,0.039-0.115,0.109-0.155c0.074-0.04,0.156-0.068,0.254-0.084c0.109-0.017,0.238-0.024,0.383-0.024h1.055h1.152h0.457      c0.113,0,0.203-0.008,0.277-0.024c0.07-0.016,0.145-0.036,0.227-0.06c0.078-0.024,0.184-0.048,0.312-0.072      c0.129-0.023,0.305-0.036,0.527-0.036c0.113,0.032,0.215,0.072,0.312,0.12c0.078,0.032,0.156,0.08,0.227,0.145      c0.074,0.063,0.109,0.128,0.109,0.191c0,0.097-0.039,0.252-0.121,0.469c-0.078,0.216-0.168,0.323-0.262,0.323h-0.266      c-0.336,0-0.613,0.129-0.828,0.384c-0.215,0.257-0.324,0.488-0.324,0.696v0.672v0.721c0,0.208-0.031,0.368-0.098,0.479      c-0.062,0.112-0.094,0.288-0.094,0.528c0.031,0.128,0.055,0.256,0.07,0.384c0.016,0.112,0.02,0.236,0.012,0.372      s-0.035,0.26-0.082,0.372c0,0.112-0.035,0.204-0.109,0.275c-0.07,0.072-0.148,0.141-0.227,0.204      c-0.098,0.064-0.207,0.129-0.336,0.192l-1.609,0.264h-0.383c-0.066,0-0.164-0.012-0.301-0.036      c-0.137-0.023-0.281-0.056-0.43-0.096c-0.152-0.04-0.312-0.072-0.48-0.096c-0.168-0.024-0.324-0.036-0.469-0.036h-0.648      c-0.082,0-0.191-0.016-0.336-0.048s-0.281-0.08-0.41-0.145c-0.238-0.079-0.477-0.136-0.719-0.168      c-0.238-0.031-0.422-0.048-0.551-0.048c-0.047-0.063-0.125-0.115-0.23-0.156c-0.102-0.039-0.215-0.084-0.336-0.132      c-0.117-0.048-0.23-0.104-0.336-0.168c-0.102-0.063-0.18-0.151-0.227-0.264c-0.129-0.048-0.293-0.212-0.492-0.492      c-0.199-0.279-0.395-0.596-0.586-0.948c-0.195-0.352-0.363-0.708-0.504-1.067c-0.145-0.36-0.219-0.66-0.219-0.9v-0.408      c0-0.128-0.043-0.283-0.133-0.468c-0.086-0.184-0.129-0.34-0.129-0.468v-0.937v-0.647c0.094-0.256,0.184-0.496,0.262-0.72      c0.066-0.192,0.125-0.388,0.18-0.589c0.059-0.199,0.086-0.363,0.086-0.491l0.191-0.408c0-0.352,0.137-0.728,0.406-1.128      c0.273-0.4,0.598-0.776,0.973-1.128s0.77-0.645,1.176-0.876c0.41-0.232,0.758-0.349,1.047-0.349      c0.125-0.016,0.246-0.031,0.359-0.048c0.094-0.016,0.191-0.031,0.289-0.048c0.094-0.016,0.176-0.024,0.238-0.024h0.266      c0.238,0,0.41-0.012,0.516-0.035c0.102-0.024,0.203-0.057,0.297-0.097c0.098-0.039,0.215-0.071,0.352-0.096      c0.133-0.024,0.348-0.036,0.633-0.036h0.938H346.451z"/>
    <path d="M355.381,277.055c0.336,0,0.617,0.061,0.852,0.181c0.23,0.12,0.418,0.284,0.562,0.492      s0.25,0.447,0.312,0.72s0.086,0.561,0.07,0.864c0,0.432-0.16,0.779-0.477,1.044c-0.32,0.264-0.648,0.491-0.984,0.684      c-0.305,0.208-0.629,0.393-0.973,0.552c-0.344,0.16-0.664,0.336-0.961,0.528s-0.543,0.416-0.742,0.672      c-0.203,0.256-0.309,0.584-0.324,0.984v1.008c-0.035,0.272,0.023,0.54,0.168,0.804c0.141,0.265,0.328,0.396,0.551,0.396      c0.016,0.016,0.078-0.008,0.191-0.072c0.113-0.063,0.234-0.14,0.371-0.229c0.137-0.087,0.273-0.18,0.41-0.275      s0.234-0.168,0.301-0.216c0.238-0.112,0.426-0.204,0.562-0.276s0.234-0.092,0.301-0.06c0.109,0,0.207,0.016,0.285,0.048      c0.082,0.032,0.121,0.152,0.121,0.359c-0.031,0.353-0.184,0.692-0.457,1.021c-0.27,0.328-0.566,0.632-0.887,0.912      s-0.633,0.524-0.934,0.731c-0.305,0.208-0.508,0.36-0.602,0.456c-0.273,0.24-0.523,0.368-0.758,0.384      c-0.23,0.017-0.465,0.024-0.707,0.024c-0.145-0.016-0.293-0.08-0.445-0.192c-0.152-0.111-0.285-0.243-0.406-0.396      s-0.211-0.308-0.277-0.468c-0.062-0.16-0.086-0.296-0.07-0.408v-0.408c0-0.111-0.031-0.231-0.098-0.36      c-0.031-0.063-0.062-0.119-0.094-0.168l0.07-0.479v-0.384c0-0.064,0.016-0.236,0.051-0.517c0.031-0.279,0.07-0.584,0.117-0.912      c0.051-0.327,0.094-0.64,0.133-0.936s0.066-0.492,0.086-0.588c0.062-0.048,0.094-0.096,0.094-0.145      c0-0.048-0.008-0.096-0.023-0.144s-0.023-0.108-0.023-0.18c0-0.072,0.031-0.156,0.094-0.252c0-0.192,0.043-0.393,0.121-0.601      c0.047-0.111,0.098-0.224,0.145-0.336l0.336-0.792c0.031-0.352,0.199-0.716,0.504-1.092s0.66-0.716,1.066-1.021      c0.41-0.304,0.828-0.548,1.262-0.731S355.076,277.023,355.381,277.055z M354.299,278.855c-0.078,0-0.16,0.06-0.238,0.18      c-0.082,0.12-0.16,0.252-0.242,0.396c-0.078,0.177-0.16,0.36-0.238,0.553c-0.016,0.08-0.039,0.172-0.074,0.275      c-0.031,0.104-0.055,0.2-0.07,0.288s-0.008,0.16,0.023,0.216c0.031,0.057,0.098,0.084,0.191,0.084      c0.082,0.017,0.199,0,0.359-0.048s0.324-0.12,0.492-0.216s0.32-0.212,0.457-0.348s0.211-0.284,0.227-0.444v-0.408      c0-0.08-0.023-0.151-0.07-0.216c-0.047-0.063-0.105-0.111-0.168-0.144c-0.062-0.049-0.145-0.088-0.238-0.12L354.299,278.855z"/>
    <path d="M361.189,277.319c0.238,0,0.387,0.084,0.441,0.252c0.059,0.168,0.074,0.368,0.051,0.6      c-0.027,0.232-0.062,0.468-0.109,0.708s-0.066,0.433-0.047,0.576v0.672c0,0.048,0.008,0.132,0.023,0.252      s0.055,0.225,0.117,0.312c0.066,0.088,0.156,0.14,0.277,0.155c0.121,0.017,0.293-0.048,0.516-0.191      c0.082-0.063,0.199-0.196,0.359-0.396c0.16-0.199,0.332-0.424,0.516-0.672s0.379-0.512,0.578-0.792      c0.199-0.279,0.387-0.531,0.562-0.756c0.176-0.224,0.336-0.412,0.48-0.564c0.145-0.151,0.25-0.228,0.312-0.228      c0.238,0,0.453,0.06,0.637,0.18s0.344,0.269,0.48,0.444c0.133,0.176,0.238,0.356,0.312,0.54c0.07,0.184,0.105,0.332,0.105,0.444      l-0.145,0.6c0,0.048-0.008,0.136-0.023,0.264c-0.016,0.129-0.012,0.244,0.012,0.349c0.023,0.104,0.07,0.172,0.133,0.204      s0.184-0.017,0.359-0.145c0.098-0.08,0.266-0.264,0.504-0.552c0.242-0.288,0.504-0.584,0.793-0.888s0.586-0.576,0.887-0.816      c0.305-0.24,0.578-0.36,0.816-0.36c0.32,0,0.559,0.101,0.711,0.301c0.148,0.2,0.227,0.412,0.227,0.636      c0,0.048-0.016,0.14-0.047,0.275c-0.035,0.137-0.074,0.28-0.121,0.433s-0.09,0.3-0.121,0.443      c-0.031,0.145-0.047,0.249-0.047,0.312v0.479c0,0.24-0.074,0.581-0.215,1.021c-0.145,0.44-0.301,0.908-0.469,1.404      s-0.32,0.976-0.457,1.439c-0.137,0.465-0.203,0.84-0.203,1.128c0,0.08-0.008,0.181-0.023,0.3c-0.016,0.12-0.016,0.225,0,0.312      s0.062,0.141,0.145,0.156c0.078,0.016,0.215-0.04,0.406-0.168c0.078-0.048,0.207-0.136,0.383-0.265      c0.176-0.128,0.352-0.235,0.527-0.323s0.328-0.128,0.457-0.12s0.184,0.132,0.168,0.372c-0.289,0.352-0.559,0.672-0.816,0.96      c-0.223,0.256-0.445,0.508-0.672,0.756c-0.223,0.248-0.391,0.436-0.504,0.563c-0.238,0.177-0.43,0.345-0.574,0.504      c-0.145,0.16-0.277,0.309-0.398,0.444c-0.117,0.136-0.25,0.244-0.395,0.324s-0.336,0.12-0.574,0.12      c-0.18,0-0.32-0.053-0.434-0.156c-0.113-0.104-0.207-0.22-0.289-0.348c-0.078-0.129-0.137-0.261-0.168-0.396      s-0.047-0.235-0.047-0.3c0-0.448,0.059-0.876,0.18-1.284s0.262-0.796,0.422-1.164c0.156-0.368,0.309-0.731,0.453-1.092      s0.242-0.716,0.289-1.068c0-0.063,0.008-0.144,0.023-0.239c0.016-0.097,0.039-0.192,0.074-0.288      c0.031-0.112,0.062-0.225,0.094-0.336c0-0.112-0.008-0.265-0.023-0.456c-0.016-0.192-0.051-0.372-0.109-0.54      c-0.055-0.168-0.129-0.304-0.227-0.408c-0.098-0.104-0.215-0.124-0.359-0.061c-0.32,0.112-0.602,0.381-0.84,0.805      c-0.242,0.424-0.465,0.92-0.672,1.487c-0.211,0.568-0.402,1.169-0.578,1.801s-0.352,1.212-0.527,1.739      c-0.176,0.528-0.355,0.969-0.539,1.32s-0.379,0.528-0.59,0.528c-0.109,0-0.242-0.024-0.395-0.072s-0.301-0.108-0.445-0.18      c-0.145-0.072-0.262-0.148-0.359-0.229c-0.094-0.08-0.145-0.144-0.145-0.191c-0.016-0.4,0.031-0.792,0.145-1.177      c0.113-0.384,0.238-0.743,0.371-1.079c0.137-0.337,0.266-0.645,0.387-0.925c0.117-0.279,0.18-0.531,0.18-0.756v-0.191      c0-0.304,0.109-0.729,0.336-1.272c0.062-0.208,0.145-0.408,0.238-0.6c0.098-0.192,0.129-0.353,0.098-0.48      c0-0.191-0.09-0.348-0.266-0.468s-0.312-0.14-0.406-0.061c-0.273,0.081-0.52,0.244-0.746,0.492      c-0.223,0.248-0.418,0.513-0.586,0.792c-0.168,0.28-0.312,0.544-0.434,0.792c-0.121,0.249-0.203,0.42-0.25,0.517      c-0.227,0.336-0.395,0.664-0.504,0.983c-0.113,0.32-0.234,0.616-0.359,0.889c0,0.032-0.043,0.216-0.121,0.552      c-0.082,0.336-0.199,0.696-0.359,1.08s-0.367,0.731-0.613,1.044c-0.25,0.312-0.547,0.468-0.898,0.468      c-0.098,0-0.191-0.036-0.277-0.108c-0.09-0.071-0.16-0.159-0.215-0.264c-0.059-0.104-0.102-0.208-0.133-0.312      c-0.031-0.104-0.047-0.188-0.047-0.252c0-0.097-0.039-0.212-0.109-0.349c-0.074-0.136-0.059-0.308,0.035-0.516      c0.062-0.128,0.176-0.433,0.336-0.912c0.16-0.48,0.324-1.004,0.492-1.572c0.168-0.567,0.312-1.116,0.434-1.644      c0.117-0.528,0.172-0.912,0.156-1.152c0-0.096,0.031-0.191,0.094-0.288c0.062-0.096,0.098-0.199,0.098-0.312      c0-0.225-0.02-0.4-0.062-0.528c-0.039-0.128-0.172-0.192-0.395-0.192c-0.098,0-0.188,0.032-0.277,0.097      c-0.086,0.063-0.18,0.14-0.273,0.228c-0.098,0.088-0.207,0.164-0.324,0.229c-0.121,0.063-0.277,0.096-0.469,0.096      c-0.113,0-0.215-0.032-0.312-0.096c-0.047-0.032-0.078-0.064-0.094-0.097c0-0.224,0.066-0.436,0.203-0.636      c0.133-0.2,0.289-0.3,0.469-0.3c0.207-0.224,0.422-0.444,0.645-0.66c0.227-0.216,0.457-0.372,0.699-0.468      c0.047-0.048,0.156-0.152,0.324-0.312c0.168-0.159,0.355-0.323,0.562-0.491s0.414-0.32,0.625-0.456      C360.916,277.388,361.076,277.319,361.189,277.319z"/>
    <path d="M375.275,276.911c0.27,0,0.496,0.1,0.672,0.3s0.262,0.412,0.262,0.636l-0.215,0.673      c0.098,0.096,0.16,0.231,0.191,0.407c0.016,0.081,0.023,0.168,0.023,0.265c0,0.32-0.035,0.616-0.105,0.888      c-0.074,0.272-0.109,0.576-0.109,0.912v0.191c0,0.081-0.008,0.173-0.023,0.276c-0.016,0.104-0.039,0.204-0.07,0.3      c-0.035,0.112-0.066,0.232-0.098,0.36v0.264c0,0.177-0.027,0.32-0.086,0.433c-0.055,0.111-0.113,0.256-0.18,0.432      c-0.031,0.128-0.082,0.261-0.156,0.396c-0.07,0.136-0.105,0.292-0.105,0.468c0,0.063,0.016,0.147,0.047,0.252      s0.082,0.208,0.145,0.312c0.062,0.104,0.141,0.192,0.227,0.265c0.09,0.071,0.188,0.107,0.301,0.107      c0.129,0,0.246-0.039,0.348-0.12c0.105-0.079,0.188-0.168,0.254-0.264c0.078-0.08,0.164-0.147,0.25-0.204      c0.09-0.056,0.188-0.084,0.301-0.084h0.457c0.094,0,0.152,0.048,0.168,0.145c0.016,0.096,0.023,0.208,0.023,0.336      c0,0.048-0.074,0.144-0.215,0.288c-0.145,0.144-0.305,0.3-0.48,0.468s-0.352,0.328-0.527,0.479      c-0.18,0.152-0.297,0.252-0.363,0.3c-0.047,0.112-0.152,0.305-0.309,0.576c-0.16,0.272-0.336,0.549-0.531,0.828      c-0.191,0.28-0.395,0.528-0.609,0.744c-0.219,0.216-0.406,0.324-0.566,0.324c-0.109,0-0.234-0.036-0.371-0.108      s-0.262-0.168-0.371-0.288c-0.113-0.12-0.203-0.243-0.277-0.372c-0.07-0.128-0.105-0.256-0.105-0.384v-0.384      c0-0.128-0.012-0.24-0.027-0.336s-0.07-0.145-0.168-0.145v-0.456l0.195-0.672v-1.128c0-0.239,0.031-0.432,0.094-0.576      c0.062-0.144,0.098-0.327,0.098-0.552v-0.216c0-0.111,0.035-0.271,0.105-0.48c0.074-0.207,0.148-0.432,0.23-0.672      c0.078-0.239,0.156-0.476,0.227-0.708c0.074-0.231,0.109-0.436,0.109-0.611c0-0.128-0.055-0.268-0.156-0.42      c-0.105-0.152-0.277-0.229-0.516-0.229c-0.098,0-0.18,0.032-0.254,0.096c-0.07,0.064-0.273,0.097-0.609,0.097      c-0.035-0.016-0.066-0.056-0.098-0.12c-0.062-0.096-0.098-0.216-0.098-0.36v-0.384c0-0.144,0.141-0.355,0.422-0.636      s0.598-0.561,0.961-0.84c0.359-0.28,0.707-0.528,1.043-0.744S375.178,276.911,375.275,276.911z M375.346,271.247      c0.066,0,0.148-0.012,0.254-0.036c0.102-0.023,0.211-0.048,0.324-0.072c0.109-0.023,0.219-0.048,0.324-0.071      c0.102-0.024,0.18-0.036,0.227-0.036c0.223,0.08,0.367,0.216,0.434,0.408c0.062,0.191,0.156,0.392,0.285,0.6      c0,0.128,0.012,0.256,0.039,0.384c0.023,0.129,0.035,0.248,0.035,0.36c0,0.096-0.035,0.212-0.098,0.348      c-0.062,0.137-0.094,0.309-0.094,0.517c-0.035,0.111-0.078,0.248-0.133,0.407c-0.059,0.16-0.129,0.309-0.215,0.444      c-0.09,0.136-0.195,0.248-0.312,0.336c-0.121,0.088-0.262,0.116-0.422,0.084c-0.223,0-0.469-0.075-0.73-0.228      c-0.266-0.152-0.461-0.349-0.59-0.588c-0.113-0.097-0.152-0.24-0.121-0.433c0.035-0.191,0.051-0.359,0.051-0.504      c0-0.432,0.07-0.783,0.215-1.056S375.139,271.551,375.346,271.247z"/>
    <path d="M381.611,277.319c0.176,0,0.312,0.056,0.406,0.168c0.098,0.112,0.184,0.231,0.266,0.359      c0.047,0.112,0.062,0.265,0.047,0.456c-0.016,0.192-0.043,0.385-0.082,0.576c-0.039,0.192-0.082,0.376-0.121,0.552      c-0.039,0.177-0.059,0.297-0.059,0.36l0.07,0.384l0.266,0.48c0.062,0,0.188-0.092,0.371-0.276      c0.184-0.184,0.398-0.411,0.648-0.684c0.246-0.272,0.508-0.564,0.781-0.876c0.27-0.312,0.535-0.604,0.789-0.876      c0.258-0.272,0.488-0.5,0.695-0.685c0.211-0.184,0.363-0.275,0.457-0.275c0.129,0,0.238,0.08,0.324,0.239      c0.09,0.16,0.172,0.328,0.254,0.505c0.078,0.208,0.152,0.447,0.215,0.72c0.016,0.224,0,0.536-0.047,0.936      c-0.051,0.4-0.125,0.837-0.23,1.309c-0.102,0.472-0.215,0.952-0.336,1.439c-0.117,0.488-0.23,0.937-0.336,1.344      c-0.102,0.408-0.191,0.749-0.262,1.021c-0.074,0.272-0.109,0.416-0.109,0.432c0,0.064-0.008,0.141-0.023,0.229      s-0.023,0.168-0.023,0.24c0,0.071,0.02,0.132,0.059,0.18s0.125,0.072,0.254,0.072c0.094-0.064,0.191-0.128,0.285-0.192      c0.082-0.063,0.168-0.128,0.266-0.192c0.094-0.063,0.199-0.136,0.312-0.216c0.27-0.176,0.523-0.34,0.754-0.492      c0.234-0.151,0.383-0.228,0.445-0.228c0.098,0,0.199,0.052,0.312,0.156c0.109,0.104,0.168,0.204,0.168,0.3      c0,0.032-0.051,0.12-0.156,0.264c-0.105,0.145-0.227,0.297-0.371,0.456c-0.145,0.16-0.289,0.305-0.434,0.433      s-0.246,0.191-0.312,0.191c0,0.128-0.043,0.248-0.133,0.36c-0.086,0.112-0.18,0.168-0.273,0.168      c-0.258,0.272-0.473,0.536-0.648,0.792s-0.352,0.492-0.527,0.708s-0.371,0.388-0.578,0.516s-0.473,0.192-0.789,0.192      c-0.113,0-0.23-0.04-0.352-0.12c-0.117-0.08-0.227-0.18-0.324-0.3c-0.094-0.12-0.172-0.248-0.227-0.385      c-0.055-0.136-0.082-0.252-0.082-0.348l-0.074-0.864c0.098-0.432,0.219-0.896,0.371-1.392s0.293-0.96,0.422-1.392      c0.129-0.368,0.23-0.721,0.312-1.057c0.078-0.336,0.137-0.655,0.168-0.96v-0.264c-0.066-0.448-0.227-0.672-0.48-0.672      c-0.383,0-0.688,0.084-0.914,0.252c-0.223,0.168-0.406,0.384-0.551,0.647c-0.145,0.265-0.266,0.549-0.371,0.853      s-0.219,0.592-0.348,0.864c-0.082,0.096-0.133,0.188-0.156,0.275s-0.02,0.196,0.012,0.324c-0.031,0.192-0.07,0.384-0.109,0.576      c-0.039,0.191-0.09,0.376-0.156,0.552c-0.176,0.513-0.344,1.02-0.504,1.524c-0.16,0.504-0.301,0.972-0.43,1.403      c0.078,0.128,0.066,0.204-0.035,0.229c-0.105,0.023-0.207,0.036-0.301,0.036c-0.098,0-0.234-0.005-0.41-0.013      s-0.348-0.036-0.516-0.084s-0.32-0.12-0.457-0.216c-0.133-0.096-0.211-0.231-0.227-0.408c-0.031-0.271,0-0.556,0.098-0.852      c0.094-0.296,0.203-0.572,0.324-0.828c0.117-0.256,0.234-0.48,0.348-0.672c0.109-0.192,0.168-0.32,0.168-0.384v-0.408v-0.456      l-0.121-0.408c0-0.096,0.031-0.22,0.098-0.372c0.062-0.151,0.129-0.304,0.203-0.456c0.07-0.151,0.141-0.291,0.203-0.42      c0.062-0.128,0.098-0.224,0.098-0.288v-0.336l-0.074-0.936c0-0.097-0.012-0.196-0.035-0.3c-0.023-0.104-0.102-0.156-0.227-0.156      c-0.098,0-0.207,0.023-0.324,0.072c-0.121,0.048-0.242,0.1-0.363,0.155c-0.117,0.057-0.23,0.108-0.336,0.156      c-0.102,0.048-0.188,0.072-0.25,0.072h-0.191c-0.113-0.064-0.141-0.188-0.086-0.372c0.059-0.184,0.086-0.324,0.086-0.42      c0.398-0.561,0.785-1.052,1.164-1.477c0.375-0.424,0.828-0.804,1.355-1.14c0.113-0.063,0.266-0.145,0.457-0.24      S381.436,277.319,381.611,277.319z"/>
    <path d="M391.764,276.911c0.27,0,0.496,0.1,0.672,0.3s0.262,0.412,0.262,0.636l-0.215,0.673      c0.098,0.096,0.16,0.231,0.191,0.407c0.016,0.081,0.023,0.168,0.023,0.265c0,0.32-0.035,0.616-0.105,0.888      c-0.074,0.272-0.109,0.576-0.109,0.912v0.191c0,0.081-0.008,0.173-0.023,0.276c-0.016,0.104-0.039,0.204-0.07,0.3      c-0.035,0.112-0.066,0.232-0.098,0.36v0.264c0,0.177-0.027,0.32-0.086,0.433c-0.055,0.111-0.113,0.256-0.18,0.432      c-0.031,0.128-0.082,0.261-0.156,0.396c-0.07,0.136-0.105,0.292-0.105,0.468c0,0.063,0.016,0.147,0.047,0.252      s0.082,0.208,0.145,0.312c0.062,0.104,0.141,0.192,0.227,0.265c0.09,0.071,0.188,0.107,0.301,0.107      c0.129,0,0.246-0.039,0.348-0.12c0.105-0.079,0.188-0.168,0.254-0.264c0.078-0.08,0.164-0.147,0.25-0.204      c0.09-0.056,0.188-0.084,0.301-0.084h0.457c0.094,0,0.152,0.048,0.168,0.145c0.016,0.096,0.023,0.208,0.023,0.336      c0,0.048-0.074,0.144-0.215,0.288c-0.145,0.144-0.305,0.3-0.48,0.468s-0.352,0.328-0.527,0.479      c-0.18,0.152-0.297,0.252-0.363,0.3c-0.047,0.112-0.152,0.305-0.309,0.576c-0.16,0.272-0.336,0.549-0.531,0.828      c-0.191,0.28-0.395,0.528-0.609,0.744c-0.219,0.216-0.406,0.324-0.566,0.324c-0.109,0-0.234-0.036-0.371-0.108      s-0.262-0.168-0.371-0.288c-0.113-0.12-0.203-0.243-0.277-0.372c-0.07-0.128-0.105-0.256-0.105-0.384v-0.384      c0-0.128-0.012-0.24-0.027-0.336s-0.07-0.145-0.168-0.145v-0.456l0.195-0.672v-1.128c0-0.239,0.031-0.432,0.094-0.576      c0.062-0.144,0.098-0.327,0.098-0.552v-0.216c0-0.111,0.035-0.271,0.105-0.48c0.074-0.207,0.148-0.432,0.23-0.672      c0.078-0.239,0.156-0.476,0.227-0.708c0.074-0.231,0.109-0.436,0.109-0.611c0-0.128-0.055-0.268-0.156-0.42      c-0.105-0.152-0.277-0.229-0.516-0.229c-0.098,0-0.18,0.032-0.254,0.096c-0.07,0.064-0.273,0.097-0.609,0.097      c-0.035-0.016-0.066-0.056-0.098-0.12c-0.062-0.096-0.098-0.216-0.098-0.36v-0.384c0-0.144,0.141-0.355,0.422-0.636      s0.598-0.561,0.961-0.84c0.359-0.28,0.707-0.528,1.043-0.744S391.666,276.911,391.764,276.911z M391.834,271.247      c0.066,0,0.148-0.012,0.254-0.036c0.102-0.023,0.211-0.048,0.324-0.072c0.109-0.023,0.219-0.048,0.324-0.071      c0.102-0.024,0.18-0.036,0.227-0.036c0.223,0.08,0.367,0.216,0.434,0.408c0.062,0.191,0.156,0.392,0.285,0.6      c0,0.128,0.012,0.256,0.039,0.384c0.023,0.129,0.035,0.248,0.035,0.36c0,0.096-0.035,0.212-0.098,0.348      c-0.062,0.137-0.094,0.309-0.094,0.517c-0.035,0.111-0.078,0.248-0.133,0.407c-0.059,0.16-0.129,0.309-0.215,0.444      c-0.09,0.136-0.195,0.248-0.312,0.336c-0.121,0.088-0.262,0.116-0.422,0.084c-0.223,0-0.469-0.075-0.73-0.228      c-0.266-0.152-0.461-0.349-0.59-0.588c-0.113-0.097-0.152-0.24-0.121-0.433c0.035-0.191,0.051-0.359,0.051-0.504      c0-0.432,0.07-0.783,0.215-1.056S391.627,271.551,391.834,271.247z"/>
    <path d="M365.836,256.197"/>
    <path d="M365.836,256.197"/>
    <path d="M388.137,256.197      c0-1.277-1.035-2.316-2.316-2.316c-1.277,0-2.312,1.039-2.312,2.316c0,1.281,1.035,2.318,2.312,2.318      C387.102,258.516,388.137,257.479,388.137,256.197z"/>
    <path d="M348.164,256.197      c0-1.277-1.039-2.316-2.316-2.316c-1.281,0-2.32,1.039-2.32,2.316c0,1.281,1.039,2.318,2.32,2.318      C347.125,258.516,348.164,257.479,348.164,256.197z"/>
    <path d="M365.836,223.99"/>
    <path d="M365.836,223.99"/>
    <path d="M388.137,223.99      c0,1.277-1.035,2.316-2.316,2.316c-1.277,0-2.312-1.039-2.312-2.316c0-1.281,1.035-2.318,2.312-2.318      C387.102,221.672,388.137,222.709,388.137,223.99z"/>
    <path d="M348.164,223.99      c0,1.277-1.039,2.316-2.316,2.316c-1.281,0-2.32-1.039-2.32-2.316c0-1.281,1.039-2.318,2.32-2.318      C347.125,221.672,348.164,222.709,348.164,223.99z"/>
    <path d="M355.902,240.094      c0-1.281-1.035-2.316-2.312-2.316c-1.281,0-2.316,1.035-2.316,2.316c0,1.277,1.035,2.316,2.316,2.316      C354.867,242.41,355.902,241.371,355.902,240.094z"/>
    <circle cx="365.832" cy="256.197" r="2.316"/>
    <circle cx="378.078" cy="240.094" r="2.316"/>
    <circle cx="365.832" cy="223.99" r="2.316"/>
    <line x1="345.844" y1="256.189" x2="385.824" y2="256.189"/>
    <line x1="353.586" y1="256.197" x2="353.59" y2="240.094"/>
    <line x1="378.074" y1="256.197" x2="378.078" y2="240.094"/>
    <line x1="345.844" y1="223.998" x2="385.824" y2="223.998"/>
    <line x1="353.586" y1="223.99" x2="353.59" y2="240.094"/>
    <line x1="378.074" y1="223.99" x2="378.078" y2="240.094"/>
    <polygon points="353.59,240.094 365.832,256.197       378.074,240.094     "/>
    <polygon points="353.59,240.094 365.832,223.99       378.074,240.094     "/>
  </g>
</svg>
